<svg width="152" height="50" viewBox="0 0 152 50" fill="none" xmlns="http://www.w3.org/2000/svg">
<rect width="152" height="50" rx="8" fill="#2B3942"/>
<g clip-path="url(#clip0)">
<path d="M16.6103 13.3067C15.9905 12.9335 15.2517 12.9002 14.6074 13.2108L25.4101 24.0365L28.9422 20.488L16.6103 13.3067ZM13.6149 14.2127C13.4786 14.5013 13.4053 14.8223 13.4053 15.1526V34.9553C13.4053 35.2871 13.4791 35.6034 13.6168 35.8858L24.4152 25.0361L13.6149 14.2127ZM25.4116 26.0343L14.6262 36.8708C14.9124 37.0034 15.217 37.0612 15.521 37.0612C15.8965 37.0612 16.2711 36.9714 16.6104 36.7674L28.9446 29.5754L25.4116 26.0343ZM33.639 23.2231C33.6347 23.2202 33.63 23.2174 33.6258 23.2151L30.2018 21.2211L26.406 25.0347L30.2041 28.8408C30.2041 28.8408 33.6347 26.8407 33.639 26.8384C34.2757 26.4516 34.6559 25.7758 34.6559 25.0305C34.6559 24.2851 34.2757 23.6094 33.639 23.2231Z" fill="#00F9FF"/>
</g>
<path fill-rule="evenodd" clip-rule="evenodd" d="M79.8788 33.0117C79.3124 32.5586 78.8592 31.7656 78.6327 31.3125L80.4452 30.5195C80.5585 30.7461 80.785 31.0859 81.0116 31.4258C81.4647 31.8789 82.1444 32.332 82.8241 32.332C83.5038 32.332 84.2967 31.9922 84.7499 31.4258C85.0897 30.8594 85.3163 30.293 85.3163 29.5V28.8203C83.9569 30.5195 81.1249 30.293 79.5389 28.4805C77.8397 26.668 77.8397 23.6094 79.5389 21.7969C81.2381 20.0977 83.7303 19.8711 85.203 21.457V20.6641H87.1288V29.1602C87.1288 31.3125 86.3358 32.5586 85.3163 33.3516C84.6366 33.918 83.6171 34.1445 82.7108 34.1445C81.6913 34.0312 80.6718 33.6914 79.8788 33.0117ZM127.344 33.4648L129.269 28.9336L125.871 21.1172H127.797L130.176 26.668L132.555 21.1172H134.48L129.269 33.4648H127.344ZM118.168 29.1602C117.601 28.5937 117.375 27.8008 117.375 27.0078C117.375 26.3281 117.601 25.6484 118.055 25.1953C118.848 24.4023 119.98 24.0625 121.226 24.0625C122.019 24.0625 122.699 24.1758 123.265 24.5156C123.265 23.1562 122.133 22.5898 121.226 22.5898C120.433 22.5898 119.64 23.043 119.301 23.8359L117.601 23.1562C117.941 22.3633 118.848 20.8906 121.113 20.8906C122.246 20.8906 123.379 21.2305 124.058 22.0234C124.738 22.8164 124.965 23.7227 124.965 24.9687V29.7266H123.039V28.9336C122.812 29.2734 122.359 29.5 122.019 29.7266C121.566 29.9531 121 30.0664 120.433 30.0664C119.754 29.9531 118.734 29.7266 118.168 29.1602ZM57.7889 25.082C57.7889 22.8164 59.4882 20.3242 62.5468 20.3242C65.4921 20.3242 67.3046 22.8164 67.3046 25.082C67.3046 27.3477 65.6053 29.8398 62.5468 29.8398C59.4882 29.8398 57.7889 27.3477 57.7889 25.082ZM67.9843 25.082C67.9843 22.8164 69.6835 20.3242 72.7421 20.3242C75.6874 20.3242 77.4999 22.8164 77.4999 25.082C77.4999 27.3477 75.8007 29.8398 72.7421 29.8398C69.7968 29.8398 67.9843 27.3477 67.9843 25.082ZM44.9882 27.5742C42.1561 24.7422 42.2694 20.0977 45.1014 17.1523C46.5741 15.6797 48.3866 15 50.3124 15C52.1249 15 53.9374 15.6797 55.2967 17.0391L53.9374 18.5117C51.8983 16.4727 48.6132 16.5859 46.6874 18.625C44.6483 20.7773 44.6483 24.0625 46.6874 26.2148C48.7264 28.3672 52.1249 28.4805 54.1639 26.3281C54.8436 25.6484 55.0702 24.7422 55.1835 23.8359H50.4257V21.7969H57.1092C57.2225 22.25 57.2225 22.8164 57.2225 23.3828C57.2225 25.082 56.5428 26.7812 55.41 27.9141C54.1639 29.1602 52.3514 29.8398 50.5389 29.8398C48.4999 29.7266 46.4608 29.0469 44.9882 27.5742ZM92.9061 28.3672C91.2069 26.5547 91.2069 23.4961 92.9061 21.5703C94.6054 19.7578 97.4374 19.7578 99.0233 21.5703C99.5897 22.1367 99.9296 22.9297 100.269 23.7227L94.0389 26.3281C94.3788 27.1211 95.1718 27.8008 96.3046 27.8008C97.3241 27.8008 98.0038 27.4609 98.6835 26.4414L100.383 27.5742C100.156 27.8008 99.9296 28.0273 99.8163 28.2539C97.8905 30.1797 94.6054 30.1797 92.9061 28.3672ZM104.687 29.7266V17.1523H108.766C111.144 17.1523 113.07 18.8516 113.07 20.8906C113.07 22.9297 111.371 24.6289 109.219 24.6289H106.726V29.6133H104.687V29.7266ZM114.203 29.7266V17.1523H116.129V29.7266H114.203ZM88.6014 29.5V15.4531H90.6405V29.5H88.6014ZM123.152 25.9883C122.699 25.6484 122.019 25.5352 121.34 25.5352C119.98 25.5352 119.187 26.2148 119.187 27.0078C119.187 27.8008 119.98 28.2539 120.773 28.2539C121.906 28.2539 123.152 27.3477 123.152 25.9883ZM65.1522 25.082C65.1522 23.7227 64.246 22.25 62.5468 22.25C60.8475 22.25 59.9413 23.7227 59.9413 25.082C59.9413 26.4414 60.8475 27.9141 62.5468 27.9141C64.1327 27.9141 65.1522 26.4414 65.1522 25.082ZM75.3475 25.082C75.3475 23.7227 74.4413 22.25 72.7421 22.25C71.0428 22.25 70.1366 23.7227 70.1366 25.082C70.1366 26.4414 71.0428 27.9141 72.7421 27.9141C74.4413 27.9141 75.3475 26.4414 75.3475 25.082ZM85.4296 25.875C85.4296 25.7617 85.4296 25.6484 85.5429 25.5352C85.5429 25.4219 85.5429 25.1953 85.5429 25.082C85.5429 24.9688 85.5429 24.7422 85.5429 24.6289V24.5156C85.5429 24.4023 85.4296 24.1758 85.4296 24.0625C85.0897 22.9297 84.0702 22.1367 83.0507 22.1367C81.6913 22.1367 80.5585 23.4961 80.5585 24.9687C80.5585 26.5547 81.6913 27.8008 83.1639 27.8008C84.0702 27.9141 84.9764 27.1211 85.4296 25.875ZM93.6991 24.8555L97.8905 23.043C97.4374 22.25 96.7577 22.0234 96.1913 22.0234C94.4921 22.1367 93.4725 23.9492 93.6991 24.8555ZM111.031 21.0039C111.031 19.8711 110.125 19.0781 108.879 19.0781H106.613V23.043H108.992C110.125 23.043 111.031 22.1367 111.031 21.0039Z" fill="#00F9FF"/>
<defs>
<clipPath id="clip0">
<rect width="24.0611" height="24.0611" fill="white" transform="translate(12 13)"/>
</clipPath>
</defs>
</svg>
