<svg width="220" height="50" viewBox="0 0 220 50" fill="none" xmlns="http://www.w3.org/2000/svg">
<rect width="220" height="50" rx="8" fill="#FDFDFD"/>
<g clip-path="url(#clip0)">
<path d="M53.6103 13.3067C52.9905 12.9335 52.2517 12.9002 51.6074 13.2108L62.4101 24.0365L65.9422 20.488L53.6103 13.3067ZM50.6149 14.2127C50.4786 14.5013 50.4053 14.8223 50.4053 15.1526V34.9553C50.4053 35.2871 50.4791 35.6034 50.6168 35.8858L61.4152 25.0361L50.6149 14.2127ZM62.4116 26.0343L51.6262 36.8708C51.9124 37.0034 52.217 37.0612 52.521 37.0612C52.8965 37.0612 53.2711 36.9714 53.6104 36.7674L65.9446 29.5754L62.4116 26.0343ZM70.639 23.2231C70.6347 23.2202 70.63 23.2174 70.6258 23.2151L67.2018 21.2211L63.406 25.0347L67.2041 28.8408C67.2041 28.8408 70.6347 26.8407 70.639 26.8384C71.2757 26.4516 71.6559 25.7758 71.6559 25.0305C71.6559 24.2851 71.2757 23.6094 70.639 23.2231Z" fill="#2B4552"/>
</g>
<path fill-rule="evenodd" clip-rule="evenodd" d="M116.879 33.0117C116.313 32.5586 115.86 31.7656 115.633 31.3125L117.446 30.5195C117.559 30.7461 117.786 31.0859 118.012 31.4258C118.465 31.8789 119.145 32.332 119.825 32.332C120.504 32.332 121.297 31.9922 121.75 31.4258C122.09 30.8594 122.317 30.293 122.317 29.5V28.8203C120.957 30.5195 118.125 30.293 116.539 28.4805C114.84 26.668 114.84 23.6094 116.539 21.7969C118.239 20.0977 120.731 19.8711 122.203 21.457V20.6641H124.129V29.1602C124.129 31.3125 123.336 32.5586 122.317 33.3516C121.637 33.918 120.618 34.1445 119.711 34.1445C118.692 34.0312 117.672 33.6914 116.879 33.0117ZM164.344 33.4648L166.27 28.9336L162.871 21.1172H164.797L167.176 26.668L169.555 21.1172H171.481L166.27 33.4648H164.344ZM155.168 29.1602C154.602 28.5937 154.375 27.8008 154.375 27.0078C154.375 26.3281 154.602 25.6484 155.055 25.1953C155.848 24.4023 156.981 24.0625 158.227 24.0625C159.02 24.0625 159.7 24.1758 160.266 24.5156C160.266 23.1562 159.133 22.5898 158.227 22.5898C157.434 22.5898 156.641 23.043 156.301 23.8359L154.602 23.1562C154.942 22.3633 155.848 20.8906 158.114 20.8906C159.246 20.8906 160.379 21.2305 161.059 22.0234C161.739 22.8164 161.965 23.7227 161.965 24.9687V29.7266H160.039V28.9336C159.813 29.2734 159.36 29.5 159.02 29.7266C158.567 29.9531 158 30.0664 157.434 30.0664C156.754 29.9531 155.735 29.7266 155.168 29.1602ZM94.7894 25.082C94.7894 22.8164 96.4886 20.3242 99.5472 20.3242C102.493 20.3242 104.305 22.8164 104.305 25.082C104.305 27.3477 102.606 29.8398 99.5472 29.8398C96.4886 29.8398 94.7894 27.3477 94.7894 25.082ZM104.985 25.082C104.985 22.8164 106.684 20.3242 109.743 20.3242C112.688 20.3242 114.5 22.8164 114.5 25.082C114.5 27.3477 112.801 29.8398 109.743 29.8398C106.797 29.8398 104.985 27.3477 104.985 25.082ZM81.9886 27.5742C79.1566 24.7422 79.2699 20.0977 82.1019 17.1523C83.5746 15.6797 85.3871 15 87.3129 15C89.1254 15 90.9379 15.6797 92.2972 17.0391L90.9379 18.5117C88.8988 16.4727 85.6136 16.5859 83.6879 18.625C81.6488 20.7773 81.6488 24.0625 83.6879 26.2148C85.7269 28.3672 89.1254 28.4805 91.1644 26.3281C91.8441 25.6484 92.0707 24.7422 92.184 23.8359H87.4262V21.7969H94.1097C94.223 22.25 94.223 22.8164 94.223 23.3828C94.223 25.082 93.5433 26.7812 92.4105 27.9141C91.1644 29.1602 89.3519 29.8398 87.5394 29.8398C85.5004 29.7266 83.4613 29.0469 81.9886 27.5742ZM129.907 28.3672C128.207 26.5547 128.207 23.4961 129.907 21.5703C131.606 19.7578 134.438 19.7578 136.024 21.5703C136.59 22.1367 136.93 22.9297 137.27 23.7227L131.039 26.3281C131.379 27.1211 132.172 27.8008 133.305 27.8008C134.325 27.8008 135.004 27.4609 135.684 26.4414L137.383 27.5742C137.157 27.8008 136.93 28.0273 136.817 28.2539C134.891 30.1797 131.606 30.1797 129.907 28.3672ZM141.688 29.7266V17.1523H145.766C148.145 17.1523 150.071 18.8516 150.071 20.8906C150.071 22.9297 148.371 24.6289 146.219 24.6289H143.727V29.6133H141.688V29.7266ZM151.203 29.7266V17.1523H153.129V29.7266H151.203ZM125.602 29.5V15.4531H127.641V29.5H125.602ZM160.153 25.9883C159.7 25.6484 159.02 25.5352 158.34 25.5352C156.981 25.5352 156.188 26.2148 156.188 27.0078C156.188 27.8008 156.981 28.2539 157.774 28.2539C158.907 28.2539 160.153 27.3477 160.153 25.9883ZM102.153 25.082C102.153 23.7227 101.246 22.25 99.5472 22.25C97.848 22.25 96.9418 23.7227 96.9418 25.082C96.9418 26.4414 97.848 27.9141 99.5472 27.9141C101.133 27.9141 102.153 26.4414 102.153 25.082ZM112.348 25.082C112.348 23.7227 111.442 22.25 109.743 22.25C108.043 22.25 107.137 23.7227 107.137 25.082C107.137 26.4414 108.043 27.9141 109.743 27.9141C111.442 27.9141 112.348 26.4414 112.348 25.082ZM122.43 25.875C122.43 25.7617 122.43 25.6484 122.543 25.5352C122.543 25.4219 122.543 25.1953 122.543 25.082C122.543 24.9688 122.543 24.7422 122.543 24.6289V24.5156C122.543 24.4023 122.43 24.1758 122.43 24.0625C122.09 22.9297 121.071 22.1367 120.051 22.1367C118.692 22.1367 117.559 23.4961 117.559 24.9687C117.559 26.5547 118.692 27.8008 120.164 27.8008C121.071 27.9141 121.977 27.1211 122.43 25.875ZM130.7 24.8555L134.891 23.043C134.438 22.25 133.758 22.0234 133.192 22.0234C131.493 22.1367 130.473 23.9492 130.7 24.8555ZM148.032 21.0039C148.032 19.8711 147.125 19.0781 145.879 19.0781H143.614V23.043H145.993C147.125 23.043 148.032 22.1367 148.032 21.0039Z" fill="#2B4552"/>
<defs>
<clipPath id="clip0">
<rect width="24.0611" height="24.0611" fill="white" transform="translate(49 13)"/>
</clipPath>
</defs>
</svg>
