<svg width="92" height="25" viewBox="0 0 92 25" fill="none" xmlns="http://www.w3.org/2000/svg">
<path d="M71.197 7.02368H66.2562C65.9655 7.02368 65.6749 7.31432 65.5296 7.60496L63.4951 20.393C63.4951 20.6836 63.6404 20.829 63.9311 20.829H66.5468C66.8374 20.829 66.9828 20.6836 66.9828 20.393L67.564 16.76C67.564 16.4694 67.8547 16.1788 68.2906 16.1788H69.8891C73.2315 16.1788 75.1206 14.5803 75.5566 11.3832C75.8472 10.0754 75.5566 8.91283 74.9753 8.18623C74.1034 7.45964 72.7955 7.02368 71.197 7.02368ZM71.7783 11.8192C71.4876 13.563 70.1798 13.563 68.8719 13.563H68L68.5813 10.2207C68.5813 10.0754 68.7266 9.93006 69.0172 9.93006H69.3079C70.1798 9.93006 71.0517 9.93006 71.4876 10.5113C71.7783 10.6567 71.7783 11.0926 71.7783 11.8192Z" fill="#139AD6"/>
<path d="M35.5945 7.02368H30.6536C30.363 7.02368 30.0724 7.31432 29.927 7.60496L27.8926 20.393C27.8926 20.6836 28.0379 20.829 28.3285 20.829H30.6536C30.9443 20.829 31.2349 20.5383 31.3802 20.2477L31.9615 16.76C31.9615 16.4694 32.2521 16.1788 32.6881 16.1788H34.2866C37.6289 16.1788 39.5181 14.5803 39.954 11.3832C40.2447 10.0754 39.954 8.91283 39.3727 8.18623C38.5008 7.45964 37.3383 7.02368 35.5945 7.02368ZM36.1757 11.8192C35.8851 13.563 34.5772 13.563 33.2694 13.563H32.5428L33.124 10.2207C33.124 10.0754 33.2694 9.93006 33.56 9.93006H33.8506C34.7225 9.93006 35.5945 9.93006 36.0304 10.5113C36.1757 10.6567 36.3211 11.0926 36.1757 11.8192Z" fill="#263B80"/>
<path d="M50.5628 11.6739H48.2377C48.0924 11.6739 47.8017 11.8193 47.8017 11.9646L47.6564 12.6912L47.5111 12.4005C46.9298 11.6739 45.9126 11.3833 44.7501 11.3833C42.1343 11.3833 39.8092 13.4178 39.3733 16.1788C39.0826 17.632 39.5186 18.9399 40.2452 19.8118C40.9718 20.6837 41.989 20.9743 43.2969 20.9743C45.4766 20.9743 46.6392 19.6665 46.6392 19.6665L46.4939 20.3931C46.4939 20.6837 46.6392 20.829 46.9298 20.829H49.1096C49.4002 20.829 49.6909 20.5384 49.8362 20.2477L51.1441 12.1099C50.9988 11.9646 50.7081 11.6739 50.5628 11.6739ZM47.2205 16.3241C46.9298 17.632 45.9126 18.6492 44.4594 18.6492C43.7328 18.6492 43.1515 18.3586 42.8609 18.068C42.5703 17.632 42.425 17.0507 42.425 16.3241C42.5703 15.0163 43.7328 13.999 45.0407 13.999C45.7673 13.999 46.2032 14.2897 46.6392 14.5803C47.0752 15.0163 47.2205 15.7429 47.2205 16.3241Z" fill="#263B80"/>
<path d="M86.0208 11.6742H83.6957C83.5504 11.6742 83.2598 11.8195 83.2598 11.9648L83.1144 12.6914L82.9691 12.4008C82.3878 11.6742 81.3706 11.3835 80.2081 11.3835C77.5923 11.3835 75.2672 13.418 74.8313 16.1791C74.5406 17.6323 74.9766 18.9401 75.7032 19.812C76.4298 20.6839 77.447 20.9746 78.7549 20.9746C80.9347 20.9746 82.0972 19.6667 82.0972 19.6667L81.9519 20.3933C81.9519 20.6839 82.0972 20.8293 82.3879 20.8293H84.5676C84.8583 20.8293 85.1489 20.5386 85.2942 20.248L86.6021 12.1101C86.4568 11.9648 86.3115 11.6742 86.0208 11.6742ZM82.6785 16.3244C82.3878 17.6322 81.3706 18.6495 79.9174 18.6495C79.1908 18.6495 78.6096 18.3588 78.3189 18.0682C78.0283 17.6322 77.883 17.051 77.883 16.3244C78.0283 15.0165 79.1908 13.9993 80.4987 13.9993C81.2253 13.9993 81.6613 14.2899 82.0972 14.5806C82.6785 15.0165 82.8238 15.7431 82.6785 16.3244Z" fill="#139AD6"/>
<path d="M63.2052 11.6741H60.7348C60.4441 11.6741 60.2988 11.8194 60.1535 11.9647L56.9565 16.9055L55.5033 12.2553C55.358 11.9647 55.2126 11.8194 54.7767 11.8194H52.4516C52.1609 11.8194 52.0156 12.11 52.0156 12.4007L54.6314 20.1025L52.1609 23.5902C52.0156 23.8808 52.1609 24.3168 52.4516 24.3168H54.7767C55.0673 24.3168 55.2126 24.1715 55.358 24.0261L63.3505 12.546C63.7864 12.11 63.4958 11.6741 63.2052 11.6741Z" fill="#263B80"/>
<path d="M88.7806 7.45995L86.7461 20.5386C86.7461 20.8293 86.8914 20.9746 87.182 20.9746H89.2165C89.5071 20.9746 89.7978 20.6839 89.9431 20.3933L91.9776 7.60527C91.9776 7.31463 91.8323 7.16931 91.5416 7.16931H89.2165C89.0712 7.024 88.9259 7.16931 88.7806 7.45995Z" fill="#139AD6"/>
<path d="M17.1384 2.66448C16.1212 1.50193 14.232 0.920654 11.6163 0.920654H4.35036C3.9144 0.920654 3.47845 1.35661 3.33313 1.79256L0.426758 20.8293C0.426758 21.2653 0.717395 21.5559 1.00803 21.5559H5.51291L6.67546 14.4353V14.7259C6.82078 14.29 7.25673 13.854 7.69269 13.854H9.87247C14.0867 13.854 17.2837 12.1102 18.3009 7.31467C18.3009 7.16935 18.3009 7.02403 18.3009 6.87871C18.1556 6.87871 18.1556 6.87871 18.3009 6.87871C18.4463 4.98957 18.1556 3.82702 17.1384 2.66448Z" fill="#263B80"/>
<path d="M18.1558 6.87842C18.1558 7.02374 18.1558 7.16906 18.1558 7.31438C17.1386 12.2552 13.9416 13.8537 9.72734 13.8537H7.54756C7.11161 13.8537 6.67565 14.2897 6.53033 14.7256L5.07715 23.5901C5.07715 23.8807 5.22247 24.1713 5.65842 24.1713H9.43671C9.87266 24.1713 10.3086 23.8807 10.3086 23.4447V23.2994L11.0352 18.7945V18.5039C11.0352 18.0679 11.4712 17.7773 11.9071 17.7773H12.4884C16.1214 17.7773 19.0277 16.3241 19.7543 11.9646C20.045 10.2207 19.8996 8.62224 19.0277 7.60501C18.8824 7.31437 18.5918 7.02374 18.1558 6.87842Z" fill="#139AD6"/>
<path d="M17.1397 6.44255C16.9944 6.44255 16.8491 6.29723 16.7037 6.29723C16.5584 6.29723 16.4131 6.29723 16.2678 6.15191C15.6865 6.00659 15.1052 6.00659 14.3786 6.00659H8.71122C8.5659 6.00659 8.42058 6.00659 8.27526 6.15191C7.98463 6.29723 7.83931 6.58786 7.83931 6.8785L6.67676 14.4351V14.7257C6.82208 14.2898 7.25803 13.8538 7.69399 13.8538H9.87377C14.088 13.8538 17.285 12.11 18.3022 7.31446C18.3022 7.16914 18.3022 7.02382 18.4476 6.8785C18.1569 6.73318 18.0116 6.58787 17.721 6.58787C17.285 6.44255 17.285 6.44255 17.1397 6.44255Z" fill="#232C65"/>
</svg>
