<svg width="42" height="37" viewBox="0 0 42 37" fill="none" xmlns="http://www.w3.org/2000/svg">
<path d="M9.83694 2.96338L38.4412 11.6838C39.8148 12.1026 40.5642 13.5816 40.115 14.9871L34.8273 31.5295C34.378 32.9349 32.9 33.7349 31.5264 33.3162L2.92221 24.5957C1.54862 24.1769 0.799125 22.6979 1.24838 21.2924L6.53611 4.75007C6.98536 3.34461 8.46333 2.54461 9.83694 2.96338Z" fill="#DBD9D9"/>
<path d="M38.4438 11.7348L37.9472 11.5835C28.6843 20.4366 15.4002 24.3979 7.54908 26.0081L31.5408 33.3179C32.9121 33.7357 34.3876 32.9375 34.8361 31.5353L40.1149 15.0306C40.5634 13.6283 39.8152 12.1526 38.4438 11.7348Z" fill="#DBD9D9"/>
<path d="M9.43876 16.6594L5.70117 15.5234L5.28715 16.8142L9.02473 17.9502L9.43876 16.6594Z" fill="white"/>
<path d="M15.7063 18.614L11.9688 17.478L11.5547 18.7688L15.2923 19.9048L15.7063 18.614Z" fill="white"/>
<path d="M21.975 20.5693L18.2373 19.4333L17.8233 20.7241L21.5609 21.8601L21.975 20.5693Z" fill="white"/>
<path d="M20.801 24.3044L4.53027 19.283L4.11423 20.5992L20.3849 25.6206L20.801 24.3044Z" fill="white"/>
<g clip-path="url(#clip0)">
<path d="M13.1404 7.05331L11.2912 10.7438L12.2651 11.0405L14.1139 7.34987L13.1404 7.05331ZM15.5729 9.52708C15.2875 9.2516 15.116 9.07208 15.1722 8.89636C15.2275 8.73786 15.4521 8.62665 15.8368 8.74384C16.1558 8.8321 16.364 8.97895 16.5162 9.10833L16.5917 9.17558L16.9835 8.40493C16.8155 8.27032 16.5373 8.09365 16.1606 7.97889C15.1988 7.68592 14.3581 7.9908 14.1201 8.72061C13.9395 9.25769 14.3366 9.70719 14.6479 9.99912C14.9657 10.2981 15.0557 10.4566 15.0034 10.6203C14.9188 10.8704 14.5813 10.8948 14.3009 10.8094C13.9124 10.691 13.7229 10.5677 13.4509 10.3312L13.3417 10.2324L12.936 11.0337C13.1315 11.2074 13.5229 11.427 13.9581 11.5648C14.9802 11.8761 15.8062 11.5753 16.0638 10.7987C16.2039 10.3722 16.0488 9.96572 15.5729 9.52708ZM19.5291 9.01266L18.7757 8.78314C18.5435 8.71241 18.3452 8.72694 18.1668 8.93988L15.5839 12.0515L16.6059 12.3628L17.1334 11.6795L18.2769 12.0278L18.1759 12.8445L19.0773 13.1191L19.5291 9.01266ZM17.6651 10.9897C17.6842 10.9977 18.459 9.85375 18.459 9.85375L18.3541 11.1996C18.3541 11.1996 17.8575 11.0483 17.6651 10.9897ZM11.7174 6.61981L9.92085 8.9626L9.98304 8.4116C9.9983 7.75863 9.65348 6.93897 9.13968 6.42747L8.94754 10.0256L9.97796 10.3395L12.7477 6.93413L11.7173 6.62024L11.7174 6.61981Z" fill="#139AD6"/>
<path d="M10.1773 6.70089C10.1975 6.38269 10.0241 6.11113 9.7034 6.00876L8.19232 5.54844L8.15382 5.61542C9.23753 6.27158 9.9345 7.48711 9.98042 8.44474L10.1773 6.70089Z" fill="#FDB62F"/>
</g>
<path d="M3.71118 13.9397H33.9126C35.3629 13.9397 36.5388 15.1156 36.5388 16.5659V33.6363C36.5388 35.0866 35.3629 36.2625 33.9126 36.2625H3.71118C2.26087 36.2625 1.08496 35.0866 1.08496 33.6363V16.5659C1.08496 15.1156 2.26087 13.9397 3.71118 13.9397Z" fill="#EEEEEE"/>
<path d="M33.9109 13.9397H33.3857C27.1878 24.9429 15.6069 32.4906 8.53711 36.2625H33.9109C35.3612 36.2625 36.5371 35.0865 36.5371 33.6362V16.5659C36.5371 15.1156 35.3612 13.9397 33.9109 13.9397Z" fill="#EEEEEE"/>
<path d="M29.9732 32.9796C31.7862 32.9796 33.2559 31.5098 33.2559 29.6968C33.2559 27.8838 31.7862 26.4141 29.9732 26.4141C28.1602 26.4141 26.6904 27.8838 26.6904 29.6968C26.6904 31.5098 28.1602 32.9796 29.9732 32.9796Z" fill="#FDB62F"/>
<path d="M26.0328 32.9796C27.8458 32.9796 29.3155 31.5098 29.3155 29.6968C29.3155 27.8838 27.8458 26.4141 26.0328 26.4141C24.2197 26.4141 22.75 27.8838 22.75 29.6968C22.75 31.5098 24.2197 32.9796 26.0328 32.9796Z" fill="#DE4C3C"/>
<path d="M7.64925 27.0708H3.70996V28.3839H7.64925V27.0708Z" fill="#2B3841"/>
<path d="M14.2157 27.0708H10.2764V28.3839H14.2157V27.0708Z" fill="#2B3841"/>
<path d="M20.7801 27.0708H16.8408V28.3839H20.7801V27.0708Z" fill="#2B3841"/>
<path d="M20.7804 31.0103H3.70996V32.3233H20.7804V31.0103Z" fill="#2B3841"/>
<path d="M25.3756 17.2227H24.0625V19.8489H25.3756V17.2227Z" fill="#2B3841"/>
<path d="M28.0015 17.2227H26.6885V19.8489H28.0015V17.2227Z" fill="#2B3841"/>
<path d="M30.6295 17.2227H29.3164V19.8489H30.6295V17.2227Z" fill="#2B3841"/>
<path d="M33.2555 17.2227H31.9424V19.8489H33.2555V17.2227Z" fill="#2B3841"/>
<defs>
<clipPath id="clip0">
<rect width="12.6946" height="13.0343" fill="white" transform="matrix(0.956321 0.291324 -0.304585 0.952169 9.54199 1.27832)"/>
</clipPath>
</defs>
</svg>
