<svg width="152" height="50" viewBox="0 0 152 50" fill="none" xmlns="http://www.w3.org/2000/svg">
<rect width="152" height="50" rx="8" fill="#2B3942"/>
<path d="M26.4369 27.8979C28.9009 27.8979 30.8983 25.9005 30.8983 23.4365C30.8983 20.9726 28.9009 18.9752 26.4369 18.9752C23.973 18.9752 21.9756 20.9726 21.9756 23.4365C21.9756 25.9005 23.973 27.8979 26.4369 27.8979Z" fill="#00F9FF"/>
<path d="M20.5399 22.146C21.1326 19.4359 23.5511 17.4006 26.4365 17.4006H38.4486C37.8113 16.1353 36.9685 14.9664 35.9376 13.9354C33.3997 11.3977 30.0255 10 26.4365 10C22.8475 10 19.4732 11.3977 16.9354 13.9354C16.6913 14.1795 16.4581 14.4314 16.2354 14.6904L20.5399 22.146Z" fill="#00F9FF"/>
<path d="M28.2673 29.1884C27.6896 29.3727 27.0745 29.4725 26.4366 29.4725C24.1944 29.4725 22.2341 28.2436 21.1933 26.424C21.1858 26.4125 21.1784 26.4011 21.1715 26.3891L15.205 16.0549C13.7706 18.2278 13 20.7729 13 23.4366C13 27.0256 14.3977 30.3998 16.9354 32.9377C18.8797 34.8819 21.3151 36.156 23.9616 36.6461L28.2673 29.1884Z" fill="#00F9FF"/>
<path d="M30.4982 18.9752C31.7107 20.0799 32.4728 21.6709 32.4728 23.4365C32.4728 24.5471 32.171 25.5882 31.6456 26.4831C31.6403 26.4934 31.6357 26.5038 31.6298 26.5139L25.6621 36.8504C25.9191 36.8649 26.1774 36.8731 26.4369 36.8731C30.0259 36.8731 33.4001 35.4754 35.938 32.9377C38.4758 30.3998 39.8734 27.0256 39.8734 23.4365C39.8734 21.8931 39.6142 20.3897 39.1178 18.9752H30.4982Z" fill="#00F9FF"/>
<path d="M58.434 20.13C57.5153 20.13 56.6833 19.9307 55.938 19.532C55.2013 19.1247 54.6207 18.5657 54.196 17.855C53.78 17.1443 53.572 16.3427 53.572 15.45C53.572 14.5573 53.7843 13.7557 54.209 13.045C54.6337 12.3343 55.2143 11.7797 55.951 11.381C56.6963 10.9737 57.5283 10.77 58.447 10.77C59.1923 10.77 59.8727 10.9 60.488 11.16C61.1033 11.42 61.6233 11.797 62.048 12.291L60.956 13.318C60.2973 12.6073 59.487 12.252 58.525 12.252C57.901 12.252 57.342 12.3907 56.848 12.668C56.354 12.9367 55.9683 13.3137 55.691 13.799C55.4137 14.2843 55.275 14.8347 55.275 15.45C55.275 16.0653 55.4137 16.6157 55.691 17.101C55.9683 17.5863 56.354 17.9677 56.848 18.245C57.342 18.5137 57.901 18.648 58.525 18.648C59.487 18.648 60.2973 18.2883 60.956 17.569L62.048 18.609C61.6233 19.103 61.099 19.48 60.475 19.74C59.8597 20 59.1793 20.13 58.434 20.13ZM66.9953 12.98C67.8706 12.98 68.5726 13.2357 69.1013 13.747C69.63 14.2583 69.8943 15.0167 69.8943 16.022V20H68.2693V16.23C68.2693 15.6233 68.1263 15.1683 67.8403 14.865C67.5543 14.553 67.147 14.397 66.6183 14.397C66.0203 14.397 65.548 14.579 65.2013 14.943C64.8546 15.2983 64.6813 15.814 64.6813 16.49V20H63.0563V10.354H64.6813V13.864C64.95 13.578 65.2793 13.3613 65.6693 13.214C66.068 13.058 66.51 12.98 66.9953 12.98ZM73.0477 14.072C73.5157 13.344 74.3391 12.98 75.5177 12.98V14.527C75.3791 14.501 75.2534 14.488 75.1407 14.488C74.5081 14.488 74.0141 14.6743 73.6587 15.047C73.3034 15.411 73.1257 15.9397 73.1257 16.633V20H71.5007V13.058H73.0477V14.072ZM79.4978 20.091C78.7958 20.091 78.1631 19.9393 77.5998 19.636C77.0364 19.3327 76.5944 18.9123 76.2738 18.375C75.9618 17.829 75.8058 17.2137 75.8058 16.529C75.8058 15.8443 75.9618 15.2333 76.2738 14.696C76.5944 14.1587 77.0364 13.7383 77.5998 13.435C78.1631 13.1317 78.7958 12.98 79.4978 12.98C80.2084 12.98 80.8454 13.1317 81.4088 13.435C81.9721 13.7383 82.4098 14.1587 82.7218 14.696C83.0424 15.2333 83.2028 15.8443 83.2028 16.529C83.2028 17.2137 83.0424 17.829 82.7218 18.375C82.4098 18.9123 81.9721 19.3327 81.4088 19.636C80.8454 19.9393 80.2084 20.091 79.4978 20.091ZM79.4978 18.7C80.0958 18.7 80.5898 18.5007 80.9798 18.102C81.3698 17.7033 81.5648 17.179 81.5648 16.529C81.5648 15.879 81.3698 15.3547 80.9798 14.956C80.5898 14.5573 80.0958 14.358 79.4978 14.358C78.8998 14.358 78.4058 14.5573 78.0158 14.956C77.6344 15.3547 77.4438 15.879 77.4438 16.529C77.4438 17.179 77.6344 17.7033 78.0158 18.102C78.4058 18.5007 78.8998 18.7 79.4978 18.7ZM93.0637 12.98C93.939 12.98 94.6323 13.2357 95.1437 13.747C95.655 14.2497 95.9107 15.008 95.9107 16.022V20H94.2857V16.23C94.2857 15.6233 94.1513 15.1683 93.8827 14.865C93.614 14.553 93.2283 14.397 92.7257 14.397C92.1797 14.397 91.742 14.579 91.4127 14.943C91.0833 15.2983 90.9187 15.8097 90.9187 16.477V20H89.2937V16.23C89.2937 15.6233 89.1593 15.1683 88.8907 14.865C88.622 14.553 88.2363 14.397 87.7337 14.397C87.179 14.397 86.737 14.5747 86.4077 14.93C86.087 15.2853 85.9267 15.801 85.9267 16.477V20H84.3017V13.058H85.8487V13.942C86.1087 13.63 86.4337 13.3917 86.8237 13.227C87.2137 13.0623 87.647 12.98 88.1237 12.98C88.6437 12.98 89.103 13.0797 89.5017 13.279C89.909 13.4697 90.2297 13.7557 90.4637 14.137C90.7497 13.773 91.118 13.4913 91.5687 13.292C92.0193 13.084 92.5177 12.98 93.0637 12.98ZM104.122 16.568C104.122 16.6807 104.113 16.841 104.096 17.049H98.6487C98.744 17.5603 98.991 17.9677 99.3897 18.271C99.797 18.5657 100.3 18.713 100.898 18.713C101.66 18.713 102.289 18.4617 102.783 17.959L103.654 18.96C103.342 19.3327 102.947 19.6143 102.471 19.805C101.994 19.9957 101.457 20.091 100.859 20.091C100.096 20.091 99.4244 19.9393 98.8437 19.636C98.263 19.3327 97.8124 18.9123 97.4917 18.375C97.1797 17.829 97.0237 17.2137 97.0237 16.529C97.0237 15.853 97.1754 15.2463 97.4787 14.709C97.7907 14.163 98.2197 13.7383 98.7657 13.435C99.3117 13.1317 99.927 12.98 100.612 12.98C101.288 12.98 101.89 13.1317 102.419 13.435C102.956 13.7297 103.372 14.15 103.667 14.696C103.97 15.2333 104.122 15.8573 104.122 16.568ZM100.612 14.28C100.092 14.28 99.6497 14.436 99.2857 14.748C98.9304 15.0513 98.7137 15.4587 98.6357 15.97H102.575C102.505 15.4673 102.293 15.06 101.938 14.748C101.582 14.436 101.14 14.28 100.612 14.28ZM67.521 28.9L64.505 38H62.711L60.462 31.266L58.174 38H56.367L53.351 28.9H55.106L57.368 35.816L59.721 28.9H61.281L63.582 35.855L65.909 28.9H67.521ZM74.2923 34.568C74.2923 34.6807 74.2836 34.841 74.2663 35.049H68.8193C68.9146 35.5603 69.1616 35.9677 69.5603 36.271C69.9676 36.5657 70.4703 36.713 71.0683 36.713C71.8309 36.713 72.4593 36.4617 72.9533 35.959L73.8243 36.96C73.5123 37.3327 73.1179 37.6143 72.6413 37.805C72.1646 37.9957 71.6273 38.091 71.0293 38.091C70.2666 38.091 69.5949 37.9393 69.0143 37.636C68.4336 37.3327 67.9829 36.9123 67.6623 36.375C67.3503 35.829 67.1943 35.2137 67.1943 34.529C67.1943 33.853 67.3459 33.2463 67.6493 32.709C67.9613 32.163 68.3903 31.7383 68.9363 31.435C69.4823 31.1317 70.0976 30.98 70.7823 30.98C71.4583 30.98 72.0606 31.1317 72.5893 31.435C73.1266 31.7297 73.5426 32.15 73.8373 32.696C74.1406 33.2333 74.2923 33.8573 74.2923 34.568ZM70.7823 32.28C70.2623 32.28 69.8203 32.436 69.4563 32.748C69.1009 33.0513 68.8843 33.4587 68.8063 33.97H72.7453C72.6759 33.4673 72.4636 33.06 72.1083 32.748C71.7529 32.436 71.3109 32.28 70.7823 32.28ZM79.2462 30.98C79.9222 30.98 80.5245 31.1273 81.0532 31.422C81.5905 31.7167 82.0109 32.1327 82.3142 32.67C82.6175 33.2073 82.7692 33.827 82.7692 34.529C82.7692 35.231 82.6175 35.855 82.3142 36.401C82.0109 36.9383 81.5905 37.3543 81.0532 37.649C80.5245 37.9437 79.9222 38.091 79.2462 38.091C78.7695 38.091 78.3319 38.0087 77.9332 37.844C77.5432 37.6793 77.2139 37.4323 76.9452 37.103V38H75.3982V28.354H77.0232V31.903C77.3005 31.5997 77.6255 31.37 77.9982 31.214C78.3795 31.058 78.7955 30.98 79.2462 30.98ZM79.0642 36.7C79.6622 36.7 80.1519 36.5007 80.5332 36.102C80.9232 35.7033 81.1182 35.179 81.1182 34.529C81.1182 33.879 80.9232 33.3547 80.5332 32.956C80.1519 32.5573 79.6622 32.358 79.0642 32.358C78.6742 32.358 78.3232 32.449 78.0112 32.631C77.6992 32.8043 77.4522 33.0557 77.2702 33.385C77.0882 33.7143 76.9972 34.0957 76.9972 34.529C76.9972 34.9623 77.0882 35.3437 77.2702 35.673C77.4522 36.0023 77.6992 36.258 78.0112 36.44C78.3232 36.6133 78.6742 36.7 79.0642 36.7ZM89.9701 38.13C89.2681 38.13 88.5877 38.0303 87.9291 37.831C87.2791 37.6317 86.7634 37.3673 86.3821 37.038L86.9671 35.725C87.3397 36.0197 87.7947 36.2623 88.3321 36.453C88.8781 36.635 89.4241 36.726 89.9701 36.726C90.6461 36.726 91.1487 36.6177 91.4781 36.401C91.8161 36.1843 91.9851 35.8983 91.9851 35.543C91.9851 35.283 91.8897 35.0707 91.6991 34.906C91.5171 34.7327 91.2831 34.5983 90.9971 34.503C90.7111 34.4077 90.3211 34.2993 89.8271 34.178C89.1337 34.0133 88.5704 33.8487 88.1371 33.684C87.7124 33.5193 87.3441 33.2637 87.0321 32.917C86.7287 32.5617 86.5771 32.085 86.5771 31.487C86.5771 30.9843 86.7114 30.5293 86.9801 30.122C87.2574 29.706 87.6691 29.3767 88.2151 29.134C88.7697 28.8913 89.4457 28.77 90.2431 28.77C90.7977 28.77 91.3437 28.8393 91.8811 28.978C92.4184 29.1167 92.8821 29.316 93.2721 29.576L92.7391 30.889C92.3404 30.655 91.9244 30.4773 91.4911 30.356C91.0577 30.2347 90.6374 30.174 90.2301 30.174C89.5627 30.174 89.0644 30.2867 88.7351 30.512C88.4144 30.7373 88.2541 31.0363 88.2541 31.409C88.2541 31.669 88.3451 31.8813 88.5271 32.046C88.7177 32.2107 88.9561 32.3407 89.2421 32.436C89.5281 32.5313 89.9181 32.6397 90.4121 32.761C91.0881 32.917 91.6427 33.0817 92.0761 33.255C92.5094 33.4197 92.8777 33.6753 93.1811 34.022C93.4931 34.3687 93.6491 34.8367 93.6491 35.426C93.6491 35.9287 93.5104 36.3837 93.2331 36.791C92.9644 37.1983 92.5527 37.5233 91.9981 37.766C91.4434 38.0087 90.7674 38.13 89.9701 38.13ZM98.8869 37.623C98.6962 37.779 98.4622 37.896 98.1849 37.974C97.9162 38.052 97.6302 38.091 97.3269 38.091C96.5642 38.091 95.9749 37.8917 95.5589 37.493C95.1429 37.0943 94.9349 36.5137 94.9349 35.751V32.41H93.7909V31.11H94.9349V29.524H96.5599V31.11H98.4189V32.41H96.5599V35.712C96.5599 36.05 96.6422 36.31 96.8069 36.492C96.9715 36.6653 97.2099 36.752 97.5219 36.752C97.8859 36.752 98.1892 36.6567 98.4319 36.466L98.8869 37.623ZM102.66 38.091C101.958 38.091 101.325 37.9393 100.762 37.636C100.199 37.3327 99.7568 36.9123 99.4361 36.375C99.1241 35.829 98.9681 35.2137 98.9681 34.529C98.9681 33.8443 99.1241 33.2333 99.4361 32.696C99.7568 32.1587 100.199 31.7383 100.762 31.435C101.325 31.1317 101.958 30.98 102.66 30.98C103.371 30.98 104.008 31.1317 104.571 31.435C105.134 31.7383 105.572 32.1587 105.884 32.696C106.205 33.2333 106.365 33.8443 106.365 34.529C106.365 35.2137 106.205 35.829 105.884 36.375C105.572 36.9123 105.134 37.3327 104.571 37.636C104.008 37.9393 103.371 38.091 102.66 38.091ZM102.66 36.7C103.258 36.7 103.752 36.5007 104.142 36.102C104.532 35.7033 104.727 35.179 104.727 34.529C104.727 33.879 104.532 33.3547 104.142 32.956C103.752 32.5573 103.258 32.358 102.66 32.358C102.062 32.358 101.568 32.5573 101.178 32.956C100.797 33.3547 100.606 33.879 100.606 34.529C100.606 35.179 100.797 35.7033 101.178 36.102C101.568 36.5007 102.062 36.7 102.66 36.7ZM109.011 32.072C109.479 31.344 110.302 30.98 111.481 30.98V32.527C111.342 32.501 111.217 32.488 111.104 32.488C110.471 32.488 109.977 32.6743 109.622 33.047C109.267 33.411 109.089 33.9397 109.089 34.633V38H107.464V31.058H109.011V32.072ZM118.867 34.568C118.867 34.6807 118.858 34.841 118.841 35.049H113.394C113.489 35.5603 113.736 35.9677 114.135 36.271C114.542 36.5657 115.045 36.713 115.643 36.713C116.406 36.713 117.034 36.4617 117.528 35.959L118.399 36.96C118.087 37.3327 117.693 37.6143 117.216 37.805C116.739 37.9957 116.202 38.091 115.604 38.091C114.841 38.091 114.17 37.9393 113.589 37.636C113.008 37.3327 112.558 36.9123 112.237 36.375C111.925 35.829 111.769 35.2137 111.769 34.529C111.769 33.853 111.921 33.2463 112.224 32.709C112.536 32.163 112.965 31.7383 113.511 31.435C114.057 31.1317 114.672 30.98 115.357 30.98C116.033 30.98 116.635 31.1317 117.164 31.435C117.701 31.7297 118.117 32.15 118.412 32.696C118.715 33.2333 118.867 33.8573 118.867 34.568ZM115.357 32.28C114.837 32.28 114.395 32.436 114.031 32.748C113.676 33.0513 113.459 33.4587 113.381 33.97H117.32C117.251 33.4673 117.038 33.06 116.683 32.748C116.328 32.436 115.886 32.28 115.357 32.28Z" fill="#00F9FF"/>
</svg>
