<svg width="220" height="50" viewBox="0 0 220 50" fill="none" xmlns="http://www.w3.org/2000/svg">
<rect width="220" height="50" rx="8" fill="#FDFDFD"/>
<path d="M48.4369 27.8979C50.9009 27.8979 52.8983 25.9005 52.8983 23.4365C52.8983 20.9726 50.9009 18.9752 48.4369 18.9752C45.973 18.9752 43.9756 20.9726 43.9756 23.4365C43.9756 25.9005 45.973 27.8979 48.4369 27.8979Z" fill="#2B4552"/>
<path d="M42.5404 22.146C43.133 19.4359 45.5516 17.4006 48.437 17.4006H60.4491C59.8118 16.1353 58.969 14.9664 57.9381 13.9354C55.4002 11.3977 52.026 10 48.437 10C44.8479 10 41.4737 11.3977 38.9359 13.9354C38.6918 14.1795 38.4585 14.4314 38.2358 14.6904L42.5404 22.146Z" fill="#2B4552"/>
<path d="M50.2673 29.1884C49.6896 29.3727 49.0745 29.4725 48.4366 29.4725C46.1944 29.4725 44.2341 28.2436 43.1933 26.424C43.1858 26.4125 43.1784 26.4011 43.1715 26.3891L37.205 16.0549C35.7706 18.2278 35 20.7729 35 23.4366C35 27.0256 36.3977 30.3998 38.9354 32.9377C40.8797 34.8819 43.3151 36.156 45.9616 36.6461L50.2673 29.1884Z" fill="#2B4552"/>
<path d="M52.4982 18.9752C53.7107 20.0799 54.4728 21.6709 54.4728 23.4365C54.4728 24.5471 54.171 25.5882 53.6456 26.4831C53.6403 26.4934 53.6357 26.5038 53.6298 26.5139L47.6621 36.8504C47.9191 36.8649 48.1774 36.8731 48.4369 36.8731C52.0259 36.8731 55.4001 35.4754 57.938 32.9377C60.4758 30.3998 61.8734 27.0256 61.8734 23.4365C61.8734 21.8931 61.6142 20.3897 61.1178 18.9752H52.4982Z" fill="#2B4552"/>
<path d="M73.434 29.13C72.5153 29.13 71.6833 28.9307 70.938 28.532C70.2013 28.1247 69.6207 27.5657 69.196 26.855C68.78 26.1443 68.572 25.3427 68.572 24.45C68.572 23.5573 68.7843 22.7557 69.209 22.045C69.6337 21.3343 70.2143 20.7797 70.951 20.381C71.6963 19.9737 72.5283 19.77 73.447 19.77C74.1923 19.77 74.8727 19.9 75.488 20.16C76.1033 20.42 76.6233 20.797 77.048 21.291L75.956 22.318C75.2973 21.6073 74.487 21.252 73.525 21.252C72.901 21.252 72.342 21.3907 71.848 21.668C71.354 21.9367 70.9683 22.3137 70.691 22.799C70.4137 23.2843 70.275 23.8347 70.275 24.45C70.275 25.0653 70.4137 25.6157 70.691 26.101C70.9683 26.5863 71.354 26.9677 71.848 27.245C72.342 27.5137 72.901 27.648 73.525 27.648C74.487 27.648 75.2973 27.2883 75.956 26.569L77.048 27.609C76.6233 28.103 76.099 28.48 75.475 28.74C74.8597 29 74.1793 29.13 73.434 29.13ZM81.9953 21.98C82.8706 21.98 83.5726 22.2357 84.1013 22.747C84.63 23.2583 84.8943 24.0167 84.8943 25.022V29H83.2693V25.23C83.2693 24.6233 83.1263 24.1683 82.8403 23.865C82.5543 23.553 82.147 23.397 81.6183 23.397C81.0203 23.397 80.548 23.579 80.2013 23.943C79.8546 24.2983 79.6813 24.814 79.6813 25.49V29H78.0563V19.354H79.6813V22.864C79.95 22.578 80.2793 22.3613 80.6693 22.214C81.068 22.058 81.51 21.98 81.9953 21.98ZM88.0477 23.072C88.5157 22.344 89.3391 21.98 90.5177 21.98V23.527C90.3791 23.501 90.2534 23.488 90.1407 23.488C89.5081 23.488 89.0141 23.6743 88.6587 24.047C88.3034 24.411 88.1257 24.9397 88.1257 25.633V29H86.5007V22.058H88.0477V23.072ZM94.4978 29.091C93.7958 29.091 93.1631 28.9393 92.5998 28.636C92.0364 28.3327 91.5944 27.9123 91.2738 27.375C90.9618 26.829 90.8058 26.2137 90.8058 25.529C90.8058 24.8443 90.9618 24.2333 91.2738 23.696C91.5944 23.1587 92.0364 22.7383 92.5998 22.435C93.1631 22.1317 93.7958 21.98 94.4978 21.98C95.2084 21.98 95.8454 22.1317 96.4088 22.435C96.9721 22.7383 97.4098 23.1587 97.7218 23.696C98.0424 24.2333 98.2028 24.8443 98.2028 25.529C98.2028 26.2137 98.0424 26.829 97.7218 27.375C97.4098 27.9123 96.9721 28.3327 96.4088 28.636C95.8454 28.9393 95.2084 29.091 94.4978 29.091ZM94.4978 27.7C95.0958 27.7 95.5898 27.5007 95.9798 27.102C96.3698 26.7033 96.5648 26.179 96.5648 25.529C96.5648 24.879 96.3698 24.3547 95.9798 23.956C95.5898 23.5573 95.0958 23.358 94.4978 23.358C93.8998 23.358 93.4058 23.5573 93.0158 23.956C92.6344 24.3547 92.4438 24.879 92.4438 25.529C92.4438 26.179 92.6344 26.7033 93.0158 27.102C93.4058 27.5007 93.8998 27.7 94.4978 27.7ZM108.064 21.98C108.939 21.98 109.632 22.2357 110.144 22.747C110.655 23.2497 110.911 24.008 110.911 25.022V29H109.286V25.23C109.286 24.6233 109.151 24.1683 108.883 23.865C108.614 23.553 108.228 23.397 107.726 23.397C107.18 23.397 106.742 23.579 106.413 23.943C106.083 24.2983 105.919 24.8097 105.919 25.477V29H104.294V25.23C104.294 24.6233 104.159 24.1683 103.891 23.865C103.622 23.553 103.236 23.397 102.734 23.397C102.179 23.397 101.737 23.5747 101.408 23.93C101.087 24.2853 100.927 24.801 100.927 25.477V29H99.3017V22.058H100.849V22.942C101.109 22.63 101.434 22.3917 101.824 22.227C102.214 22.0623 102.647 21.98 103.124 21.98C103.644 21.98 104.103 22.0797 104.502 22.279C104.909 22.4697 105.23 22.7557 105.464 23.137C105.75 22.773 106.118 22.4913 106.569 22.292C107.019 22.084 107.518 21.98 108.064 21.98ZM119.122 25.568C119.122 25.6807 119.113 25.841 119.096 26.049H113.649C113.744 26.5603 113.991 26.9677 114.39 27.271C114.797 27.5657 115.3 27.713 115.898 27.713C116.66 27.713 117.289 27.4617 117.783 26.959L118.654 27.96C118.342 28.3327 117.947 28.6143 117.471 28.805C116.994 28.9957 116.457 29.091 115.859 29.091C115.096 29.091 114.424 28.9393 113.844 28.636C113.263 28.3327 112.812 27.9123 112.492 27.375C112.18 26.829 112.024 26.2137 112.024 25.529C112.024 24.853 112.175 24.2463 112.479 23.709C112.791 23.163 113.22 22.7383 113.766 22.435C114.312 22.1317 114.927 21.98 115.612 21.98C116.288 21.98 116.89 22.1317 117.419 22.435C117.956 22.7297 118.372 23.15 118.667 23.696C118.97 24.2333 119.122 24.8573 119.122 25.568ZM115.612 23.28C115.092 23.28 114.65 23.436 114.286 23.748C113.93 24.0513 113.714 24.4587 113.636 24.97H117.575C117.505 24.4673 117.293 24.06 116.938 23.748C116.582 23.436 116.14 23.28 115.612 23.28ZM136.82 19.9L133.804 29H132.01L129.761 22.266L127.473 29H125.666L122.65 19.9H124.405L126.667 26.816L129.02 19.9H130.58L132.881 26.855L135.208 19.9H136.82ZM143.592 25.568C143.592 25.6807 143.583 25.841 143.566 26.049H138.119C138.214 26.5603 138.461 26.9677 138.86 27.271C139.267 27.5657 139.77 27.713 140.368 27.713C141.13 27.713 141.759 27.4617 142.253 26.959L143.124 27.96C142.812 28.3327 142.417 28.6143 141.941 28.805C141.464 28.9957 140.927 29.091 140.329 29.091C139.566 29.091 138.894 28.9393 138.314 28.636C137.733 28.3327 137.282 27.9123 136.962 27.375C136.65 26.829 136.494 26.2137 136.494 25.529C136.494 24.853 136.645 24.2463 136.949 23.709C137.261 23.163 137.69 22.7383 138.236 22.435C138.782 22.1317 139.397 21.98 140.082 21.98C140.758 21.98 141.36 22.1317 141.889 22.435C142.426 22.7297 142.842 23.15 143.137 23.696C143.44 24.2333 143.592 24.8573 143.592 25.568ZM140.082 23.28C139.562 23.28 139.12 23.436 138.756 23.748C138.4 24.0513 138.184 24.4587 138.106 24.97H142.045C141.975 24.4673 141.763 24.06 141.408 23.748C141.052 23.436 140.61 23.28 140.082 23.28ZM148.546 21.98C149.222 21.98 149.824 22.1273 150.353 22.422C150.89 22.7167 151.31 23.1327 151.614 23.67C151.917 24.2073 152.069 24.827 152.069 25.529C152.069 26.231 151.917 26.855 151.614 27.401C151.31 27.9383 150.89 28.3543 150.353 28.649C149.824 28.9437 149.222 29.091 148.546 29.091C148.069 29.091 147.631 29.0087 147.233 28.844C146.843 28.6793 146.513 28.4323 146.245 28.103V29H144.698V19.354H146.323V22.903C146.6 22.5997 146.925 22.37 147.298 22.214C147.679 22.058 148.095 21.98 148.546 21.98ZM148.364 27.7C148.962 27.7 149.451 27.5007 149.833 27.102C150.223 26.7033 150.418 26.179 150.418 25.529C150.418 24.879 150.223 24.3547 149.833 23.956C149.451 23.5573 148.962 23.358 148.364 23.358C147.974 23.358 147.623 23.449 147.311 23.631C146.999 23.8043 146.752 24.0557 146.57 24.385C146.388 24.7143 146.297 25.0957 146.297 25.529C146.297 25.9623 146.388 26.3437 146.57 26.673C146.752 27.0023 146.999 27.258 147.311 27.44C147.623 27.6133 147.974 27.7 148.364 27.7ZM159.269 29.13C158.567 29.13 157.887 29.0303 157.228 28.831C156.578 28.6317 156.063 28.3673 155.681 28.038L156.266 26.725C156.639 27.0197 157.094 27.2623 157.631 27.453C158.177 27.635 158.723 27.726 159.269 27.726C159.945 27.726 160.448 27.6177 160.777 27.401C161.115 27.1843 161.284 26.8983 161.284 26.543C161.284 26.283 161.189 26.0707 160.998 25.906C160.816 25.7327 160.582 25.5983 160.296 25.503C160.01 25.4077 159.62 25.2993 159.126 25.178C158.433 25.0133 157.87 24.8487 157.436 24.684C157.012 24.5193 156.643 24.2637 156.331 23.917C156.028 23.5617 155.876 23.085 155.876 22.487C155.876 21.9843 156.011 21.5293 156.279 21.122C156.557 20.706 156.968 20.3767 157.514 20.134C158.069 19.8913 158.745 19.77 159.542 19.77C160.097 19.77 160.643 19.8393 161.18 19.978C161.718 20.1167 162.181 20.316 162.571 20.576L162.038 21.889C161.64 21.655 161.224 21.4773 160.79 21.356C160.357 21.2347 159.937 21.174 159.529 21.174C158.862 21.174 158.364 21.2867 158.034 21.512C157.714 21.7373 157.553 22.0363 157.553 22.409C157.553 22.669 157.644 22.8813 157.826 23.046C158.017 23.2107 158.255 23.3407 158.541 23.436C158.827 23.5313 159.217 23.6397 159.711 23.761C160.387 23.917 160.942 24.0817 161.375 24.255C161.809 24.4197 162.177 24.6753 162.48 25.022C162.792 25.3687 162.948 25.8367 162.948 26.426C162.948 26.9287 162.81 27.3837 162.532 27.791C162.264 28.1983 161.852 28.5233 161.297 28.766C160.743 29.0087 160.067 29.13 159.269 29.13ZM168.186 28.623C167.996 28.779 167.762 28.896 167.484 28.974C167.216 29.052 166.93 29.091 166.626 29.091C165.864 29.091 165.274 28.8917 164.858 28.493C164.442 28.0943 164.234 27.5137 164.234 26.751V23.41H163.09V22.11H164.234V20.524H165.859V22.11H167.718V23.41H165.859V26.712C165.859 27.05 165.942 27.31 166.106 27.492C166.271 27.6653 166.509 27.752 166.821 27.752C167.185 27.752 167.489 27.6567 167.731 27.466L168.186 28.623ZM171.959 29.091C171.257 29.091 170.625 28.9393 170.061 28.636C169.498 28.3327 169.056 27.9123 168.735 27.375C168.423 26.829 168.267 26.2137 168.267 25.529C168.267 24.8443 168.423 24.2333 168.735 23.696C169.056 23.1587 169.498 22.7383 170.061 22.435C170.625 22.1317 171.257 21.98 171.959 21.98C172.67 21.98 173.307 22.1317 173.87 22.435C174.434 22.7383 174.871 23.1587 175.183 23.696C175.504 24.2333 175.664 24.8443 175.664 25.529C175.664 26.2137 175.504 26.829 175.183 27.375C174.871 27.9123 174.434 28.3327 173.87 28.636C173.307 28.9393 172.67 29.091 171.959 29.091ZM171.959 27.7C172.557 27.7 173.051 27.5007 173.441 27.102C173.831 26.7033 174.026 26.179 174.026 25.529C174.026 24.879 173.831 24.3547 173.441 23.956C173.051 23.5573 172.557 23.358 171.959 23.358C171.361 23.358 170.867 23.5573 170.477 23.956C170.096 24.3547 169.905 24.879 169.905 25.529C169.905 26.179 170.096 26.7033 170.477 27.102C170.867 27.5007 171.361 27.7 171.959 27.7ZM178.31 23.072C178.778 22.344 179.602 21.98 180.78 21.98V23.527C180.642 23.501 180.516 23.488 180.403 23.488C179.771 23.488 179.277 23.6743 178.921 24.047C178.566 24.411 178.388 24.9397 178.388 25.633V29H176.763V22.058H178.31V23.072ZM188.166 25.568C188.166 25.6807 188.158 25.841 188.14 26.049H182.693C182.789 26.5603 183.036 26.9677 183.434 27.271C183.842 27.5657 184.344 27.713 184.942 27.713C185.705 27.713 186.333 27.4617 186.827 26.959L187.698 27.96C187.386 28.3327 186.992 28.6143 186.515 28.805C186.039 28.9957 185.501 29.091 184.903 29.091C184.141 29.091 183.469 28.9393 182.888 28.636C182.308 28.3327 181.857 27.9123 181.536 27.375C181.224 26.829 181.068 26.2137 181.068 25.529C181.068 24.853 181.22 24.2463 181.523 23.709C181.835 23.163 182.264 22.7383 182.81 22.435C183.356 22.1317 183.972 21.98 184.656 21.98C185.332 21.98 185.935 22.1317 186.463 22.435C187.001 22.7297 187.417 23.15 187.711 23.696C188.015 24.2333 188.166 24.8573 188.166 25.568ZM184.656 23.28C184.136 23.28 183.694 23.436 183.33 23.748C182.975 24.0513 182.758 24.4587 182.68 24.97H186.619C186.55 24.4673 186.338 24.06 185.982 23.748C185.627 23.436 185.185 23.28 184.656 23.28Z" fill="#2B4552"/>
</svg>
