<svg width="44" height="44" viewBox="0 0 44 44" fill="none" xmlns="http://www.w3.org/2000/svg">
<circle cx="22" cy="22" r="22" fill="#2B3942"/>
<path fill-rule="evenodd" clip-rule="evenodd" d="M30.4355 19.8711L30.4355 23.0513L27.181 23.0513L27.181 19.8711L30.4355 19.8711Z" fill="#00F9FF"/>
<path fill-rule="evenodd" clip-rule="evenodd" d="M27.1807 23.0512L27.1807 26.2554L23.9444 26.2554L23.9444 23.0512L27.1807 23.0512Z" fill="#00F9FF"/>
<path d="M23.9443 29.4355L23.9443 26.2553L20.6837 26.2553L20.6837 29.4355L23.9443 29.4355Z" fill="#00F9FF"/>
<path fill-rule="evenodd" clip-rule="evenodd" d="M20.6846 23.0512L20.6846 26.2554L17.4483 26.2554L17.4483 23.0512L20.6846 23.0512Z" fill="#00F9FF"/>
<path fill-rule="evenodd" clip-rule="evenodd" d="M17.4482 19.871L17.4482 23.0512L14.1937 23.0512L14.1937 19.871L17.4482 19.871Z" fill="#00F9FF"/>
<path d="M23.9449 9.2258H20.7646V12.4864H23.9449V9.2258Z" fill="#00F9FF"/>
<path d="M23.9449 13.4839H20.7646V16.7445H23.9449V13.4839Z" fill="#00F9FF"/>
<path d="M23.9449 18.0297H20.7646V21.2903H23.9449V18.0297Z" fill="#00F9FF"/>
<path fill-rule="evenodd" clip-rule="evenodd" d="M30.5156 32.6451L30.5156 35.4839L14.193 35.4839L14.193 32.6451L30.5156 32.6451Z" fill="#00F9FF"/>
</svg>
