<?xml version="1.0" encoding="utf-8"?>
<!-- Generator: Adobe Illustrator 21.1.0, SVG Export Plug-In . SVG Version: 6.00 Build 0)  -->
<svg version="1.1" id="Layer_1" xmlns="http://www.w3.org/2000/svg" xmlns:xlink="http://www.w3.org/1999/xlink" x="0px" y="0px"
	 viewBox="0 0 394.3 496" style="enable-background:new 0 0 394.3 496;" xml:space="preserve">
<style type="text/css">
	.st0{fill:#00FAFF;}
	.st1{fill:#2B3942;}
	.st2{fill:none;stroke:#2B3942;stroke-width:16.3452;stroke-miterlimit:10;}
	.st3{fill:#00FAFF;stroke:#2B3942;stroke-width:16.3452;stroke-miterlimit:10;}
</style>
<path class="st0" d="M88,15.3H56v16c0,8.8,7.2,16,16,16h32h96c8.8,0,16-7.2,16-16v-16H88z"/>
<path class="st1" d="M232,496H40c-22.1,0-40-17.9-40-40V40C0,17.9,17.9,0,40,0h192c22.1,0,40,17.9,40,40v96.2c0,4.4-3.6,8-8,8l0,0
	c-4.4,0-8-3.6-8-8V40c0-13.3-10.7-24-24-24H40c-13.3,0-24,10.7-24,24v416c0,13.3,10.7,24,24,24h192c13.3,0,24-10.7,24-24v-80.4
	c0-4.4,3.6-8,8-8l0,0c4.4,0,8,3.6,8,8V456C272,478.1,254.1,496,232,496z"/>
<path class="st1" d="M48,15.3h16v16c0,4.4,3.6,8,8,8h128c4.4,0,8-3.6,8-8v-16h16v16c0,13.2-10.8,24-24,24H72c-13.2,0-24-10.8-24-24
	V15.3z"/>
<g>
	<g>
		<path class="st1" d="M243,184.2h-17.4v-8.7c0-9.6-7.8-17.4-17.4-17.4H182c-19.3,0-34.9-15.6-34.9-34.9v-17.4
			c0-4.8,3.9-8.7,8.7-8.7h0c4.8,0,8.7,3.9,8.7,8.7v17.4c0,9.6,7.8,17.4,17.4,17.4h26.2c19.3,0,34.9,15.6,34.9,34.9V184.2z"/>
	</g>
	<g>
		<path class="st2" d="M56,278.4v31.7c0,31.4,25.5,56.9,56.9,56.9l0,0c24.2,0,44.8-15.1,53.1-36.4c4-10.3,14-17,25-17h60.1
			c11,0,21,6.7,25,17c8.2,21.3,28.9,36.4,53.1,36.4l0,0c31.4,0,56.9-25.5,56.9-56.9v-31.7c0-55.7-45.1-100.8-100.8-100.8H156.8
			C101.1,177.5,56,222.7,56,278.4z"/>
		<path class="st3" d="M152.8,241.9h-6.3v-6.3c0-9.8-7.9-17.7-17.7-17.7l0,0c-9.8,0-17.7,7.9-17.7,17.7v6.3h-6.3
			c-9.8,0-17.7,7.9-17.7,17.7s7.9,17.7,17.7,17.7h6.3v6.3c0,9.8,7.9,17.7,17.7,17.7l0,0c9.8,0,17.7-7.9,17.7-17.7v-6.3h6.3
			c9.8,0,17.7-7.9,17.7-17.7C170.5,249.8,162.6,241.9,152.8,241.9z"/>
		<g>
			<circle class="st0" cx="316.1" cy="235.6" r="4.4"/>
			<path class="st1" d="M316.1,223c-7,0-12.6,5.6-12.6,12.6c0,7,5.6,12.6,12.6,12.6s12.6-5.6,12.6-12.6
				C328.7,228.6,323,223,316.1,223L316.1,223z"/>
		</g>
		<g>
			<circle class="st0" cx="316.1" cy="291.7" r="4.4"/>
			<path class="st1" d="M316.1,279.1c-7,0-12.6,5.6-12.6,12.6s5.6,12.6,12.6,12.6s12.6-5.6,12.6-12.6S323,279.1,316.1,279.1
				L316.1,279.1z"/>
		</g>
		<g>
			<circle class="st0" cx="344.1" cy="263.6" r="4.4"/>
			<path class="st1" d="M344.1,251c-7,0-12.6,5.6-12.6,12.6s5.6,12.6,12.6,12.6c7,0,12.6-5.6,12.6-12.6S351.1,251,344.1,251
				L344.1,251z"/>
		</g>
		<g>
			<circle class="st0" cx="288" cy="263.6" r="4.4"/>
			<path class="st1" d="M288,251c-7,0-12.6,5.6-12.6,12.6s5.6,12.6,12.6,12.6s12.6-5.6,12.6-12.6S294.9,251,288,251L288,251z"/>
		</g>
		<path class="st1" d="M240,274.6h-25.8c-5,0-9-4-9-9v-0.2c0-5,4-9,9-9H240c5,0,9,4,9,9v0.2C249,270.5,244.9,274.6,240,274.6z"/>
	</g>
</g>
</svg>
