<svg width="152" height="50" viewBox="0 0 152 50" fill="none" xmlns="http://www.w3.org/2000/svg">
<rect width="152" height="50" rx="8" fill="#FDFDFD"/>
<path d="M35.9812 22.9531C35.9812 19.4414 38.9266 17.7421 39.0398 17.6289C37.3406 15.25 34.8484 14.9101 33.9422 14.7968C31.7898 14.5703 29.6375 16.0429 28.618 16.0429C27.4852 16.0429 25.7859 14.7968 23.9734 14.7968C21.5945 14.7968 19.4422 16.1562 18.1961 18.3085C15.7039 22.6132 17.5164 28.957 19.8953 32.4687C21.1414 34.1679 22.5008 36.0937 24.3133 35.9804C26.1258 35.8671 26.8055 34.8476 28.9578 34.8476C31.1102 34.8476 31.6766 35.9804 33.6023 35.9804C35.5281 35.9804 36.7742 34.2812 37.907 32.582C39.2664 30.6562 39.8328 28.7304 39.8328 28.6171C39.7195 28.5039 35.9812 27.1445 35.9812 22.9531Z" fill="#2B3942"/>
<path d="M32.4698 12.5313C33.376 11.2852 34.0557 9.69922 33.9424 8C32.5831 8.11328 30.7706 8.90625 29.8643 10.1523C28.9581 11.1719 28.1651 12.8711 28.3916 14.457C29.8643 14.5703 31.4502 13.6641 32.4698 12.5313Z" fill="#2B3942"/>
<path d="M61.8096 30.7265H59.3174L57.958 26.4218H53.2002L51.9541 30.7265H49.5752L54.333 16.1132H57.2783L61.8096 30.7265ZM57.5049 24.6093L56.2588 20.7577C56.1455 20.4179 55.919 19.3984 55.4658 18.039C55.3525 18.6054 55.126 19.6249 54.7861 20.7577L53.54 24.6093H57.5049Z" fill="#2B3942"/>
<path d="M73.9307 25.4023C73.9307 27.2148 73.4775 28.5742 72.458 29.707C71.5518 30.6132 70.5322 31.0664 69.1729 31.0664C67.8135 31.0664 66.794 30.6132 66.2275 29.5937V35.1445H63.8486V23.8163C63.8486 22.6835 63.8486 21.5507 63.7354 20.3046H65.7744L65.8877 22.0038C66.6807 20.7578 67.8135 20.0781 69.3994 20.0781C70.6455 20.0781 71.665 20.5312 72.458 21.5507C73.4775 22.457 73.9307 23.7031 73.9307 25.4023ZM71.5518 25.4023C71.5518 24.3828 71.3252 23.4765 70.8721 22.9101C70.4189 22.2304 69.7393 21.8906 68.833 21.8906C68.2666 21.8906 67.7002 22.1171 67.2471 22.457C66.794 22.7968 66.4541 23.3632 66.3408 23.9296C66.2275 24.2695 66.2275 24.496 66.2275 24.6093V26.4218C66.2275 27.2148 66.4541 27.7812 66.9072 28.3476C67.3604 28.914 68.04 29.1406 68.7197 29.1406C69.626 29.1406 70.3057 28.8007 70.7588 28.121C71.3252 27.4413 71.5518 26.5351 71.5518 25.4023Z" fill="#2B3942"/>
<path d="M86.0518 25.4023C86.0518 27.2148 85.5986 28.5742 84.5791 29.707C83.6728 30.6132 82.6533 31.0664 81.2939 31.0664C79.9346 31.0664 78.915 30.6132 78.3486 29.5937V35.1445H75.9697V23.8163C75.9697 22.6835 75.9697 21.5507 75.8564 20.3046H77.8955L78.0088 22.0038C78.8018 20.7578 79.9346 20.0781 81.5205 20.0781C82.7666 20.0781 83.7861 20.5312 84.5791 21.5507C85.5986 22.457 86.0518 23.7031 86.0518 25.4023ZM83.6729 25.4023C83.6729 24.3828 83.4463 23.4765 82.9932 22.9101C82.54 22.2304 81.8604 21.8906 80.9541 21.8906C80.3877 21.8906 79.8213 22.1171 79.3682 22.457C78.915 22.7968 78.5752 23.3632 78.4619 23.9296C78.3486 24.2695 78.3486 24.496 78.3486 24.6093V26.4218C78.3486 27.2148 78.5752 27.7812 79.0283 28.3476C79.4814 28.914 80.1611 29.1406 80.8408 29.1406C81.7471 29.1406 82.4268 28.8007 82.8799 28.121C83.4463 27.4413 83.6729 26.5351 83.6729 25.4023Z" fill="#2B3942"/>
<path d="M99.6455 26.6484C99.6455 27.8945 99.1924 28.9141 98.3994 29.707C97.4932 30.6133 96.1338 30.9531 94.4346 30.9531C92.8486 30.9531 91.6025 30.6133 90.6963 30.0469L91.2627 28.1211C92.2822 28.6875 93.415 29.0273 94.6611 29.0273C95.5674 29.0273 96.2471 28.8008 96.7002 28.4609C97.1533 28.0078 97.3799 27.5547 97.3799 26.875C97.3799 26.3086 97.1533 25.7422 96.8135 25.4023C96.3604 24.9492 95.6807 24.6094 94.7744 24.2695C92.1689 23.3633 90.9228 21.8906 90.9228 20.0781C90.9228 18.832 91.376 17.9258 92.2822 17.1328C93.1885 16.3398 94.3213 16 95.9072 16C97.2666 16 98.2861 16.2266 99.1924 16.6797L98.626 18.6055C97.833 18.1523 96.9268 17.9258 95.7939 17.9258C95.001 17.9258 94.3213 18.1523 93.8682 18.4922C93.5283 18.832 93.3018 19.2852 93.3018 19.8516C93.3018 20.418 93.5283 20.8711 93.9814 21.3242C94.3213 21.6641 95.1143 22.0039 96.1338 22.457C97.3799 22.9102 98.2861 23.5898 98.9658 24.2695C99.3057 24.8359 99.6455 25.6289 99.6455 26.6484Z" fill="#2B3942"/>
<path d="M107.349 22.0038H104.743V27.1015C104.743 28.3476 105.196 29.0273 106.103 29.0273C106.556 29.0273 106.896 29.0273 107.122 28.914L107.235 30.7265C106.782 30.9531 106.216 30.9531 105.423 30.9531C104.517 30.9531 103.724 30.7265 103.271 30.1601C102.704 29.5937 102.478 28.6874 102.478 27.3281V22.0038H100.892V20.1913H102.478V18.2656L104.743 17.5859V20.1913H107.349V22.0038Z" fill="#2B3942"/>
<path d="M119.017 25.4023C119.017 26.9883 118.563 28.3477 117.657 29.3672C116.638 30.3867 115.392 30.9531 113.806 30.9531C112.22 30.9531 110.974 30.3867 110.067 29.3672C109.161 28.3477 108.708 27.1016 108.708 25.5156C108.708 23.9297 109.161 22.5703 110.181 21.5508C111.087 20.5313 112.446 19.9648 114.032 19.9648C115.618 19.9648 116.864 20.5313 117.771 21.5508C118.563 22.5703 119.017 23.8164 119.017 25.4023ZM116.524 25.5156C116.524 24.4961 116.298 23.7031 115.845 23.0234C115.392 22.2305 114.599 21.7773 113.692 21.7773C112.786 21.7773 111.993 22.2305 111.54 23.0234C111.087 23.7031 110.86 24.6094 110.86 25.5156C110.86 26.5352 111.087 27.3281 111.54 28.0078C111.993 28.8008 112.786 29.2539 113.692 29.2539C114.599 29.2539 115.278 28.8008 115.845 28.0078C116.298 27.3281 116.524 26.4219 116.524 25.5156Z" fill="#2B3942"/>
<path d="M126.606 22.2304C126.38 22.2304 126.153 22.1171 125.813 22.1171C125.021 22.1171 124.341 22.457 123.888 23.0234C123.548 23.5898 123.321 24.2695 123.321 25.0624V30.6132H120.942V23.3632C120.942 22.1171 120.942 21.0976 120.829 20.0781H122.868L122.981 22.1171H123.095C123.321 21.4374 123.774 20.871 124.228 20.4179C124.794 20.0781 125.36 19.8515 125.927 19.8515C126.153 19.8515 126.38 19.8515 126.493 19.8515V22.2304H126.606Z" fill="#2B3942"/>
<path d="M137.028 24.9492C137.028 25.4023 137.028 25.7422 136.915 25.9688H129.892C129.892 26.9883 130.231 27.7812 130.911 28.3477C131.478 28.8008 132.271 29.1406 133.177 29.1406C134.196 29.1406 135.216 29.0273 136.009 28.6875L136.349 30.2734C135.329 30.7266 134.196 30.9531 132.837 30.9531C131.251 30.9531 129.892 30.5 128.985 29.4805C128.079 28.5742 127.626 27.2148 127.626 25.6289C127.626 24.043 128.079 22.6836 128.872 21.6641C129.778 20.5312 131.024 19.9648 132.61 19.9648C134.083 19.9648 135.329 20.5312 136.009 21.6641C136.802 22.5703 137.028 23.7031 137.028 24.9492ZM134.876 24.3828C134.876 23.7031 134.763 23.1367 134.423 22.5703C133.97 21.8906 133.403 21.5508 132.61 21.5508C131.817 21.5508 131.251 21.8906 130.798 22.457C130.458 22.9102 130.231 23.5898 130.118 24.2695H134.876V24.3828Z" fill="#2B3942"/>
</svg>
