<svg width="220" height="50" viewBox="0 0 220 50" fill="none" xmlns="http://www.w3.org/2000/svg">
<rect width="220" height="50" rx="8" fill="#2B3942"/>
<path d="M67.9812 22.9531C67.9812 19.4414 70.9266 17.7421 71.0398 17.6289C69.3406 15.25 66.8484 14.9101 65.9422 14.7968C63.7898 14.5703 61.6375 16.0429 60.618 16.0429C59.4852 16.0429 57.7859 14.7968 55.9734 14.7968C53.5945 14.7968 51.4422 16.1562 50.1961 18.3085C47.7039 22.6132 49.5164 28.957 51.8953 32.4687C53.1414 34.1679 54.5008 36.0937 56.3133 35.9804C58.1258 35.8671 58.8055 34.8476 60.9578 34.8476C63.1102 34.8476 63.6766 35.9804 65.6023 35.9804C67.5281 35.9804 68.7742 34.2812 69.907 32.582C71.2664 30.6562 71.8328 28.7304 71.8328 28.6171C71.7195 28.5039 67.9812 27.1445 67.9812 22.9531Z" fill="#00F9FF"/>
<path d="M64.4698 12.5313C65.376 11.2852 66.0557 9.69922 65.9424 8C64.5831 8.11328 62.7706 8.90625 61.8643 10.1523C60.9581 11.1719 60.1651 12.8711 60.3916 14.457C61.8643 14.5703 63.4502 13.6641 64.4698 12.5313Z" fill="#00F9FF"/>
<path d="M93.8096 30.7265H91.3174L89.958 26.4218H85.2002L83.9541 30.7265H81.5752L86.333 16.1132H89.2783L93.8096 30.7265ZM89.5049 24.6093L88.2588 20.7577C88.1455 20.4179 87.919 19.3984 87.4658 18.039C87.3525 18.6054 87.126 19.6249 86.7861 20.7577L85.54 24.6093H89.5049Z" fill="#00F9FF"/>
<path d="M105.931 25.4023C105.931 27.2148 105.478 28.5742 104.458 29.707C103.552 30.6132 102.532 31.0664 101.173 31.0664C99.8135 31.0664 98.794 30.6132 98.2275 29.5937V35.1445H95.8486V23.8163C95.8486 22.6835 95.8486 21.5507 95.7354 20.3046H97.7744L97.8877 22.0038C98.6807 20.7578 99.8135 20.0781 101.399 20.0781C102.646 20.0781 103.665 20.5312 104.458 21.5507C105.478 22.457 105.931 23.7031 105.931 25.4023ZM103.552 25.4023C103.552 24.3828 103.325 23.4765 102.872 22.9101C102.419 22.2304 101.739 21.8906 100.833 21.8906C100.267 21.8906 99.7002 22.1171 99.2471 22.457C98.794 22.7968 98.4541 23.3632 98.3408 23.9296C98.2275 24.2695 98.2275 24.496 98.2275 24.6093V26.4218C98.2275 27.2148 98.4541 27.7812 98.9072 28.3476C99.3604 28.914 100.04 29.1406 100.72 29.1406C101.626 29.1406 102.306 28.8007 102.759 28.121C103.325 27.4413 103.552 26.5351 103.552 25.4023Z" fill="#00F9FF"/>
<path d="M118.052 25.4023C118.052 27.2148 117.599 28.5742 116.579 29.707C115.673 30.6132 114.653 31.0664 113.294 31.0664C111.935 31.0664 110.915 30.6132 110.349 29.5937V35.1445H107.97V23.8163C107.97 22.6835 107.97 21.5507 107.856 20.3046H109.896L110.009 22.0038C110.802 20.7578 111.935 20.0781 113.521 20.0781C114.767 20.0781 115.786 20.5312 116.579 21.5507C117.599 22.457 118.052 23.7031 118.052 25.4023ZM115.673 25.4023C115.673 24.3828 115.446 23.4765 114.993 22.9101C114.54 22.2304 113.86 21.8906 112.954 21.8906C112.388 21.8906 111.821 22.1171 111.368 22.457C110.915 22.7968 110.575 23.3632 110.462 23.9296C110.349 24.2695 110.349 24.496 110.349 24.6093V26.4218C110.349 27.2148 110.575 27.7812 111.028 28.3476C111.481 28.914 112.161 29.1406 112.841 29.1406C113.747 29.1406 114.427 28.8007 114.88 28.121C115.446 27.4413 115.673 26.5351 115.673 25.4023Z" fill="#00F9FF"/>
<path d="M131.646 26.6484C131.646 27.8945 131.192 28.9141 130.399 29.707C129.493 30.6133 128.134 30.9531 126.435 30.9531C124.849 30.9531 123.603 30.6133 122.696 30.0469L123.263 28.1211C124.282 28.6875 125.415 29.0273 126.661 29.0273C127.567 29.0273 128.247 28.8008 128.7 28.4609C129.153 28.0078 129.38 27.5547 129.38 26.875C129.38 26.3086 129.153 25.7422 128.813 25.4023C128.36 24.9492 127.681 24.6094 126.774 24.2695C124.169 23.3633 122.923 21.8906 122.923 20.0781C122.923 18.832 123.376 17.9258 124.282 17.1328C125.188 16.3398 126.321 16 127.907 16C129.267 16 130.286 16.2266 131.192 16.6797L130.626 18.6055C129.833 18.1523 128.927 17.9258 127.794 17.9258C127.001 17.9258 126.321 18.1523 125.868 18.4922C125.528 18.832 125.302 19.2852 125.302 19.8516C125.302 20.418 125.528 20.8711 125.981 21.3242C126.321 21.6641 127.114 22.0039 128.134 22.457C129.38 22.9102 130.286 23.5898 130.966 24.2695C131.306 24.8359 131.646 25.6289 131.646 26.6484Z" fill="#00F9FF"/>
<path d="M139.349 22.0038H136.743V27.1015C136.743 28.3476 137.196 29.0273 138.103 29.0273C138.556 29.0273 138.896 29.0273 139.122 28.914L139.235 30.7265C138.782 30.9531 138.216 30.9531 137.423 30.9531C136.517 30.9531 135.724 30.7265 135.271 30.1601C134.704 29.5937 134.478 28.6874 134.478 27.3281V22.0038H132.892V20.1913H134.478V18.2656L136.743 17.5859V20.1913H139.349V22.0038Z" fill="#00F9FF"/>
<path d="M151.017 25.4023C151.017 26.9883 150.563 28.3477 149.657 29.3672C148.638 30.3867 147.392 30.9531 145.806 30.9531C144.22 30.9531 142.974 30.3867 142.067 29.3672C141.161 28.3477 140.708 27.1016 140.708 25.5156C140.708 23.9297 141.161 22.5703 142.181 21.5508C143.087 20.5313 144.446 19.9648 146.032 19.9648C147.618 19.9648 148.864 20.5313 149.771 21.5508C150.563 22.5703 151.017 23.8164 151.017 25.4023ZM148.524 25.5156C148.524 24.4961 148.298 23.7031 147.845 23.0234C147.392 22.2305 146.599 21.7773 145.692 21.7773C144.786 21.7773 143.993 22.2305 143.54 23.0234C143.087 23.7031 142.86 24.6094 142.86 25.5156C142.86 26.5352 143.087 27.3281 143.54 28.0078C143.993 28.8008 144.786 29.2539 145.692 29.2539C146.599 29.2539 147.278 28.8008 147.845 28.0078C148.298 27.3281 148.524 26.4219 148.524 25.5156Z" fill="#00F9FF"/>
<path d="M158.606 22.2304C158.38 22.2304 158.153 22.1171 157.813 22.1171C157.021 22.1171 156.341 22.457 155.888 23.0234C155.548 23.5898 155.321 24.2695 155.321 25.0624V30.6132H152.942V23.3632C152.942 22.1171 152.942 21.0976 152.829 20.0781H154.868L154.981 22.1171H155.095C155.321 21.4374 155.774 20.871 156.228 20.4179C156.794 20.0781 157.36 19.8515 157.927 19.8515C158.153 19.8515 158.38 19.8515 158.493 19.8515V22.2304H158.606Z" fill="#00F9FF"/>
<path d="M169.028 24.9492C169.028 25.4023 169.028 25.7422 168.915 25.9688H161.892C161.892 26.9883 162.231 27.7812 162.911 28.3477C163.478 28.8008 164.271 29.1406 165.177 29.1406C166.196 29.1406 167.216 29.0273 168.009 28.6875L168.349 30.2734C167.329 30.7266 166.196 30.9531 164.837 30.9531C163.251 30.9531 161.892 30.5 160.985 29.4805C160.079 28.5742 159.626 27.2148 159.626 25.6289C159.626 24.043 160.079 22.6836 160.872 21.6641C161.778 20.5312 163.024 19.9648 164.61 19.9648C166.083 19.9648 167.329 20.5312 168.009 21.6641C168.802 22.5703 169.028 23.7031 169.028 24.9492ZM166.876 24.3828C166.876 23.7031 166.763 23.1367 166.423 22.5703C165.97 21.8906 165.403 21.5508 164.61 21.5508C163.817 21.5508 163.251 21.8906 162.798 22.457C162.458 22.9102 162.231 23.5898 162.118 24.2695H166.876V24.3828Z" fill="#00F9FF"/>
</svg>
