<?xml version="1.0" encoding="utf-8"?>
<!-- Generator: Adobe Illustrator 23.0.0, SVG Export Plug-In . SVG Version: 6.00 Build 0)  -->
<svg version="1.1" id="Capa_1" xmlns="http://www.w3.org/2000/svg" xmlns:xlink="http://www.w3.org/1999/xlink" x="0px" y="0px"
	 viewBox="0 0 369.8 483.9" style="enable-background:new 0 0 369.8 483.9;" xml:space="preserve">
<style type="text/css">
	.st0{fill:#00F9FF;stroke:#00F9FF;stroke-width:6;stroke-miterlimit:10;}
</style>
<g>
	<g>
		<path class="st0" d="M295.4,313.3c-0.4,0-55.4,1.6-63.6-57.4c9.1-6.3,17.5-14.6,24.8-24.6c14.4-19.4,23.6-43.8,26.9-70.2
			c1.1-1,2.1-2.3,2.7-3.8c6-14.2,9-29.4,9-45.1C295.3,52,249.8,3,193.9,3c-14.6,0-28.8,3.4-42.2,10c-5.1,0.4-10.1,1.3-14.9,2.7
			c-23,6.6-41.6,23.7-52.6,47.9c-10.6,23.6-12.7,51.3-5.9,78.1c1.4,5.7,3.3,11.2,5.5,16.5c0.6,1.4,1.5,2.7,2.5,3.7
			c5.3,41.2,24.9,75.3,51.6,93.9c-8.2,59-63.2,57.4-63.6,57.4C34.8,314.6,3,347.2,3,387.1v83c0,5.9,4.8,10.8,10.8,10.8h94.5h153.3
			H356c5.9,0,10.8-4.8,10.8-10.8v-83C366.8,347.2,335,314.6,295.4,313.3z M142.8,36.4c3.9-1.1,8.1-1.8,12.3-2
			c1.6-0.1,3.1-0.5,4.5-1.2c10.9-5.7,22.4-8.6,34.3-8.6c44,0,79.9,39.4,79.9,87.8c0,1.5,0,2.9-0.1,4.3c-8.5-8.7-20.4-14.1-33.5-14.1
			h-73.3c-4.4,0-8.5-1.4-12-4c-3-2.2-5.3-5.2-6.6-8.6c-2.1-5.3-7.3-8.6-13-8.2c-5.7,0.4-10.5,4.3-12,9.9
			c-4.2,16.3-12.7,31.4-24.3,43.6C88.1,90.7,107.6,46.5,142.8,36.4z M133.4,222.5c-14-17.1-23.2-40.2-26.1-65.5
			c13.6-12.1,24.3-27.2,31.3-43.9c1.1,1,2.2,1.9,3.3,2.8c7.2,5.4,15.8,8.2,24.9,8.2h73.3c10.4,0,19.3,6.2,23.3,15.1
			c0,0.1,0,0.1,0,0.2c0,60.7-35.2,110.2-78.6,110.2C166,249.6,147.8,240,133.4,222.5z M158.1,266.4c8.5,3.1,17.5,4.7,26.8,4.7
			c9.2,0,18.1-1.6,26.7-4.7c3.9,20.5,15.4,38.4,31.3,50.7l-56.5,80.5c-0.4,0.5-0.9,0.8-1.5,0.8c-0.6,0-1.2-0.3-1.5-0.8l-56.5-80.5
			C142.8,304.9,154.2,287,158.1,266.4z M345.2,459.3h-83.7H108.2H24.5v-72.3c0-28.9,23.5-52.3,52.3-52.3c0.4,0,17.7-0.4,31.4-6.6
			l57.5,81.9c4.4,6.2,11.5,9.9,19.1,9.9c0,0,0,0,0,0c7.6,0,14.8-3.7,19.1-9.9l57.5-81.9c15.6,6.6,31,6.6,31.4,6.6
			c28.9,0,52.3,23.5,52.3,52.3L345.2,459.3L345.2,459.3z"/>
	</g>
</g>
</svg>
