<?xml version="1.0" encoding="utf-8"?>
<!-- Generator: Adobe Illustrator 21.1.0, SVG Export Plug-In . SVG Version: 6.00 Build 0)  -->
<svg version="1.1" xmlns="http://www.w3.org/2000/svg" xmlns:xlink="http://www.w3.org/1999/xlink" x="0px" y="0px"
	 viewBox="0 0 496 496" style="enable-background:new 0 0 496 496;" xml:space="preserve">
<style type="text/css">
	.st0{display:none;}
	.st1{display:inline;fill:#00FAFF;}
	.st2{display:inline;fill:#2B3942;}
	.st3{fill:#00FAFF;}
</style>
<g id="Layer_1" class="st0">
	<path class="st1" d="M292.7,210.2l-75.6-43.6c-9.3-5.4-20.9,1.3-20.9,12v87.2c0,10.7,11.6,17.4,20.9,12l75.6-43.6
		C302,228.9,302,215.5,292.7,210.2z"/>
	<path class="st1" d="M447.9,102.4l-35.7-20.6c-4.4-2.5-9.9,0.6-9.9,5.7v41.2c0,5.1,5.5,8.2,9.9,5.7l35.7-20.6
		C452.3,111.2,452.3,104.9,447.9,102.4z"/>
	<path class="st2" d="M496,29.3C496,13.2,482.8,0,466.7,0h-44.3c-4.1,0-7.4,3.3-7.4,7.4s3.3,7.4,7.4,7.4h44.3
		c6.9,0,12.7,4.9,14.2,11.3c-3.5-1.7-7.4-2.6-11.4-2.6H368.2c-4.1,0-8,0.9-11.4,2.6c1.5-6.5,7.3-11.3,14.2-11.3h21.9
		c4.1,0,7.4-3.3,7.4-7.4S397,0,392.9,0H371c-16.2,0-29.3,13.2-29.3,29.3v31.7H46c-25.4,0-46,20.6-46,46v263.7c0,25.4,20.6,46,46,46
		h129L156,453h-9.8c-11.6,0-21.1,9.5-21.1,21.1c0,11.6,9.5,21.1,21.1,21.1h203.7c11.6,0,21.1-9.5,21.1-21.1
		c0-11.6-9.5-21.1-21.1-21.1H340L321,416.8h129c25.4,0,46-20.6,46-46L496,29.3z M241.2,467.7h108.7c3.5,0,6.3,2.8,6.3,6.4
		c0,3.5-2.8,6.3-6.3,6.3H146.2c-3.5,0-6.3-2.8-6.3-6.3c0-3.5,2.8-6.4,6.3-6.4h65.5c4.1,0,7.4-3.3,7.4-7.4s-3.3-7.4-7.4-7.4h-39.1
		l19.1-36.2h112.6l19.1,36.2h-82.2c-4.1,0-7.4,3.3-7.4,7.4S237.1,467.7,241.2,467.7z M341.7,163.8v20.7c0,16.2,13.2,29.3,29.3,29.3
		h85.7v103c0,13.3-10.8,24.1-24.1,24.1H63.4c-13.3,0-24.1-10.8-24.1-24.1V127.6c0-13.3,10.8-24.1,24.1-24.1h278.2V163.8z
		 M466.7,199.1H371c-6.9,0-12.7-4.9-14.2-11.3c3.5,1.7,7.3,2.6,11.4,2.6h101.2c4.1,0,8-0.9,11.4-2.6
		C479.4,194.2,473.6,199.1,466.7,199.1z M368.2,38.2h101.2c6.5,0,11.8,5.3,11.8,11.8v113.8c0,6.5-5.3,11.8-11.8,11.8H368.2
		c-6.5,0-11.8-5.3-11.8-11.8V50C356.4,43.5,361.7,38.2,368.2,38.2z M450,402.1H46c-17.2,0-31.3-14-31.3-31.3V107.1
		c0-17.2,14-31.3,31.3-31.3h295.7v12.9H63.4c-21.4,0-38.9,17.4-38.9,38.9v189.3c0,21.4,17.4,38.8,38.9,38.8h369.1
		c21.4,0,38.8-17.4,38.8-38.8V213.4c3.5-0.6,6.9-1.8,9.9-3.5v160.9C481.3,388,467.2,402.1,450,402.1z"/>
	<path class="st2" d="M199.6,284.3c3.3,1.9,7,2.9,10.6,2.9c3.7,0,7.3-1,10.6-2.9l75.6-43.6c6.7-3.8,10.6-10.7,10.6-18.4
		c0-7.7-4-14.6-10.6-18.4l-75.6-43.6c-6.7-3.8-14.6-3.8-21.3,0c-6.7,3.8-10.6,10.7-10.6,18.4v87.2
		C188.9,273.5,192.9,280.4,199.6,284.3z M203.7,178.6c0-3.4,2.3-5.1,3.3-5.7c0.6-0.3,1.8-0.9,3.3-0.9c1,0,2.1,0.2,3.2,0.9l75.6,43.6
		c3,1.7,3.3,4.5,3.3,5.7c0,1.1-0.3,4-3.3,5.7l-75.6,43.6c-3,1.7-5.6,0.6-6.5,0s-3.3-2.3-3.3-5.7V178.6z"/>
	<path class="st2" d="M401.9,140.8c2.2,1.3,4.6,1.9,7,1.9s4.8-0.6,7-1.9l35.7-20.6c4.4-2.5,7-7,7-12.1s-2.6-9.6-7-12.1l-35.7-20.6
		c-4.4-2.5-9.6-2.5-13.9,0c-4.4,2.5-7,7-7,12.1v41.2C395,133.7,397.6,138.3,401.9,140.8z M409.7,88.8l33.3,19.2l-33.3,19.2V88.8z"/>
</g>
<g id="Layer_2">
	<rect x="196.5" y="219.6" class="st3" width="102.7" height="69.1"/>
	<rect x="12.1" y="241.2" class="st3" width="29.4" height="34.6"/>
	<rect x="56.5" y="8" class="st3" width="29.4" height="34.6"/>
	<rect x="454.5" y="22.3" class="st3" width="29.4" height="34.6"/>
	<rect x="454.5" y="310.1" class="st3" width="29.4" height="34.6"/>
	<rect x="415.4" y="451.6" class="st3" width="29.4" height="34.6"/>
	<rect x="94.9" y="451.6" class="st3" width="29.4" height="34.6"/>
	<g>
		<path d="M71.2,208.8c4.6,0,8.2-4,7.7-8.5c0-3.5-3.7-7.5-8.5-7.1c-4.1,0.4-7.4,4-7,8.6C63.8,205.9,67.2,208.8,71.2,208.8z"/>
		<path d="M461.1,65.9h17.4c9.6,0,17.4-7.8,17.4-17.4V31c0-9.6-7.8-17.4-17.4-17.4h-17.4c-8.9,0-17.4,6.8-17.4,18.4h-57.6
			c-4.3,0-7.8,3.5-7.8,7.7v64.7c-13.5-12.8-21.8-30.9-21.8-50.8c0-9.6-7.8-17.4-17.4-17.4H156.9c-9.6,0-17.4,7.8-17.4,17.4
			c0,8-1.3,15.7-3.8,22.9H77.5V52.3h2.9c9.6,0,17.4-7.8,17.4-17.4V17.4C97.8,7.8,90,0,80.4,0H63c-9.6,0-17.4,7.8-17.4,17.4v17.4
			c0,9.3,7.3,16.9,16.5,17.4v32c0,4.3,3.5,7.7,7.7,7.7h58.3c-10.3,15.7-26.8,27.1-46.6,30.4C70.2,124.3,62,134,62,145.4
			c0,27.2,0,26.1,0,27.6c0,4.2,3.4,7.7,7.8,7.7c4.3,0,7.7-3.5,7.7-7.8c0-1.3,0-1.6,0-27.5c0-3.8,2.8-7,6.6-7.7
			c41.1-7,70.9-42.3,70.9-84c0-1.1,0.9-1.9,1.9-1.9h182.1c1.1,0,1.9,0.9,1.9,1.9c0,41.7,29.9,77.1,70.9,84c3.8,0.6,6.6,3.9,6.6,7.7
			V171c0,111.3-54,185.3-100.1,228.1c-0.8,0.5-22.6,22.1-53.8,40.8c-9.6,5.7-21.5,5.8-31.2,0.3c-76-43.5-130.2-117.6-148.9-203.1
			c-0.9-4.2-5-6.8-9.2-5.9c-4.2,0.9-6.8,5-5.9,9.2c4.7,21.8,11.7,42.8,20.6,62.9H33.9v-17.4c11.7,0,18.4-8.6,18.4-17.4v-17.4
			c0-9.6-7.8-17.4-17.4-17.4H17.4c-9.6,0-17.4,7.8-17.4,17.4v17.4c0,8.9,6.8,17.4,18.4,17.4V311c0,4.3,3.5,7.8,7.7,7.8h71.3
			c12.7,24.9,28.5,48,47,68.8h-35.9c-4.3,0-7.7,3.5-7.7,7.8v48.4c-11.7,0-18.4,8.6-18.4,17.4v17.4c0,9.6,7.8,17.4,17.4,17.4h17.4
			c9.6,0,17.4-7.8,17.4-17.4v-17.4c0-8.9-6.8-17.4-18.4-17.4V403h42.9c19.8,19.5,42.1,36.6,66.6,50.6c14.5,8.3,32.5,8.2,46.8-0.4
			c8.7-5.2,24.1-15.2,42.1-30.3v46.9c0,4.3,3.5,7.8,7.8,7.8h82.5c0,11.7,8.6,18.4,17.4,18.4h17.4c9.6,0,17.4-7.8,17.4-17.4v-17.4
			c0-9.6-7.8-17.4-17.4-17.4h-17.4c-8.9,0-17.4,6.8-17.4,18.4h-74.8v-53c45.3-42.7,77.5-95.1,93-153.4h38.9v47.5
			c-11.7,0-18.4,8.6-18.4,17.4v17.4c0,9.6,7.8,17.4,17.4,17.4h17.4c9.6,0,17.4-7.8,17.4-17.4v-17.4c0-8.9-6.8-17.4-18.4-17.4V248
			c0-4.3-3.5-7.7-7.8-7.7h-43c8.1-38.1,7.1-65,7.1-94.9c0-11.4-8.2-21-19.5-22.9c-7.4-1.3-14.3-3.6-20.7-6.9v-68h49.9
			C443.7,59.1,452.3,65.9,461.1,65.9L461.1,65.9z M61,34.9V17.4c0-1.1,0.9-1.9,1.9-1.9h17.4c1.1,0,1.9,0.9,1.9,1.9v17.4
			c0,1.1-0.9,1.9-1.9,1.9H63C61.9,36.8,61,35.9,61,34.9z M15.5,268.3v-17.4c0-1.1,0.9-1.9,1.9-1.9h17.4c1.1,0,1.9,0.9,1.9,1.9v17.4
			c0,1.1-0.9,1.9-1.9,1.9H17.4C16.4,270.3,15.5,269.4,15.5,268.3z M119.2,461.1v17.4c0,1.1-0.9,1.9-1.9,1.9H99.8
			c-1.1,0-1.9-0.9-1.9-1.9v-17.4c0-1.1,0.9-1.9,1.9-1.9h17.4C118.3,459.2,119.2,460.1,119.2,461.1z M420.4,461.1
			c0-1.1,0.9-1.9,1.9-1.9h17.4c1.1,0,1.9,0.9,1.9,1.9v17.4c0,1.1-0.9,1.9-1.9,1.9h-17.4c-1.1,0-1.9-0.9-1.9-1.9V461.1z M480.5,320.7
			v17.4c0,1.1-0.9,1.9-1.9,1.9h-17.4c-1.1,0-1.9-0.9-1.9-1.9v-17.4c0-1.1,0.9-1.9,1.9-1.9h17.4C479.6,318.7,480.5,319.6,480.5,320.7
			z M459.2,31c0-1.1,0.9-1.9,1.9-1.9h17.4c1.1,0,1.9,0.9,1.9,1.9v17.4c0,1.1-0.9,1.9-1.9,1.9h-17.4c-1.1,0-1.9-0.9-1.9-1.9V31z"/>
		<path d="M328.5,304.8c-2.3,3.6-1.2,8.4,2.4,10.7c3.6,2.3,8.4,1.2,10.7-2.4c22.1-34.9,33.4-74.1,33.4-116.5v-17.2
			c0-8.9-6.4-16.4-15.2-17.9c-21.2-3.6-36.6-21.9-36.6-43.4c0-7.8-6.4-14.2-14.2-14.2H187.1c-7.8,0-14.2,6.4-14.2,14.2
			c0,21.6-15.4,39.8-36.6,43.4c-8.8,1.5-15.2,9-15.2,17.9v17.2c0,78.8,42.4,152,110.8,191.1c10.5,6,23.5,5.9,33.9-0.3
			c10.5-6.3,31.3-20.2,52.1-43.2c2.9-3.2,2.6-8.1-0.5-10.9c-3.2-2.9-8.1-2.6-10.9,0.5c-19.4,21.5-38.8,34.5-48.5,40.3
			c-5.6,3.3-12.6,3.4-18.2,0.1c-63.5-36.4-103-104.5-103-177.7v-17.2c0-1.3,1-2.4,2.3-2.6c28.3-4.8,48.9-28.8,49.5-57.4h119.2
			c0.6,28.6,21.2,52.6,49.5,57.4c1.3,0.2,2.3,1.3,2.3,2.6C359.4,208.5,361,253.4,328.5,304.8L328.5,304.8z"/>
		<path d="M248,151.1c-23.5,0-42.6,19.1-42.6,42.6v19.4h-7.7c-4.3,0-7.7,3.5-7.7,7.7v69.7c0,4.3,3.5,7.7,7.7,7.7h100.7
			c4.3,0,7.8-3.5,7.8-7.7v-69.7c0-4.3-3.5-7.7-7.8-7.7h-7.7v-19.4C290.6,170.2,271.5,151.1,248,151.1z M220.9,193.7
			c0-15,12.2-27.1,27.1-27.1s27.1,12.2,27.1,27.1v19.4h-54.2V193.7z M290.6,282.9h-85.2v-54.2h85.2V282.9z"/>
		<path d="M248,245.1c-4.3,0-7.7,3.5-7.7,7.7v6.8c0,4.3,3.5,7.7,7.7,7.7c4.3,0,7.7-3.5,7.7-7.7v-6.8
			C255.8,248.6,252.3,245.1,248,245.1z"/>
	</g>
</g>
</svg>
