<?xml version="1.0" encoding="utf-8"?>
<!-- Generator: Adobe Illustrator 21.1.0, SVG Export Plug-In . SVG Version: 6.00 Build 0)  -->
<svg version="1.1" xmlns="http://www.w3.org/2000/svg" xmlns:xlink="http://www.w3.org/1999/xlink" x="0px" y="0px"
	 viewBox="0 0 496 495.2" style="enable-background:new 0 0 496 495.2;" xml:space="preserve">
<style type="text/css">
	.st0{display:none;}
	.st1{display:inline;fill:#00FAFF;}
	.st2{display:inline;fill:#2B3942;}
	.st3{fill:#00FAFF;}
	.st4{fill:#2B3942;}
</style>
<g id="Layer_1" class="st0">
	<path class="st1" d="M292.7,210.2l-75.6-43.6c-9.3-5.4-20.9,1.3-20.9,12v87.2c0,10.7,11.6,17.4,20.9,12l75.6-43.6
		C302,228.9,302,215.5,292.7,210.2z"/>
	<path class="st1" d="M447.9,102.4l-35.7-20.6c-4.4-2.5-9.9,0.6-9.9,5.7v41.2c0,5.1,5.5,8.2,9.9,5.7l35.7-20.6
		C452.3,111.2,452.3,104.9,447.9,102.4z"/>
	<path class="st2" d="M496,29.3C496,13.2,482.8,0,466.7,0h-44.3c-4.1,0-7.4,3.3-7.4,7.4s3.3,7.4,7.4,7.4h44.3
		c6.9,0,12.7,4.9,14.2,11.3c-3.5-1.7-7.4-2.6-11.4-2.6H368.2c-4.1,0-8,0.9-11.4,2.6c1.5-6.5,7.3-11.3,14.2-11.3h21.9
		c4.1,0,7.4-3.3,7.4-7.4S397,0,392.9,0H371c-16.2,0-29.3,13.2-29.3,29.3v31.7H46c-25.4,0-46,20.6-46,46v263.7c0,25.4,20.6,46,46,46
		h129L156,453h-9.8c-11.6,0-21.1,9.5-21.1,21.1c0,11.6,9.5,21.1,21.1,21.1h203.7c11.6,0,21.1-9.5,21.1-21.1
		c0-11.6-9.5-21.1-21.1-21.1H340L321,416.8h129c25.4,0,46-20.6,46-46L496,29.3z M241.2,467.7h108.7c3.5,0,6.3,2.8,6.3,6.4
		c0,3.5-2.8,6.3-6.3,6.3H146.2c-3.5,0-6.3-2.8-6.3-6.3c0-3.5,2.8-6.4,6.3-6.4h65.5c4.1,0,7.4-3.3,7.4-7.4s-3.3-7.4-7.4-7.4h-39.1
		l19.1-36.2h112.6l19.1,36.2h-82.2c-4.1,0-7.4,3.3-7.4,7.4S237.1,467.7,241.2,467.7z M341.7,163.8v20.7c0,16.2,13.2,29.3,29.3,29.3
		h85.7v103c0,13.3-10.8,24.1-24.1,24.1H63.4c-13.3,0-24.1-10.8-24.1-24.1V127.6c0-13.3,10.8-24.1,24.1-24.1h278.2V163.8z
		 M466.7,199.1H371c-6.9,0-12.7-4.9-14.2-11.3c3.5,1.7,7.3,2.6,11.4,2.6h101.2c4.1,0,8-0.9,11.4-2.6
		C479.4,194.2,473.6,199.1,466.7,199.1z M368.2,38.2h101.2c6.5,0,11.8,5.3,11.8,11.8v113.8c0,6.5-5.3,11.8-11.8,11.8H368.2
		c-6.5,0-11.8-5.3-11.8-11.8V50C356.4,43.5,361.7,38.2,368.2,38.2z M450,402.1H46c-17.2,0-31.3-14-31.3-31.3V107.1
		c0-17.2,14-31.3,31.3-31.3h295.7v12.9H63.4c-21.4,0-38.9,17.4-38.9,38.9v189.3c0,21.4,17.4,38.8,38.9,38.8h369.1
		c21.4,0,38.8-17.4,38.8-38.8V213.4c3.5-0.6,6.9-1.8,9.9-3.5v160.9C481.3,388,467.2,402.1,450,402.1z"/>
	<path class="st2" d="M199.6,284.3c3.3,1.9,7,2.9,10.6,2.9c3.7,0,7.3-1,10.6-2.9l75.6-43.6c6.7-3.8,10.6-10.7,10.6-18.4
		c0-7.7-4-14.6-10.6-18.4l-75.6-43.6c-6.7-3.8-14.6-3.8-21.3,0c-6.7,3.8-10.6,10.7-10.6,18.4v87.2
		C188.9,273.5,192.9,280.4,199.6,284.3z M203.7,178.6c0-3.4,2.3-5.1,3.3-5.7c0.6-0.3,1.8-0.9,3.3-0.9c1,0,2.1,0.2,3.2,0.9l75.6,43.6
		c3,1.7,3.3,4.5,3.3,5.7c0,1.1-0.3,4-3.3,5.7l-75.6,43.6c-3,1.7-5.6,0.6-6.5,0s-3.3-2.3-3.3-5.7V178.6z"/>
	<path class="st2" d="M401.9,140.8c2.2,1.3,4.6,1.9,7,1.9s4.8-0.6,7-1.9l35.7-20.6c4.4-2.5,7-7,7-12.1s-2.6-9.6-7-12.1l-35.7-20.6
		c-4.4-2.5-9.6-2.5-13.9,0c-4.4,2.5-7,7-7,12.1v41.2C395,133.7,397.6,138.3,401.9,140.8z M409.7,88.8l33.3,19.2l-33.3,19.2V88.8z"/>
</g>
<g id="Layer_2">
	<circle class="st3" cx="336.8" cy="425.6" r="19.5"/>
	<path class="st4" d="M248.4,43.3C248.4,43.3,248.4,43.3,248.4,43.3l-0.7,0c-5.3,0-9.6-4.3-9.6-9.6c0,0,0,0,0,0
		c0-5.3,4.3-9.6,9.6-9.6c0,0,0,0,0,0l0.7,0c5.3,0,9.6,4.3,9.6,9.6c0,0,0,0,0,0C258,39,253.7,43.3,248.4,43.3z"/>
	<path class="st4" d="M246,379.6c-6.1,0-149.6-0.1-187.2-10.4c-23.6-6.4-42.3-25.3-48.6-49.3C0.1,281.7,0,205.1,0,201.8
		s0.1-79.9,10.2-118.1c6.3-24,24.9-42.9,48.6-49.3c24.9-6.8,94.9-9.2,149.3-10c5.3,0,9.7,4.2,9.8,9.5c0.1,5.3-4.2,9.7-9.5,9.8
		C133.1,44.8,81.7,48.1,63.8,53c-17,4.6-30.5,18.3-35,35.7c-9.4,35.8-9.6,112.4-9.6,113.2c0,0.8,0.1,77.4,9.6,113.2
		c4.6,17.4,18,31,35,35.7c35.2,9.6,180.7,9.7,182.2,9.7s147-0.1,182.2-9.7c17-4.6,30.5-18.3,35-35.7c9.4-35.8,9.6-112.4,9.6-113.2
		c0-0.8-0.1-77.4-9.6-113.2c-4.6-17.4-18-31-35-35.7c-17.5-4.8-67.4-8.1-140.4-9.3c-5.3-0.1-9.5-4.5-9.4-9.8s4.5-9.5,9.8-9.4
		c52.7,0.9,120.7,3.3,145.1,10c23.6,6.4,42.3,25.3,48.6,49.3c10.1,38.2,10.2,114.8,10.2,118.1s-0.1,79.9-10.2,118.1
		c-6.3,24-24.9,42.9-48.6,49.3C395.6,379.5,252.1,379.6,246,379.6z"/>
	<polygon class="st3" points="200,134.1 319.1,203.3 200,272.5 	"/>
	<path class="st4" d="M55.7,273.9c-5.3,0-9.6-4.3-9.6-9.6V186c0-5.3,4.3-9.6,9.6-9.6s9.6,4.3,9.6,9.6v78.3
		C65.3,269.6,61,273.9,55.7,273.9z"/>
	<path class="st4" d="M55.7,152c-5.3,0-9.6-4.3-9.6-9.6v-0.1c0-5.3,4.3-9.6,9.6-9.6s9.6,4.3,9.6,9.6v0.1C65.3,147.7,61,152,55.7,152
		z"/>
	<path class="st4" d="M200,282.1c-1.7,0-3.3-0.4-4.8-1.3c-3-1.7-4.8-4.9-4.8-8.3V134.1c0-3.4,1.8-6.6,4.8-8.3c3-1.7,6.6-1.7,9.6,0
		L323.9,195c3,1.7,4.8,4.9,4.8,8.3s-1.8,6.6-4.8,8.3l-119.2,69.2C203.3,281.6,201.6,282.1,200,282.1z M209.6,150.8v105l90.4-52.5
		L209.6,150.8z"/>
	<g>
		<g>
			<path class="st4" d="M428.5,414.6h-63.1c-4-11.3-14.8-19.4-27.4-19.4c-12.6,0-23.4,8.1-27.4,19.4H65.4c-5.4,0-9.7,4.3-9.7,9.7
				c0,5.4,4.3,9.7,9.7,9.7h245.1c4,11.3,14.8,19.4,27.4,19.4s23.4-8.1,27.4-19.4h63.1c5.4,0,9.7-4.3,9.7-9.7
				C438.2,418.9,433.9,414.6,428.5,414.6z M338,434c-5.3,0-9.7-4.4-9.7-9.7c0-5.3,4.4-9.7,9.7-9.7c5.3,0,9.7,4.4,9.7,9.7
				C347.7,429.6,343.3,434,338,434z"/>
		</g>
	</g>
</g>
</svg>
