<svg width="152" height="50" viewBox="0 0 152 50" fill="none" xmlns="http://www.w3.org/2000/svg">
<rect width="152" height="50" rx="8" fill="#FDFDFD"/>
<path d="M65.124 26.894H60.574L59.677 29H57.935L62.03 19.9H63.694L67.802 29H66.034L65.124 26.894ZM64.565 25.568L62.849 21.59L61.146 25.568H64.565ZM72.2873 21.98C73.1626 21.98 73.8646 22.2357 74.3933 22.747C74.922 23.2583 75.1863 24.0167 75.1863 25.022V29H73.5613V25.23C73.5613 24.6233 73.4183 24.1683 73.1323 23.865C72.8463 23.553 72.439 23.397 71.9103 23.397C71.3123 23.397 70.84 23.579 70.4933 23.943C70.1466 24.2983 69.9733 24.814 69.9733 25.49V29H68.3483V22.058H69.8953V22.955C70.164 22.6343 70.502 22.3917 70.9093 22.227C71.3166 22.0623 71.776 21.98 72.2873 21.98ZM83.6552 19.354V29H82.0952V28.103C81.8265 28.4323 81.4929 28.6793 81.0942 28.844C80.7042 29.0087 80.2709 29.091 79.7942 29.091C79.1269 29.091 78.5245 28.9437 77.9872 28.649C77.4585 28.3543 77.0425 27.9383 76.7392 27.401C76.4359 26.855 76.2842 26.231 76.2842 25.529C76.2842 24.827 76.4359 24.2073 76.7392 23.67C77.0425 23.1327 77.4585 22.7167 77.9872 22.422C78.5245 22.1273 79.1269 21.98 79.7942 21.98C80.2535 21.98 80.6739 22.058 81.0552 22.214C81.4365 22.37 81.7615 22.604 82.0302 22.916V19.354H83.6552ZM79.9892 27.7C80.3792 27.7 80.7302 27.6133 81.0422 27.44C81.3542 27.258 81.6012 27.0023 81.7832 26.673C81.9652 26.3437 82.0562 25.9623 82.0562 25.529C82.0562 25.0957 81.9652 24.7143 81.7832 24.385C81.6012 24.0557 81.3542 23.8043 81.0422 23.631C80.7302 23.449 80.3792 23.358 79.9892 23.358C79.5992 23.358 79.2482 23.449 78.9362 23.631C78.6242 23.8043 78.3772 24.0557 78.1952 24.385C78.0132 24.7143 77.9222 25.0957 77.9222 25.529C77.9222 25.9623 78.0132 26.3437 78.1952 26.673C78.3772 27.0023 78.6242 27.258 78.9362 27.44C79.2482 27.6133 79.5992 27.7 79.9892 27.7ZM86.873 23.072C87.341 22.344 88.1643 21.98 89.343 21.98V23.527C89.2043 23.501 89.0787 23.488 88.966 23.488C88.3333 23.488 87.8393 23.6743 87.484 24.047C87.1287 24.411 86.951 24.9397 86.951 25.633V29H85.326V22.058H86.873V23.072ZM93.323 29.091C92.621 29.091 91.9884 28.9393 91.425 28.636C90.8617 28.3327 90.4197 27.9123 90.099 27.375C89.787 26.829 89.631 26.2137 89.631 25.529C89.631 24.8443 89.787 24.2333 90.099 23.696C90.4197 23.1587 90.8617 22.7383 91.425 22.435C91.9884 22.1317 92.621 21.98 93.323 21.98C94.0337 21.98 94.6707 22.1317 95.234 22.435C95.7974 22.7383 96.235 23.1587 96.547 23.696C96.8677 24.2333 97.028 24.8443 97.028 25.529C97.028 26.2137 96.8677 26.829 96.547 27.375C96.235 27.9123 95.7974 28.3327 95.234 28.636C94.6707 28.9393 94.0337 29.091 93.323 29.091ZM93.323 27.7C93.921 27.7 94.415 27.5007 94.805 27.102C95.195 26.7033 95.39 26.179 95.39 25.529C95.39 24.879 95.195 24.3547 94.805 23.956C94.415 23.5573 93.921 23.358 93.323 23.358C92.725 23.358 92.231 23.5573 91.841 23.956C91.4597 24.3547 91.269 24.879 91.269 25.529C91.269 26.179 91.4597 26.7033 91.841 27.102C92.231 27.5007 92.725 27.7 93.323 27.7ZM98.1269 22.058H99.7519V29H98.1269V22.058ZM98.9459 20.914C98.6513 20.914 98.4043 20.823 98.2049 20.641C98.0056 20.4503 97.9059 20.2163 97.9059 19.939C97.9059 19.6617 98.0056 19.432 98.2049 19.25C98.4043 19.0593 98.6513 18.964 98.9459 18.964C99.2406 18.964 99.4876 19.055 99.6869 19.237C99.8863 19.4103 99.9859 19.6313 99.9859 19.9C99.9859 20.186 99.8863 20.4287 99.6869 20.628C99.4963 20.8187 99.2493 20.914 98.9459 20.914ZM108.229 19.354V29H106.669V28.103C106.4 28.4323 106.066 28.6793 105.668 28.844C105.278 29.0087 104.844 29.091 104.368 29.091C103.7 29.091 103.098 28.9437 102.561 28.649C102.032 28.3543 101.616 27.9383 101.313 27.401C101.009 26.855 100.858 26.231 100.858 25.529C100.858 24.827 101.009 24.2073 101.313 23.67C101.616 23.1327 102.032 22.7167 102.561 22.422C103.098 22.1273 103.7 21.98 104.368 21.98C104.827 21.98 105.247 22.058 105.629 22.214C106.01 22.37 106.335 22.604 106.604 22.916V19.354H108.229ZM104.563 27.7C104.953 27.7 105.304 27.6133 105.616 27.44C105.928 27.258 106.175 27.0023 106.357 26.673C106.539 26.3437 106.63 25.9623 106.63 25.529C106.63 25.0957 106.539 24.7143 106.357 24.385C106.175 24.0557 105.928 23.8043 105.616 23.631C105.304 23.449 104.953 23.358 104.563 23.358C104.173 23.358 103.822 23.449 103.51 23.631C103.198 23.8043 102.951 24.0557 102.769 24.385C102.587 24.7143 102.496 25.0957 102.496 25.529C102.496 25.9623 102.587 26.3437 102.769 26.673C102.951 27.0023 103.198 27.258 103.51 27.44C103.822 27.6133 104.173 27.7 104.563 27.7ZM115.039 21.33H112.023V19.9H119.745V21.33H116.729V29H115.039V21.33ZM128.752 19.9L124.787 29H123.123L119.145 19.9H120.978L124.007 26.92L127.062 19.9H128.752Z" fill="#2B4552"/>
<g clip-path="url(#clip0)">
<path d="M21.0855 20.3377C20.1193 20.3377 19.3359 21.1211 19.3359 22.0873V30.2521C19.3359 31.2183 20.1193 32.0017 21.0855 32.0017C22.0518 32.0017 22.8351 31.2183 22.8351 30.2521V22.0873C22.8351 21.1211 22.0518 20.3377 21.0855 20.3377Z" fill="#2B4552"/>
<path d="M40.9146 20.3377C39.9484 20.3377 39.165 21.1211 39.165 22.0873V30.2521C39.165 31.2183 39.9484 32.0017 40.9146 32.0017C41.8809 32.0017 42.6642 31.2183 42.6642 30.2521V22.0873C42.6642 21.1211 41.8809 20.3377 40.9146 20.3377Z" fill="#2B4552"/>
<path d="M37.4145 20.3377H24.5842C24.2621 20.3377 24.001 20.5989 24.001 20.921V30.2521C24.0007 31.638 24.9759 32.8325 26.3338 33.1097V37.2504C26.3338 38.2167 27.1171 39 28.0834 39C29.0496 39 29.833 38.2167 29.833 37.2504V33.168H32.1658V37.2504C32.1658 38.2167 32.9491 39 33.9154 39C34.8816 39 35.6649 38.2167 35.6649 37.2504V33.1097C37.0228 32.8325 37.998 31.638 37.9977 30.2521V20.921C37.9977 20.5989 37.7366 20.3377 37.4145 20.3377Z" fill="#2B4552"/>
<path d="M35.2393 13.4233L36.6611 12.0027C36.8927 11.7789 36.8991 11.4097 36.6754 11.178C36.4516 10.9464 36.0825 10.94 35.8508 11.1637C35.8459 11.1684 35.8411 11.1732 35.8364 11.178L34.1802 12.8343C32.1516 11.9531 29.8484 11.9531 27.8198 12.8343L26.1636 11.1769C25.9319 10.9531 25.5627 10.9595 25.3389 11.1912C25.1206 11.4172 25.1206 11.7755 25.3389 12.0015L26.7596 13.4233C25.0276 14.5693 23.9903 16.5114 24.0011 18.5881C24.0011 18.9102 24.2622 19.1713 24.5843 19.1713H37.4146C37.7367 19.1713 37.9978 18.9102 37.9978 18.5881C38.0085 16.5114 36.9712 14.5693 35.2393 13.4233Z" fill="#2B4552"/>
<path d="M28.0842 16.8385C28.4063 16.8385 28.6674 16.5774 28.6674 16.2553C28.6674 15.9332 28.4063 15.6721 28.0842 15.6721C27.7621 15.6721 27.501 15.9332 27.501 16.2553C27.501 16.5774 27.7621 16.8385 28.0842 16.8385Z" fill="#FAFAFA"/>
<path d="M33.9162 16.8385C34.2383 16.8385 34.4994 16.5774 34.4994 16.2553C34.4994 15.9332 34.2383 15.6721 33.9162 15.6721C33.5941 15.6721 33.333 15.9332 33.333 16.2553C33.333 16.5774 33.5941 16.8385 33.9162 16.8385Z" fill="#FAFAFA"/>
</g>
<defs>
<clipPath id="clip0">
<rect width="28" height="28" fill="white" transform="translate(17 11)"/>
</clipPath>
</defs>
</svg>
