<svg width="220" height="50" viewBox="0 0 220 50" fill="none" xmlns="http://www.w3.org/2000/svg">
<rect width="220" height="50" rx="8" fill="#2B4552"/>
<path d="M94.124 26.894H89.574L88.677 29H86.935L91.03 19.9H92.694L96.802 29H95.034L94.124 26.894ZM93.565 25.568L91.849 21.59L90.146 25.568H93.565ZM101.287 21.98C102.163 21.98 102.865 22.2357 103.393 22.747C103.922 23.2583 104.186 24.0167 104.186 25.022V29H102.561V25.23C102.561 24.6233 102.418 24.1683 102.132 23.865C101.846 23.553 101.439 23.397 100.91 23.397C100.312 23.397 99.84 23.579 99.4933 23.943C99.1466 24.2983 98.9733 24.814 98.9733 25.49V29H97.3483V22.058H98.8953V22.955C99.164 22.6343 99.502 22.3917 99.9093 22.227C100.317 22.0623 100.776 21.98 101.287 21.98ZM112.655 19.354V29H111.095V28.103C110.827 28.4323 110.493 28.6793 110.094 28.844C109.704 29.0087 109.271 29.091 108.794 29.091C108.127 29.091 107.525 28.9437 106.987 28.649C106.459 28.3543 106.043 27.9383 105.739 27.401C105.436 26.855 105.284 26.231 105.284 25.529C105.284 24.827 105.436 24.2073 105.739 23.67C106.043 23.1327 106.459 22.7167 106.987 22.422C107.525 22.1273 108.127 21.98 108.794 21.98C109.254 21.98 109.674 22.058 110.055 22.214C110.437 22.37 110.762 22.604 111.03 22.916V19.354H112.655ZM108.989 27.7C109.379 27.7 109.73 27.6133 110.042 27.44C110.354 27.258 110.601 27.0023 110.783 26.673C110.965 26.3437 111.056 25.9623 111.056 25.529C111.056 25.0957 110.965 24.7143 110.783 24.385C110.601 24.0557 110.354 23.8043 110.042 23.631C109.73 23.449 109.379 23.358 108.989 23.358C108.599 23.358 108.248 23.449 107.936 23.631C107.624 23.8043 107.377 24.0557 107.195 24.385C107.013 24.7143 106.922 25.0957 106.922 25.529C106.922 25.9623 107.013 26.3437 107.195 26.673C107.377 27.0023 107.624 27.258 107.936 27.44C108.248 27.6133 108.599 27.7 108.989 27.7ZM115.873 23.072C116.341 22.344 117.164 21.98 118.343 21.98V23.527C118.204 23.501 118.079 23.488 117.966 23.488C117.333 23.488 116.839 23.6743 116.484 24.047C116.129 24.411 115.951 24.9397 115.951 25.633V29H114.326V22.058H115.873V23.072ZM122.323 29.091C121.621 29.091 120.988 28.9393 120.425 28.636C119.862 28.3327 119.42 27.9123 119.099 27.375C118.787 26.829 118.631 26.2137 118.631 25.529C118.631 24.8443 118.787 24.2333 119.099 23.696C119.42 23.1587 119.862 22.7383 120.425 22.435C120.988 22.1317 121.621 21.98 122.323 21.98C123.034 21.98 123.671 22.1317 124.234 22.435C124.797 22.7383 125.235 23.1587 125.547 23.696C125.868 24.2333 126.028 24.8443 126.028 25.529C126.028 26.2137 125.868 26.829 125.547 27.375C125.235 27.9123 124.797 28.3327 124.234 28.636C123.671 28.9393 123.034 29.091 122.323 29.091ZM122.323 27.7C122.921 27.7 123.415 27.5007 123.805 27.102C124.195 26.7033 124.39 26.179 124.39 25.529C124.39 24.879 124.195 24.3547 123.805 23.956C123.415 23.5573 122.921 23.358 122.323 23.358C121.725 23.358 121.231 23.5573 120.841 23.956C120.46 24.3547 120.269 24.879 120.269 25.529C120.269 26.179 120.46 26.7033 120.841 27.102C121.231 27.5007 121.725 27.7 122.323 27.7ZM127.127 22.058H128.752V29H127.127V22.058ZM127.946 20.914C127.651 20.914 127.404 20.823 127.205 20.641C127.006 20.4503 126.906 20.2163 126.906 19.939C126.906 19.6617 127.006 19.432 127.205 19.25C127.404 19.0593 127.651 18.964 127.946 18.964C128.241 18.964 128.488 19.055 128.687 19.237C128.886 19.4103 128.986 19.6313 128.986 19.9C128.986 20.186 128.886 20.4287 128.687 20.628C128.496 20.8187 128.249 20.914 127.946 20.914ZM137.229 19.354V29H135.669V28.103C135.4 28.4323 135.066 28.6793 134.668 28.844C134.278 29.0087 133.844 29.091 133.368 29.091C132.7 29.091 132.098 28.9437 131.561 28.649C131.032 28.3543 130.616 27.9383 130.313 27.401C130.009 26.855 129.858 26.231 129.858 25.529C129.858 24.827 130.009 24.2073 130.313 23.67C130.616 23.1327 131.032 22.7167 131.561 22.422C132.098 22.1273 132.7 21.98 133.368 21.98C133.827 21.98 134.247 22.058 134.629 22.214C135.01 22.37 135.335 22.604 135.604 22.916V19.354H137.229ZM133.563 27.7C133.953 27.7 134.304 27.6133 134.616 27.44C134.928 27.258 135.175 27.0023 135.357 26.673C135.539 26.3437 135.63 25.9623 135.63 25.529C135.63 25.0957 135.539 24.7143 135.357 24.385C135.175 24.0557 134.928 23.8043 134.616 23.631C134.304 23.449 133.953 23.358 133.563 23.358C133.173 23.358 132.822 23.449 132.51 23.631C132.198 23.8043 131.951 24.0557 131.769 24.385C131.587 24.7143 131.496 25.0957 131.496 25.529C131.496 25.9623 131.587 26.3437 131.769 26.673C131.951 27.0023 132.198 27.258 132.51 27.44C132.822 27.6133 133.173 27.7 133.563 27.7ZM144.039 21.33H141.023V19.9H148.745V21.33H145.729V29H144.039V21.33ZM157.752 19.9L153.787 29H152.123L148.145 19.9H149.978L153.007 26.92L156.062 19.9H157.752Z" fill="#00F9FF"/>
<g clip-path="url(#clip0)">
<path d="M50.0855 20.3376C49.1193 20.3376 48.3359 21.121 48.3359 22.0872V30.252C48.3359 31.2182 49.1193 32.0016 50.0855 32.0016C51.0518 32.0016 51.8351 31.2182 51.8351 30.252V22.0872C51.8351 21.121 51.0518 20.3376 50.0855 20.3376Z" fill="#00F9FF"/>
<path d="M69.9146 20.3376C68.9484 20.3376 68.165 21.121 68.165 22.0872V30.252C68.165 31.2182 68.9484 32.0016 69.9146 32.0016C70.8809 32.0016 71.6642 31.2182 71.6642 30.252V22.0872C71.6642 21.121 70.8809 20.3376 69.9146 20.3376Z" fill="#00F9FF"/>
<path d="M66.4145 20.3376H53.5842C53.2621 20.3376 53.001 20.5988 53.001 20.9209V30.252C53.0007 31.6379 53.9759 32.8325 55.3338 33.1097V37.2503C55.3338 38.2166 56.1171 38.9999 57.0834 38.9999C58.0496 38.9999 58.833 38.2166 58.833 37.2503V33.1679H61.1658V37.2503C61.1658 38.2166 61.9491 38.9999 62.9154 38.9999C63.8816 38.9999 64.6649 38.2166 64.6649 37.2503V33.1097C66.0228 32.8325 66.998 31.6379 66.9977 30.252V20.9209C66.9977 20.5988 66.7366 20.3376 66.4145 20.3376Z" fill="#00F9FF"/>
<path d="M64.2393 13.4233L65.6611 12.0027C65.8927 11.7789 65.8991 11.4097 65.6754 11.178C65.4516 10.9464 65.0825 10.94 64.8508 11.1637C64.8459 11.1684 64.8411 11.1732 64.8364 11.178L63.1802 12.8343C61.1516 11.9531 58.8484 11.9531 56.8198 12.8343L55.1636 11.1769C54.9319 10.9531 54.5627 10.9595 54.3389 11.1912C54.1206 11.4172 54.1206 11.7755 54.3389 12.0015L55.7596 13.4233C54.0276 14.5693 52.9903 16.5114 53.0011 18.5881C53.0011 18.9102 53.2622 19.1713 53.5843 19.1713H66.4146C66.7367 19.1713 66.9978 18.9102 66.9978 18.5881C67.0085 16.5114 65.9712 14.5693 64.2393 13.4233Z" fill="#00F9FF"/>
<path d="M57.0842 16.8385C57.4063 16.8385 57.6674 16.5774 57.6674 16.2553C57.6674 15.9332 57.4063 15.6721 57.0842 15.6721C56.7621 15.6721 56.501 15.9332 56.501 16.2553C56.501 16.5774 56.7621 16.8385 57.0842 16.8385Z" fill="#2B4552"/>
<path d="M62.9162 16.8385C63.2383 16.8385 63.4994 16.5774 63.4994 16.2553C63.4994 15.9332 63.2383 15.6721 62.9162 15.6721C62.5941 15.6721 62.333 15.9332 62.333 16.2553C62.333 16.5774 62.5941 16.8385 62.9162 16.8385Z" fill="#2B4552"/>
</g>
<defs>
<clipPath id="clip0">
<rect width="28" height="28" fill="white" transform="translate(46 11)"/>
</clipPath>
</defs>
</svg>
