<svg width="34" height="56" viewBox="0 0 34 56" 
    xmlns="http://www.w3.org/2000/svg">
    <path 
        fill-rule="evenodd" 
        clip-rule="evenodd" 
        d="M0.323547 0H1.32003H32.68H33.8412V3.70709H30.9999V14.8497C30.9999 17.5996 29.32 20.8998 27.08 22.5496L20.5466 27.6831L27.08 32.8165C29.32 34.4666 30.9999 37.7664 30.9999 40.5164V51.1579H33.8412V55.0132H0.323547V51.1579H2.99999V40.5167C2.99999 37.7668 4.67995 34.4666 6.91989 32.8168L13.4533 27.6834L6.91989 22.5499C4.67995 20.8998 2.99999 17.6001 2.99999 14.85V3.70709H0.323547V0ZM8.66774 51.1579H6.73328V40.5164C6.73328 38.8663 7.85325 36.6665 9.15984 35.7499L16.44 30.0666C16.768 29.8517 16.9672 29.5738 17.0765 29.2702C17.2127 29.5019 17.386 29.7126 17.5598 29.8833L24.8399 35.7499C26.1466 36.6665 27.2665 38.8665 27.2665 40.5164V51.1579H25.0542L17.0824 38.1089L8.66774 51.1579ZM27.2668 3.70709H6.73343V14.85C6.73343 16.5 7.85325 18.6999 9.15999 19.6166L16.4403 25.4831C16.614 25.6538 16.7874 25.8645 16.9236 26.0963C17.0329 25.7925 17.232 25.5146 17.5601 25.2997L24.8402 19.6164C26.1468 18.6998 27.2668 16.3164 27.2668 14.8499V3.70709ZM17.0069 24.3185L8.85396 16.9785L25.6128 16.9785L17.0069 24.3185Z" 
        fill="#374752"/>
</svg>
