<svg width="65" height="19" viewBox="0 0 65 19" fill="none" xmlns="http://www.w3.org/2000/svg">
<path d="M14.5904 11.8606H6.27403L8.67025 5.66168L10.2057 9.64348L14.2966 11.0899L10.3774 0.921539H6.91551L0 18.8531H3.53846L5.00764 15.1564H12.3391L13.7441 18.8531H17.2846L14.5904 11.8606Z" fill="white"/>
<path d="M26.2756 1.04552L31.2336 14.5675L36.1667 0.921539H39.5479L32.9676 18.851H29.5016L26.2756 10.0609L23.0496 18.851H19.5815L13.0012 0.921539H16.3141L21.3259 14.5365L26.2756 1.04552Z" fill="white"/>
<path d="M52.2409 18.0555L51.2455 15.4622L50.8441 14.4291L49.857 11.8627H41.5448L43.9389 5.66375L45.4102 9.48644L49.5011 10.9329L45.644 0.921539H42.1821L35.2666 18.8531H38.8051L40.2742 15.1564H47.6057L48.3837 17.2L48.5513 17.6463C48.7215 17.9768 48.9701 18.2606 49.2756 18.4729C49.6462 18.7258 50.0847 18.8612 50.5337 18.8613H52.5595L52.2409 18.0555Z" fill="white"/>
<g style="mix-blend-mode:multiply">
<path d="M49.8571 11.8606L52.4768 18.7559L49.2756 18.4646C48.9888 18.2918 48.7564 18.0419 48.6052 17.7434C48.534 17.5954 48.4725 17.4428 48.421 17.2868C48.3424 17.0802 48.2679 16.8529 48.1438 16.5553C47.9575 16.109 47.8623 15.8135 47.7816 15.6069C47.5954 15.1233 47.6099 15.1564 47.6099 15.1564L49.8571 11.8606Z" fill="white"/>
</g>
<path d="M65 18.8531H61.1553L57.0064 12.5508L52.8886 18.8531H50.5338C50.0848 18.853 49.6463 18.7176 49.2756 18.4646L51.2456 15.4622L51.7174 14.7432L55.0903 9.60009L49.3998 0.921539H53.2445L57.0064 6.65971L60.7994 0.921539H64.6483L58.9329 9.60009L65 18.8531Z" fill="white"/>
<g style="mix-blend-mode:multiply" opacity="0.75">
<path d="M45.6544 0.921539L43.939 5.66168L45.4102 9.48437L48.3486 7.91397L45.6544 0.921539Z" fill="white"/>
</g>
<g style="mix-blend-mode:multiply" opacity="0.75">
<path d="M10.3589 0.921539L8.64136 5.66168L9.51459 7.91397H13.053L10.3589 0.921539Z" fill="white"/>
</g>
<path d="M26.2756 1.04568V10.061L29.5016 18.8512L31.2336 14.5677L26.2756 1.04568Z" fill="white"/>
<g style="mix-blend-mode:multiply" opacity="0.5">
<path d="M63.4935 0.921539H64.6482L60.9152 6.60392L58.9329 9.60215L63.4935 0.921539Z" fill="white"/>
</g>
<g style="mix-blend-mode:multiply" opacity="0.5">
<path d="M51.384 0.921539H53.2443L57.0062 6.65971L51.384 0.921539Z" fill="white"/>
</g>
<g style="mix-blend-mode:multiply" opacity="0.5">
<path d="M62.7672 18.851L61.1552 18.8531L57.0063 12.5508L62.7672 18.851Z" fill="white"/>
</g>
</svg>
