<svg width="65" height="18" viewBox="0 0 65 18" fill="none" xmlns="http://www.w3.org/2000/svg">
<path d="M14.5904 10.9547H6.27403L8.67025 4.74691L10.2057 8.7344L14.2966 10.1829L10.3774 0H6.91551L0 17.9571H3.53846L5.00764 14.2552H12.3391L13.7441 17.9571H17.2846L14.5904 10.9547Z" fill="#374752"/>
<path d="M26.2756 0.124156L31.2336 13.6655L36.1667 0H39.5479L32.9676 17.9551H29.5016L26.2756 9.15239L23.0496 17.9551H19.5815L13.0012 0H16.3141L21.3259 13.6344L26.2756 0.124156Z" fill="#374752"/>
<path d="M52.2409 17.1584L51.2455 14.5615L50.8441 13.5268L49.857 10.9568H41.5448L43.9389 4.74898L45.4102 8.57714L49.5011 10.0256L45.644 0H42.1821L35.2666 17.9571H38.8051L40.2742 14.2552H47.6057L48.3837 16.3017L48.5513 16.7487C48.7215 17.0797 48.9701 17.3638 49.2756 17.5764C49.6462 17.8297 50.0847 17.9653 50.5337 17.9654H52.5595L52.2409 17.1584Z" fill="#374752"/>
<path d="M49.8571 10.9547L52.4768 17.8599L49.2756 17.5681C48.9888 17.3951 48.7564 17.1448 48.6052 16.8459C48.534 16.6976 48.4725 16.5449 48.421 16.3886C48.3424 16.1817 48.2679 15.9541 48.1438 15.6561C47.9575 15.2091 47.8623 14.9132 47.7816 14.7063C47.5954 14.2221 47.6099 14.2552 47.6099 14.2552L49.8571 10.9547Z" fill="#374752"/>
<path d="M65 17.9571H61.1553L57.0064 11.6459L52.8886 17.9571H50.5338C50.0848 17.957 49.6463 17.8215 49.2756 17.5681L51.2456 14.5615L51.7174 13.8414L55.0903 8.69095L49.3998 0H53.2445L57.0064 5.74637L60.7994 0H64.6483L58.9329 8.69095L65 17.9571Z" fill="#374752"/>
<path opacity="0.75" d="M45.6544 0L43.939 4.74691L45.4102 8.57507L48.3486 7.00242L45.6544 0Z" fill="#374752"/>
<path opacity="0.75" d="M10.3589 0L8.64136 4.74691L9.51459 7.00242H13.053L10.3589 0Z" fill="#374752"/>
<path d="M26.2756 0.124146V9.15238L29.5016 17.9551L31.2336 13.6655L26.2756 0.124146Z" fill="#374752"/>
<path opacity="0.5" d="M63.4935 0H64.6482L60.9152 5.6905L58.9329 8.69302L63.4935 0Z" fill="#374752"/>
<path opacity="0.5" d="M51.384 0H53.2443L57.0062 5.74637L51.384 0Z" fill="#374752"/>
<path opacity="0.5" d="M62.7672 17.9551L61.1552 17.9572L57.0063 11.6459L62.7672 17.9551Z" fill="#374752"/>
</svg>
