<svg width="26" height="31" viewBox="0 0 26 31" fill="none" xmlns="http://www.w3.org/2000/svg">
<path d="M24.6943 6.64164L13.1108 0.633946C13.0266 0.589578 12.9322 0.566345 12.8364 0.566345C12.7406 0.566345 12.6463 0.589578 12.562 0.633946L1.29915 6.64484C1.20851 6.6933 1.13292 6.76458 1.08029 6.85122C1.02766 6.93786 0.999932 7.03668 1 7.13733V14.985C1.00313 18.142 1.95113 21.2298 3.72813 23.8709C5.50513 26.5119 8.03417 28.592 11.0061 29.8567L12.5719 30.52C12.6443 30.5506 12.7224 30.5663 12.8014 30.5663C12.8804 30.5663 12.9585 30.5506 13.0309 30.52L14.7928 29.7789C17.8173 28.5418 20.3993 26.4633 22.2151 23.8039C24.0309 21.1445 24.9997 18.0225 25 14.8294V7.13733C25 7.03549 24.9716 6.93555 24.9177 6.84824C24.8639 6.76092 24.7866 6.6895 24.6943 6.64164ZM23.8463 14.8294C23.8462 17.8024 22.9441 20.7092 21.2534 23.1852C19.5626 25.6612 17.1583 27.5961 14.342 28.7474H14.3379L12.8035 29.389L11.4709 28.8228C8.70493 27.6453 6.35126 25.7091 4.6975 23.2508C3.04375 20.7925 2.16153 17.9186 2.15867 14.9802V7.4702L12.843 1.77132L23.8463 7.47421V14.8294Z" fill="#374752" stroke="#374752" stroke-width="0.25"/>
<path d="M7 20.8612H9.71905L10.4781 18.987H15.9837L16.7109 20.8612H19.3523L17.9935 17.3784L17.6719 16.5615H11.4282L13.2274 11.9978L14.1946 14.3808L17.2679 15.4495L14.5108 8.50891H11.9106L8.42012 17.3806L7 20.8612Z" stroke="#374752" stroke-width="1.2" stroke-linecap="round" stroke-linejoin="round"/>
</svg>
