<svg width="26" height="31" viewBox="0 0 26 31" fill="none" xmlns="http://www.w3.org/2000/svg">
<path d="M24.6943 6.64164L13.1108 0.633946C13.0266 0.589578 12.9322 0.566345 12.8364 0.566345C12.7406 0.566345 12.6463 0.589578 12.562 0.633946L1.29915 6.64484C1.20851 6.6933 1.13292 6.76458 1.08029 6.85122C1.02766 6.93786 0.999932 7.03668 1 7.13733V14.985C1.00313 18.142 1.95113 21.2298 3.72813 23.8709C5.50513 26.5119 8.03417 28.592 11.0061 29.8567L12.5719 30.52C12.6443 30.5506 12.7224 30.5663 12.8014 30.5663C12.8804 30.5663 12.9585 30.5506 13.0309 30.52L14.7928 29.7789C17.8173 28.5418 20.3993 26.4633 22.2151 23.8039C24.0309 21.1445 24.9997 18.0225 25 14.8294V7.13733C25 7.03549 24.9716 6.93555 24.9177 6.84824C24.8639 6.76092 24.7866 6.6895 24.6943 6.64164ZM23.8463 14.8294C23.8462 17.8024 22.9441 20.7092 21.2534 23.1852C19.5626 25.6612 17.1583 27.5961 14.342 28.7474H14.3379L12.8035 29.389L11.4709 28.8228C8.70493 27.6453 6.35126 25.7091 4.6975 23.2508C3.04375 20.7925 2.16153 17.9186 2.15867 14.9802V7.4702L12.843 1.77132L23.8463 7.47421V14.8294Z" fill="#374752" stroke="#374752" stroke-width="0.25"/>
<path d="M19.6102 17.8692C20.1299 16.378 20.1299 14.7547 19.6102 13.2635C19.6043 13.2418 19.5968 13.2206 19.5877 13.2C19.1003 11.8433 18.206 10.6701 17.0269 9.84076C15.8478 9.01142 14.4415 8.56635 13 8.56635C11.5585 8.56635 10.1522 9.01142 8.97307 9.84076C7.79399 10.6701 6.89966 11.8433 6.41227 13.2C6.40319 13.2206 6.39569 13.2418 6.38984 13.2635C5.87005 14.7547 5.87005 16.378 6.38984 17.8692C6.39569 17.8909 6.40319 17.9121 6.41227 17.9327C6.89966 19.2894 7.79399 20.4626 8.97307 21.2919C10.1522 22.1213 11.5585 22.5663 13 22.5663C14.4415 22.5663 15.8478 22.1213 17.0269 21.2919C18.206 20.4626 19.1003 19.2894 19.5877 17.9327C19.5968 17.9121 19.6043 17.8909 19.6102 17.8692ZM12.9969 21.5614C12.7301 21.5614 12.3008 21.0787 11.9411 20.0012C11.7552 19.4248 11.6171 18.8341 11.5281 18.2351H14.4673C14.3784 18.8352 14.2403 19.4269 14.0543 20.0043C13.693 21.0811 13.2676 21.5614 12.9969 21.5614ZM11.4059 17.2295C11.3579 16.6942 11.3285 16.1365 11.3285 15.5648C11.3285 14.9931 11.354 14.4354 11.4059 13.9001H14.5872C14.6359 14.4354 14.6645 14.9931 14.6645 15.5648C14.6645 16.1365 14.639 16.6942 14.5872 17.2295H11.4059ZM7.00244 15.5663C7.00154 15.0038 7.07965 14.444 7.23448 13.9032H10.3988C10.3524 14.4493 10.3284 15.0094 10.3284 15.5679C10.3284 16.1264 10.3524 16.6865 10.3988 17.2326H7.23448C7.07936 16.6908 7.00125 16.1299 7.00244 15.5663ZM12.9969 9.57125C13.2638 9.57125 13.693 10.054 14.0527 11.1323C14.2387 11.7084 14.3768 12.2988 14.4657 12.8976H11.5265C11.6153 12.2977 11.7534 11.7063 11.9396 11.1292C12.3008 10.0516 12.7301 9.57125 12.9969 9.57125ZM15.5943 13.9032H18.7593C19.0723 14.9899 19.0723 16.1428 18.7593 17.2295H15.5943C15.6407 16.6834 15.6646 16.1233 15.6646 15.5648C15.6646 15.0063 15.6407 14.4447 15.5943 13.9032ZM18.3664 12.8976H15.479C15.3003 11.6668 14.994 10.5622 14.5647 9.77702C15.3823 10.0004 16.1435 10.3937 16.7986 10.9315C17.4537 11.4692 17.988 12.1392 18.3664 12.8976ZM11.4291 9.77702C10.9998 10.5622 10.6935 11.6668 10.5148 12.8976H7.62741C8.00595 12.1393 8.54023 11.4695 9.19532 10.9319C9.85042 10.3943 10.6116 10.001 11.4291 9.77779V9.77702ZM7.62741 18.2351H10.5148C10.6935 19.4659 10.9998 20.5705 11.4291 21.3557C10.6115 21.1323 9.85031 20.7389 9.1952 20.2012C8.5401 19.6635 8.00586 18.9935 7.62741 18.2351ZM14.5647 21.3557C14.994 20.5705 15.3003 19.4659 15.479 18.2351H18.3664C17.9879 18.9934 17.4536 19.6632 16.7985 20.2008C16.1434 20.7384 15.3822 21.1316 14.5647 21.3549V21.3557Z" fill="#374752" stroke="#374752" stroke-width="0.2"/>
</svg>
