<svg width="26" height="31" viewBox="0 0 26 31" fill="none" xmlns="http://www.w3.org/2000/svg">
<path d="M17.6865 11.3998C16.5041 10.2175 14.9321 9.56635 13.26 9.56635C11.5879 9.56635 10.0158 10.2175 8.8335 11.3998C7.65114 12.5822 7 14.1542 7 15.8263C7 17.4985 7.65114 19.0705 8.8335 20.2528C10.0159 21.4352 11.5879 22.0863 13.26 22.0863C14.9321 22.0863 16.5041 21.4352 17.6865 20.2528C18.8688 19.0705 19.52 17.4985 19.52 15.8263C19.52 14.1542 18.8688 12.5822 17.6865 11.3998ZM13.26 21.3528C10.2127 21.3528 7.73359 18.8736 7.73359 15.8263C7.73359 12.7791 10.2127 10.2999 13.26 10.2999C16.3073 10.2999 18.7864 12.7791 18.7864 15.8263C18.7864 18.8736 16.3073 21.3528 13.26 21.3528Z" fill="#374752" stroke="#374752" stroke-width="0.5"/>
<path d="M16.2508 13.8177C16.1076 13.6745 15.8753 13.6745 15.7321 13.8178L12.4931 17.0568L10.788 15.3518C10.6448 15.2085 10.4125 15.2085 10.2693 15.3518C10.1261 15.495 10.1261 15.7272 10.2693 15.8705L12.2337 17.8349C12.3053 17.9065 12.3992 17.9423 12.493 17.9423C12.5869 17.9423 12.6808 17.9065 12.7524 17.8349L16.2508 14.3365C16.3941 14.1932 16.3941 13.961 16.2508 13.8177Z" fill="#374752" stroke="#374752" stroke-width="0.5"/>
<path d="M24.6943 6.64164L13.1108 0.633946C13.0266 0.589578 12.9322 0.566345 12.8364 0.566345C12.7406 0.566345 12.6463 0.589578 12.562 0.633946L1.29915 6.64484C1.20851 6.6933 1.13292 6.76458 1.08029 6.85122C1.02766 6.93786 0.999932 7.03668 1 7.13733V14.985C1.00313 18.142 1.95113 21.2298 3.72813 23.8709C5.50513 26.5119 8.03417 28.592 11.0061 29.8567L12.5719 30.52C12.6443 30.5506 12.7224 30.5663 12.8014 30.5663C12.8804 30.5663 12.9585 30.5506 13.0309 30.52L14.7928 29.7789C17.8173 28.5418 20.3993 26.4633 22.2151 23.8039C24.0309 21.1445 24.9997 18.0225 25 14.8294V7.13733C25 7.03549 24.9716 6.93555 24.9177 6.84824C24.8639 6.76092 24.7866 6.6895 24.6943 6.64164ZM23.8463 14.8294C23.8462 17.8024 22.9441 20.7092 21.2534 23.1852C19.5626 25.6612 17.1583 27.5961 14.342 28.7474H14.3379L12.8035 29.389L11.4709 28.8228C8.70493 27.6453 6.35126 25.7091 4.6975 23.2508C3.04375 20.7925 2.16153 17.9186 2.15867 14.9802V7.4702L12.843 1.77132L23.8463 7.47421V14.8294Z" fill="#374752" stroke="#374752" stroke-width="0.25"/>
</svg>
