<svg width="33" height="38" viewBox="0 0 33 38" fill="none" xmlns="http://www.w3.org/2000/svg">
<path d="M29.4188 13.003C29.155 12.8387 28.8368 12.7858 28.534 12.8561C28.2312 12.9264 27.9688 13.1141 27.8044 13.3778C27.64 13.6416 27.5872 13.9599 27.6575 14.2627C27.7277 14.5654 27.9154 14.8279 28.1792 14.9923C28.8033 15.3814 29.3181 15.923 29.675 16.5661C30.0319 17.2092 30.2192 17.9326 30.2192 18.6681C30.2192 19.4036 30.0319 20.127 29.675 20.7701C29.3181 21.4132 28.8033 21.9549 28.1792 22.344L8.96828 34.3242C8.31231 34.733 7.55896 34.9588 6.78632 34.9784C6.01368 34.998 5.24985 34.8106 4.57401 34.4356C3.89817 34.0607 3.3349 33.5118 2.94257 32.8459C2.55025 32.18 2.34315 31.4213 2.34274 30.6484V6.68789C2.34315 5.915 2.55025 5.15628 2.94257 4.49037C3.3349 3.82445 3.89817 3.27557 4.57401 2.90061C5.24985 2.52565 6.01368 2.33826 6.78632 2.35785C7.55896 2.37744 8.31231 2.6033 8.96828 3.01203L20.152 9.98504C20.282 10.0791 20.43 10.1455 20.5867 10.1801C20.7434 10.2146 20.9055 10.2166 21.063 10.1859C21.2205 10.1551 21.37 10.0924 21.5023 10.0015C21.6345 9.91059 21.7467 9.79349 21.8318 9.65745C21.9169 9.52141 21.9731 9.36933 21.997 9.21065C22.0209 9.05197 22.012 8.89007 21.9707 8.735C21.9294 8.57993 21.8567 8.43499 21.7571 8.30918C21.6575 8.18337 21.5331 8.07937 21.3917 8.00363L10.2079 1.02476C9.20031 0.386168 8.03842 0.032765 6.84592 0.00217035C5.65341 -0.0284243 4.47493 0.264935 3.43594 0.851016C2.38893 1.42227 1.51646 2.26679 0.911434 3.29465C0.306407 4.32251 -0.00852206 5.49522 0.000184328 6.68789V30.6484C-0.00873377 31.8411 0.306106 33.0139 0.911155 34.0418C1.5162 35.0697 2.38879 35.9142 3.43594 36.4852C4.4753 37.0704 5.65379 37.3631 6.84616 37.3321C8.03854 37.3012 9.20026 36.9478 10.2079 36.3095L29.4188 24.3293C30.3789 23.7291 31.1706 22.8947 31.7194 21.9043C32.2682 20.914 32.5562 19.8004 32.5562 18.6681C32.5562 17.5359 32.2682 16.4222 31.7194 15.4319C31.1706 14.4416 30.3789 13.6071 29.4188 13.0069V13.003Z" fill="#DB1C5D"/>
</svg>
