<svg width="128" height="63" viewBox="0 0 128 63" fill="none" xmlns="http://www.w3.org/2000/svg">
<path d="M19.3832 17.7905C19.3832 19.9015 19.0182 21.7559 18.2883 23.3539C17.5583 24.9421 16.5127 26.1653 15.1515 27.0234C13.8001 27.8718 12.2415 28.2959 10.4758 28.2959C8.72984 28.2959 7.1713 27.8718 5.80017 27.0234C4.4389 26.1653 3.38343 24.947 2.63375 23.3687C1.89393 21.7905 1.51909 19.9705 1.50923 17.9089V16.6956C1.50923 14.5945 1.87914 12.74 2.61895 11.1322C3.36863 9.5243 4.41918 8.2962 5.77057 7.44788C7.13184 6.58969 8.69039 6.16059 10.4462 6.16059C12.2021 6.16059 13.7557 6.58476 15.1071 7.43308C16.4683 8.27154 17.5189 9.48484 18.2587 11.073C18.9985 12.6513 19.3733 14.4909 19.3832 16.592V17.7905ZM15.6397 16.666C15.6397 14.2789 15.186 12.449 14.2785 11.1766C13.3808 9.90407 12.1034 9.26783 10.4462 9.26783C8.82849 9.26783 7.56093 9.90407 6.64356 11.1766C5.73605 12.4392 5.27243 14.2295 5.2527 16.5476V17.7905C5.2527 20.1579 5.71139 21.9878 6.62876 23.28C7.556 24.5722 8.83835 25.2183 10.4758 25.2183C12.133 25.2183 13.4055 24.587 14.2933 23.3244C15.1909 22.0617 15.6397 20.2171 15.6397 17.7905V16.666ZM36.7837 20.1579C36.7837 22.6339 36.2215 24.6116 35.0969 26.0913C33.9724 27.561 32.4632 28.2959 30.5693 28.2959C28.8134 28.2959 27.4078 27.7189 26.3523 26.5648V34.1553H22.7568V11.9904H26.0712L26.2191 13.618C27.2746 12.3356 28.7098 11.6944 30.5249 11.6944C32.478 11.6944 34.0069 12.4244 35.1117 13.8843C36.2264 15.3343 36.7837 17.3516 36.7837 19.936V20.1579ZM33.203 19.8472C33.203 18.2492 32.8824 16.9817 32.2412 16.0446C31.6099 15.1075 30.7024 14.6389 29.5187 14.6389C28.0489 14.6389 26.9935 15.2456 26.3523 16.4589V23.5611C27.0033 24.804 28.0687 25.4254 29.5483 25.4254C30.6926 25.4254 31.5853 24.9667 32.2264 24.0494C32.8775 23.1221 33.203 21.7214 33.203 19.8472ZM46.8896 28.2959C44.611 28.2959 42.7614 27.5808 41.341 26.1505C39.9304 24.7103 39.2251 22.7966 39.2251 20.4095V19.9656C39.2251 18.3676 39.5309 16.9422 40.1425 15.6894C40.7639 14.4268 41.632 13.4453 42.7466 12.745C43.8613 12.0446 45.1042 11.6944 46.4753 11.6944C48.6553 11.6944 50.3372 12.3899 51.5209 13.7807C52.7144 15.1716 53.3112 17.1395 53.3112 19.6845V21.1345H42.8502C42.9587 22.4563 43.3977 23.5019 44.1671 24.2713C44.9464 25.0407 45.9229 25.4254 47.0968 25.4254C48.7441 25.4254 50.0856 24.7596 51.1214 23.4279L53.0597 25.2775C52.4185 26.2343 51.5603 26.9791 50.4851 27.5117C49.4198 28.0345 48.2213 28.2959 46.8896 28.2959ZM46.4605 14.5797C45.4741 14.5797 44.6751 14.925 44.0635 15.6155C43.4618 16.306 43.0771 17.2677 42.9094 18.5007H49.7601V18.2344C49.6812 17.031 49.3606 16.1235 48.7983 15.5119C48.2361 14.8904 47.4568 14.5797 46.4605 14.5797ZM59.4517 11.9904L59.5553 13.8399C60.739 12.4096 62.2926 11.6944 64.2161 11.6944C67.5502 11.6944 69.2469 13.6032 69.3061 17.4206V28H65.7106V17.6278C65.7106 16.6117 65.4886 15.8621 65.0447 15.3787C64.6107 14.8855 63.8956 14.6389 62.8993 14.6389C61.4492 14.6389 60.3691 15.2949 59.6589 16.6068V28H56.0634V11.9904H59.4517Z" fill="white"/>
<path d="M122.563 25.8666L96.0224 10.544L88.7256 6.32492C87.3727 5.54468 85.8383 5.1341 84.2765 5.1344C82.7148 5.1347 81.1806 5.54586 79.828 6.32661C78.4754 7.10736 77.352 8.23021 76.5706 9.58244C75.7892 10.9347 75.3773 12.4687 75.3762 14.0304V53.1139C75.3801 55.474 76.3184 57.7366 77.9859 59.4068C79.6534 61.0771 81.9144 62.0191 84.2745 62.0269C85.8382 62.0233 87.3733 61.6081 88.7256 60.823L94.5756 57.4434L102.631 52.7936L122.574 41.2776C123.926 40.4966 125.049 39.3733 125.83 38.0207C126.611 36.6681 127.022 35.1339 127.022 33.5721C127.022 32.0104 126.611 30.4761 125.83 29.1236C125.049 27.771 123.926 26.6477 122.574 25.8666H122.563ZM118.999 35.1037L97.646 47.4185L94.8075 49.0605L85.1287 54.6454C84.8599 54.8005 84.5551 54.8822 84.2448 54.8821C83.9345 54.8821 83.6297 54.8003 83.361 54.6451C83.0924 54.4899 82.8693 54.2666 82.7143 53.9978C82.5593 53.729 82.4777 53.4241 82.4779 53.1139V14.0304C82.4747 13.7194 82.555 13.4133 82.7104 13.1439C82.8658 12.8745 83.0907 12.6517 83.3615 12.4989C83.6341 12.3429 83.9421 12.2593 84.2561 12.2559C84.5634 12.258 84.8646 12.3419 85.1287 12.4989L95.7536 18.6324L118.981 32.0406C119.249 32.1963 119.471 32.4197 119.626 32.6885C119.781 32.9573 119.862 33.262 119.862 33.5721C119.862 33.8823 119.781 34.187 119.626 34.4558C119.471 34.7246 119.249 34.948 118.981 35.1037H118.999Z" fill="url(#paint0_linear)"/>
<path d="M102.62 52.7936L88.7256 60.823C87.375 61.6102 85.8397 62.0249 84.2764 62.0249C82.7132 62.0249 81.1779 61.6102 79.8273 60.823C78.4677 60.049 77.3387 58.9268 76.5565 57.572C75.7742 56.2171 75.3668 54.6783 75.3763 53.1138V23.2233L82.5074 30.9545V53.1102C82.5072 53.4205 82.5887 53.7253 82.7438 53.9941C82.8988 54.2629 83.1218 54.4862 83.3905 54.6414C83.6592 54.7966 83.964 54.8784 84.2743 54.8784C84.5846 54.8785 84.8894 54.7968 85.1582 54.6417L97.6755 47.4148L102.62 52.7936Z" fill="url(#paint1_linear)"/>
<path d="M127.014 33.5721C127.024 35.1357 126.617 36.6738 125.835 38.0281C125.054 39.3823 123.925 40.504 122.566 41.2776L102.62 52.7935L94.5645 57.4433L94.8259 49.0604L97.6644 47.4184L119.017 35.1036C119.286 34.9479 119.508 34.7245 119.663 34.4557C119.818 34.187 119.899 33.8822 119.899 33.5721C119.899 33.2619 119.818 32.9572 119.663 32.6885C119.508 32.4197 119.286 32.1963 119.017 32.0406L95.7721 18.6323L96.0224 10.5329L122.563 25.8555C123.924 26.6296 125.054 27.7528 125.836 29.1092C126.619 30.4656 127.025 32.0062 127.014 33.5721Z" fill="url(#paint2_linear)"/>
<path d="M10.9269 36.926H17.6642V33.9402H0.474976V36.926H7.20855V40.464L10.9269 41.1414V36.926Z" fill="url(#paint3_linear)"/>
<path d="M32.891 39.6651H29.1726V44.4622L32.891 45.1396V39.6651Z" fill="url(#paint4_linear)"/>
<path d="M22.6526 39.6651H18.949V42.5993L22.6526 43.273V39.6651Z" fill="url(#paint5_linear)"/>
<path d="M40.4972 44.4843C40.7933 43.8661 41.2497 43.3385 41.8189 42.9564C42.4407 42.57 43.1636 42.3777 43.8953 42.4042C44.4677 42.3721 45.0372 42.5049 45.5364 42.7868C46.0356 43.0687 46.4435 43.4879 46.7117 43.9946C47.3045 45.1828 47.6037 46.4958 47.5842 47.8234L51.321 48.5009V48.1916C51.321 45.5384 50.7577 43.4056 49.6311 41.7931C49.1046 41.0165 48.3888 40.3869 47.5514 39.9637C46.714 39.5405 45.7826 39.3377 44.8451 39.3743C43.9765 39.3473 43.1148 39.537 42.338 39.9265C41.6062 40.3152 40.9758 40.87 40.4972 41.5464V32.3609H36.7788V45.8575L40.4972 46.5239V44.4843Z" fill="url(#paint6_linear)"/>
<path d="M57.7636 49.0935L57.7931 49.0162H68.1272V46.8294C68.1272 44.5542 67.532 42.7404 66.3417 41.388C65.1513 40.0357 63.4406 39.3583 61.2096 39.3558C60.221 39.3325 59.2399 39.533 58.3397 39.9423C57.4395 40.3516 56.6435 40.9591 56.0112 41.7194C54.6269 43.3049 53.936 45.3028 53.9385 47.713V48.3241C53.9385 48.545 53.9385 48.7585 53.9606 48.9721L57.8299 49.6642C57.8004 49.4875 57.7747 49.296 57.7636 49.0935ZM58.9417 43.4387C59.2069 43.0899 59.5502 42.8082 59.9441 42.6164C60.338 42.4245 60.7715 42.3279 61.2096 42.3342C62.2883 42.3342 63.0982 42.6692 63.632 43.3319C64.1949 44.0697 64.4803 44.982 64.4383 45.909V46.2772H57.8704L57.8409 46.1998C57.9416 45.1944 58.3231 44.2376 58.9417 43.4387Z" fill="url(#paint7_linear)"/>
<path d="M10.9269 56.2247V41.1414L7.2085 40.464V56.2247H10.9269Z" fill="url(#paint8_linear)"/>
<path d="M10.9269 56.2247V41.1414L7.2085 40.464V56.2247H10.9269Z" fill="url(#paint9_linear)"/>
<path d="M20.4474 54.8479C21.4488 55.9818 22.8367 56.5487 24.6112 56.5487C25.5773 56.5679 26.53 56.3208 27.365 55.8345C28.1853 55.3384 28.8657 54.6416 29.342 53.8097L29.6476 56.2248H32.891V45.1396L29.1727 44.4622V51.6339C28.842 52.2299 28.3442 52.7162 27.7405 53.0328C27.0395 53.3771 26.2643 53.5428 25.4837 53.5151C25.086 53.5449 24.6868 53.4818 24.3175 53.3311C23.9483 53.1803 23.6191 52.9459 23.3558 52.6463C22.8882 52.0609 22.6526 51.0485 22.6526 49.5979V43.273L18.949 42.5993V49.5685C18.949 51.9541 19.4484 53.7139 20.4474 54.8479Z" fill="url(#paint10_linear)"/>
<path d="M20.4474 54.8479C21.4488 55.9818 22.8367 56.5487 24.6112 56.5487C25.5773 56.5679 26.53 56.3208 27.365 55.8345C28.1853 55.3384 28.8657 54.6416 29.342 53.8097L29.6476 56.2248H32.891V45.1396L29.1727 44.4622V51.6339C28.842 52.2299 28.3442 52.7162 27.7405 53.0328C27.0395 53.3771 26.2643 53.5428 25.4837 53.5151C25.086 53.5449 24.6868 53.4818 24.3175 53.3311C23.9483 53.1803 23.6191 52.9459 23.3558 52.6463C22.8882 52.0609 22.6526 51.0485 22.6526 49.5979V43.273L18.949 42.5993V49.5685C18.949 51.9541 19.4484 53.7139 20.4474 54.8479Z" fill="url(#paint11_linear)"/>
<path d="M39.9045 56.2248L40.2726 54.0821C40.7393 54.8495 41.3962 55.4836 42.1797 55.9229C43.007 56.359 43.9323 56.5757 44.8672 56.5524C46.9191 56.5524 48.5144 55.8161 49.6532 54.3435C50.792 52.8709 51.3553 50.9245 51.3431 48.5045L47.5842 47.8234C47.5842 47.9449 47.6026 48.0554 47.6026 48.1916V48.5119C47.6026 50.0508 47.3117 51.278 46.7301 52.1934C46.1484 53.0991 45.2133 53.5483 43.9284 53.5483C43.1865 53.5757 42.4525 53.3878 41.8152 53.0071C41.2419 52.627 40.7866 52.0938 40.5009 51.4682V46.5238L36.7788 45.8464V56.2248H39.9045Z" fill="url(#paint12_linear)"/>
<path d="M39.9045 56.2248L40.2726 54.0821C40.7393 54.8495 41.3962 55.4836 42.1797 55.9229C43.007 56.359 43.9323 56.5757 44.8672 56.5524C46.9191 56.5524 48.5144 55.8161 49.6532 54.3435C50.792 52.8709 51.3553 50.9245 51.3431 48.5045L47.5842 47.8234C47.5842 47.9449 47.6026 48.0554 47.6026 48.1916V48.5119C47.6026 50.0508 47.3117 51.278 46.7301 52.1934C46.1484 53.0991 45.2133 53.5483 43.9284 53.5483C43.1865 53.5757 42.4525 53.3878 41.8152 53.0071C41.2419 52.627 40.7866 52.0938 40.5009 51.4682V46.5238L36.7788 45.8464V56.2248H39.9045Z" fill="url(#paint13_linear)"/>
<path d="M61.6367 56.5487C62.8551 56.571 64.0677 56.3778 65.2189 55.9781C66.1245 55.6697 66.9647 55.1953 67.6966 54.5791L66.5037 52.1382C65.8681 52.5852 65.1728 52.9409 64.4384 53.1948C63.6055 53.4588 62.7347 53.5832 61.8613 53.563C61.3076 53.5913 60.7547 53.4934 60.2444 53.2765C59.7342 53.0597 59.2799 52.7296 58.916 52.3113C58.2965 51.5618 57.9123 50.6461 57.8116 49.6789L53.9423 48.9758C53.9906 50.9199 54.7218 52.785 56.0076 54.2441C57.4164 55.7805 59.2928 56.5487 61.6367 56.5487Z" fill="url(#paint14_linear)"/>
<path d="M61.6367 56.5487C62.8551 56.571 64.0677 56.3778 65.2189 55.9781C66.1245 55.6697 66.9647 55.1953 67.6966 54.5791L66.5037 52.1382C65.8681 52.5852 65.1728 52.9409 64.4384 53.1948C63.6055 53.4588 62.7347 53.5832 61.8613 53.563C61.3076 53.5913 60.7547 53.4934 60.2444 53.2765C59.7342 53.0597 59.2799 52.7296 58.916 52.3113C58.2965 51.5618 57.9123 50.6461 57.8116 49.6789L53.9423 48.9758C53.9906 50.9199 54.7218 52.785 56.0076 54.2441C57.4164 55.7805 59.2928 56.5487 61.6367 56.5487Z" fill="url(#paint15_linear)"/>
<defs>
<linearGradient id="paint0_linear" x1="99.5272" y1="25.0125" x2="86.1448" y2="34.7576" gradientUnits="userSpaceOnUse">
<stop stop-color="#DA1C5C"/>
<stop offset="1" stop-color="#9E1F63"/>
</linearGradient>
<linearGradient id="paint1_linear" x1="67.8254" y1="37.3052" x2="96.6373" y2="51.2583" gradientUnits="userSpaceOnUse">
<stop stop-color="#EE4168"/>
<stop offset="1" stop-color="#9E1F63"/>
</linearGradient>
<linearGradient id="paint2_linear" x1="9965.05" y1="2061.93" x2="8405.02" y2="6862.51" gradientUnits="userSpaceOnUse">
<stop stop-color="#DA1C5C"/>
<stop offset="1" stop-color="#9E1F63"/>
</linearGradient>
<linearGradient id="paint3_linear" x1="423.845" y1="1105.54" x2="423.845" y2="547.741" gradientUnits="userSpaceOnUse">
<stop stop-color="#DA1C5C"/>
<stop offset="1" stop-color="#9E1F63"/>
</linearGradient>
<linearGradient id="paint4_linear" x1="342.594" y1="854.322" x2="342.594" y2="430.269" gradientUnits="userSpaceOnUse">
<stop stop-color="#DA1C5C"/>
<stop offset="1" stop-color="#9E1F63"/>
</linearGradient>
<linearGradient id="paint5_linear" x1="228.205" y1="576.561" x2="228.205" y2="297.091" gradientUnits="userSpaceOnUse">
<stop stop-color="#DA1C5C"/>
<stop offset="1" stop-color="#9E1F63"/>
</linearGradient>
<linearGradient id="paint6_linear" x1="1776.75" y1="2434.15" x2="1776.75" y2="1183.95" gradientUnits="userSpaceOnUse">
<stop stop-color="#DA1C5C"/>
<stop offset="1" stop-color="#9E1F63"/>
</linearGradient>
<linearGradient id="paint7_linear" x1="2406.15" y1="1573.61" x2="2406.15" y2="774.985" gradientUnits="userSpaceOnUse">
<stop stop-color="#DA1C5C"/>
<stop offset="1" stop-color="#9E1F63"/>
</linearGradient>
<linearGradient id="paint8_linear" x1="98.7921" y1="2385.82" x2="98.7921" y2="1164.99" gradientUnits="userSpaceOnUse">
<stop stop-color="#DA1C5C"/>
<stop offset="1" stop-color="#9E1F63"/>
</linearGradient>
<linearGradient id="paint9_linear" x1="-951.479" y1="-600.599" x2="-386.037" y2="-862.286" gradientUnits="userSpaceOnUse">
<stop stop-color="#DA1C5C"/>
<stop offset="1" stop-color="#9E1F63"/>
</linearGradient>
<linearGradient id="paint10_linear" x1="1000.61" y1="2118.57" x2="1000.61" y2="1037.96" gradientUnits="userSpaceOnUse">
<stop stop-color="#DA1C5C"/>
<stop offset="1" stop-color="#9E1F63"/>
</linearGradient>
<linearGradient id="paint11_linear" x1="-3614.68" y1="-847.591" x2="-3176.46" y2="-1643.01" gradientUnits="userSpaceOnUse">
<stop stop-color="#DA1C5C"/>
<stop offset="1" stop-color="#9E1F63"/>
</linearGradient>
<linearGradient id="paint12_linear" x1="1779.41" y1="1639.26" x2="1779.41" y2="809.839" gradientUnits="userSpaceOnUse">
<stop stop-color="#DA1C5C"/>
<stop offset="1" stop-color="#9E1F63"/>
</linearGradient>
<linearGradient id="paint13_linear" x1="-3261.79" y1="-589.096" x2="-2969.67" y2="-1240.42" gradientUnits="userSpaceOnUse">
<stop stop-color="#DA1C5C"/>
<stop offset="1" stop-color="#9E1F63"/>
</linearGradient>
<linearGradient id="paint14_linear" x1="2326.57" y1="1176.17" x2="2326.57" y2="589.43" gradientUnits="userSpaceOnUse">
<stop stop-color="#DA1C5C"/>
<stop offset="1" stop-color="#9E1F63"/>
</linearGradient>
<linearGradient id="paint15_linear" x1="-2547.11" y1="-346.879" x2="-2365.72" y2="-825.064" gradientUnits="userSpaceOnUse">
<stop stop-color="#DA1C5C"/>
<stop offset="1" stop-color="#9E1F63"/>
</linearGradient>
</defs>
</svg>
