<svg width="21" height="51" viewBox="0 0 21 51" fill="none" xmlns="http://www.w3.org/2000/svg">
<rect x="11" y="39" width="1" height="39" transform="rotate(-180 11 39)" fill="white"/>
<path d="M3 40.5C3 36.3579 6.35787 33 10.5 33C14.6421 33 18 36.3579 18 40.5C18 44.6421 14.6421 48 10.5 48C6.35786 48 3 44.6421 3 40.5Z" stroke="#EB3171" stroke-opacity="0.35" stroke-width="6"/>
<path d="M10.5001 35.9616C7.99359 35.9616 5.96165 37.9935 5.96165 40.5C5.96165 43.0066 7.99359 45.0385 10.5001 45.0385C13.0066 45.0385 15.0386 43.0066 15.0386 40.5001C15.0386 37.9935 13.0066 35.9616 10.5001 35.9616Z" fill="#EC3271" stroke="white"/>
</svg>
