<svg width="555" height="716" viewBox="0 0 555 716" fill="none" xmlns="http://www.w3.org/2000/svg">
<g opacity="0.1">
<circle r="76.4653" transform="matrix(-0.901514 -0.43275 -0.43275 0.901514 -87.0879 102.987)" fill="#EED6CA"/>
<circle r="59.9323" transform="matrix(-0.901514 -0.43275 -0.43275 0.901514 65.1615 315.907)" fill="#C4C4C4"/>
<circle r="49.5991" transform="matrix(-0.901514 -0.43275 -0.43275 0.901514 -14.7291 319.967)" fill="#EED6CA"/>
<circle r="18.5997" transform="matrix(-0.901514 -0.43275 -0.43275 0.901514 231.501 255.918)" fill="#EED6CA"/>
<circle r="18.5997" transform="matrix(-0.901514 -0.43275 -0.43275 0.901514 447.022 465.97)" fill="#EED6CA"/>
<circle r="61.9989" transform="matrix(-0.901514 -0.43275 -0.43275 0.901514 336.952 375.309)" fill="#CDCAC6"/>
<circle r="36.166" transform="matrix(-0.901514 -0.43275 -0.43275 0.901514 66.983 486.419)" fill="#CDCAC6"/>
<circle r="38.2327" transform="matrix(-0.901514 -0.43275 -0.43275 0.901514 222.816 433.994)" fill="#EED6CA"/>
<circle r="76.4653" transform="matrix(-0.901514 -0.43275 -0.43275 0.901514 331.544 613.415)" fill="#CDCAC6"/>
</g>
</svg>
