<svg width="156" height="193" viewBox="0 0 156 193" fill="none" xmlns="http://www.w3.org/2000/svg">
<g opacity="0.1">
<circle r="20.5771" transform="matrix(-0.901514 -0.43275 -0.43275 0.901514 -17.0546 27.4552)" fill="#EED6CA"/>
<circle r="16.128" transform="matrix(-0.901514 -0.43275 -0.43275 0.901514 23.9162 84.7528)" fill="#C4C4C4"/>
<circle r="13.3473" transform="matrix(-0.901514 -0.43275 -0.43275 0.901514 2.41739 85.8452)" fill="#EED6CA"/>
<circle r="5.00523" transform="matrix(-0.901514 -0.43275 -0.43275 0.901514 68.6789 68.6095)" fill="#EED6CA"/>
<circle r="5.00523" transform="matrix(-0.901514 -0.43275 -0.43275 0.901514 126.676 125.135)" fill="#EED6CA"/>
<circle r="16.6841" transform="matrix(-0.901514 -0.43275 -0.43275 0.901514 97.0559 100.738)" fill="#CDCAC6"/>
<circle r="9.7324" transform="matrix(-0.901514 -0.43275 -0.43275 0.901514 24.4064 130.638)" fill="#CDCAC6"/>
<circle r="10.2885" transform="matrix(-0.901514 -0.43275 -0.43275 0.901514 66.3416 116.53)" fill="#EED6CA"/>
<circle r="20.5771" transform="matrix(-0.901514 -0.43275 -0.43275 0.901514 95.6007 164.813)" fill="#CDCAC6"/>
</g>
</svg>
