<svg width="316" height="391" viewBox="0 0 316 391" fill="none" xmlns="http://www.w3.org/2000/svg">
<g opacity="0.1">
<circle r="41.7477" transform="matrix(-0.901514 -0.43275 -0.43275 0.901514 -34.38 55.7025)" fill="#EED6CA"/>
<circle r="32.7211" transform="matrix(-0.901514 -0.43275 -0.43275 0.901514 48.7435 171.95)" fill="#C4C4C4"/>
<circle r="27.0796" transform="matrix(-0.901514 -0.43275 -0.43275 0.901514 5.12566 174.167)" fill="#EED6CA"/>
<circle r="10.1548" transform="matrix(-0.901514 -0.43275 -0.43275 0.901514 139.56 139.198)" fill="#EED6CA"/>
<circle r="10.1548" transform="matrix(-0.901514 -0.43275 -0.43275 0.901514 257.228 253.88)" fill="#EED6CA"/>
<circle r="33.8495" transform="matrix(-0.901514 -0.43275 -0.43275 0.901514 197.133 204.381)" fill="#CDCAC6"/>
<circle r="19.7455" transform="matrix(-0.901514 -0.43275 -0.43275 0.901514 49.7378 265.044)" fill="#CDCAC6"/>
<circle r="20.8738" transform="matrix(-0.901514 -0.43275 -0.43275 0.901514 134.818 236.422)" fill="#EED6CA"/>
<circle r="41.7477" transform="matrix(-0.901514 -0.43275 -0.43275 0.901514 194.18 334.38)" fill="#CDCAC6"/>
</g>
</svg>
