<svg width="24" height="30" viewBox="0 0 24 30" fill="none" xmlns="http://www.w3.org/2000/svg">
<path d="M21.7248 3.27277H21.4596V2.82103C21.4596 1.86769 20.6852 1.09199 19.7759 1.09199C19.7753 1.09199 19.7747 1.09199 19.7734 1.09199L3.91174 0C2.95713 0 2.18142 0.776341 2.18142 1.72968V3.27277H1.91689C0.860046 3.27277 0 4.13282 0 5.18967V7.63626C0 8.69311 0.860046 9.55315 1.91689 9.55315H1.97695L3.83251 28.2703C3.83251 29.2237 4.60821 30 5.56282 30H18.1082C18.3466 30 18.574 29.9514 18.7811 29.8645C19.4015 29.6045 19.8373 29.0007 19.8354 28.3329L21.6941 9.55251H21.7254C22.7823 9.55251 23.6423 8.69247 23.6423 7.63562V5.18967C23.6417 4.13282 22.7816 3.27277 21.7248 3.27277ZM3.45935 1.72968C3.45935 1.48048 3.6619 1.27793 3.86765 1.27665L19.7299 2.36864C19.9791 2.36864 20.1823 2.57119 20.1823 2.82103V3.27277H3.45935V1.72968ZM19.889 14.6348L16.4584 15.247C15.2974 13.8917 13.6361 13.1218 11.8419 13.1218C10.0471 13.1218 8.38577 13.8917 7.22477 15.2476L3.78139 14.6342L3.26319 9.55315H20.4079L19.889 14.6348ZM19.7772 15.953L19.2814 20.9727L15.9255 20.3548L15.6878 20.6705C14.7665 21.8954 13.3646 22.5982 11.8426 22.5982C10.3199 22.5982 8.91802 21.8954 7.99663 20.6705L7.75894 20.3555L4.3916 20.9734L3.89449 15.953L7.76022 16.6405L7.99663 16.3274C8.91802 15.1026 10.3199 14.3997 11.8426 14.3997C13.3646 14.3997 14.7665 15.1026 15.6878 16.3274L15.9243 16.6412L19.7772 15.953ZM18.1076 28.7221H5.56218C5.50084 28.7221 5.44206 28.7093 5.38838 28.685C5.22673 28.6122 5.1098 28.4384 5.10724 28.2071L5.09893 28.124L4.52578 22.2468L7.22604 21.7516C8.38704 23.1062 10.0477 23.8755 11.8419 23.8755C13.6355 23.8755 15.2962 23.1062 16.4572 21.7523L19.1453 22.2468L18.56 28.2703C18.5593 28.515 18.353 28.7221 18.1076 28.7221ZM22.3637 7.63626C22.3637 7.98897 22.0768 8.27522 21.7248 8.27522H1.91689C1.56482 8.27522 1.27793 7.98897 1.27793 7.63626V5.18967C1.27793 4.83696 1.56482 4.5507 1.91689 4.5507H2.18142H21.4596H21.7248C22.0768 4.5507 22.3637 4.83696 22.3637 5.18967V7.63626Z" fill="#72747C" fill-opacity="0.85"/>
<path d="M11.8207 15.3351C9.88272 15.3351 8.3064 16.7683 8.3064 18.53C8.3064 20.2916 9.88272 21.7248 11.8207 21.7248C13.7587 21.7248 15.335 20.2916 15.335 18.53C15.335 16.7683 13.758 15.3351 11.8207 15.3351ZM11.8207 20.4469C10.5875 20.4469 9.58432 19.5868 9.58432 18.53C9.58432 17.4731 10.5875 16.6131 11.8207 16.6131C13.0539 16.6131 14.0571 17.4731 14.0571 18.53C14.0571 19.5868 13.0533 20.4469 11.8207 20.4469Z" fill="#72747C" fill-opacity="0.85"/>
</svg>
