<svg width="31" height="31" viewBox="0 0 31 31" fill="none" xmlns="http://www.w3.org/2000/svg">
<g clip-path="url(#clip0)">
<path d="M17.3542 6.08395C18.0568 5.4434 18.5013 4.52383 18.5013 3.50026C18.5013 1.57062 16.9312 0 15.001 0C13.0709 0 11.5008 1.57062 11.5008 3.50026C11.5008 4.52383 11.9453 5.4434 12.6479 6.08395C10.5732 6.48398 9.00061 8.31111 9.00061 10.5008V12.5009C9.00061 12.7774 9.22463 13.001 9.50065 13.001H20.5015C20.7775 13.001 21.0015 12.7774 21.0015 12.5009V10.5008C21.0015 8.31111 19.4289 6.48398 17.3542 6.08395ZM12.5009 3.50026C12.5009 2.12166 13.6224 1.00007 15.001 1.00007C16.3797 1.00007 17.5012 2.12166 17.5012 3.50026C17.5012 4.87886 16.3797 6.00044 15.001 6.00044C13.6224 6.00044 12.5009 4.87886 12.5009 3.50026ZM20.0014 12.0009H10.0007V10.5008C10.0007 8.57113 11.5708 7.00051 13.5009 7.00051H16.5012C18.4313 7.00051 20.0014 8.57113 20.0014 10.5008V12.0009Z" fill="#72747C"/>
<path d="M8.35361 23.0852C9.05616 22.4446 9.5007 21.5251 9.5007 20.5015C9.5007 18.5719 7.93058 17.0013 6.00044 17.0013C4.0703 17.0013 2.50018 18.5719 2.50018 20.5015C2.50018 21.5251 2.94472 22.4446 3.64727 23.0852C1.57262 23.4852 0 25.3124 0 27.502V29.5022C0 29.7787 0.224016 30.0022 0.500037 30.0022H11.5008C11.7769 30.0022 12.0009 29.7787 12.0009 29.5022V27.502C12.0009 25.3124 10.4283 23.4852 8.35361 23.0852ZM3.50026 20.5015C3.50026 19.1229 4.62184 18.0013 6.00044 18.0013C7.37904 18.0013 8.50062 19.1229 8.50062 20.5015C8.50062 21.8801 7.37904 23.0017 6.00044 23.0017C4.62184 23.0017 3.50026 21.8801 3.50026 20.5015ZM11.0008 29.0021H1.00007V27.502C1.00007 25.5724 2.57019 24.0018 4.50033 24.0018H7.50055C9.43069 24.0018 11.0008 25.5724 11.0008 27.502V29.0021Z" fill="#72747C"/>
<path d="M26.3547 23.0852C27.0573 22.4446 27.5018 21.5251 27.5018 20.5015C27.5018 18.5719 25.9317 17.0013 24.0015 17.0013C22.0714 17.0013 20.5013 18.5719 20.5013 20.5015C20.5013 21.5251 20.9458 22.4446 21.6484 23.0852C19.5737 23.4852 18.0011 25.3124 18.0011 27.502V29.5022C18.0011 29.7787 18.2251 30.0022 18.5011 30.0022H29.5019C29.778 30.0022 30.002 29.7787 30.002 29.5022V27.502C30.002 25.3124 28.4294 23.4852 26.3547 23.0852ZM21.5014 20.5015C21.5014 19.1229 22.6229 18.0013 24.0015 18.0013C25.3801 18.0013 26.5017 19.1229 26.5017 20.5015C26.5017 21.8801 25.3801 23.0017 24.0015 23.0017C22.6229 23.0017 21.5014 21.8801 21.5014 20.5015ZM29.0019 29.0021H19.0012V27.502C19.0012 25.5724 20.5713 24.0018 22.5014 24.0018H25.5016C27.4318 24.0018 29.0019 25.5724 29.0019 27.502V29.0021Z" fill="#72747C"/>
<path d="M3.00982 15.9852L2.01074 16.0242C2.02424 16.3687 2.05175 16.7177 2.09275 17.0607L3.08582 16.9417C3.04782 16.6252 3.02232 16.3032 3.00982 15.9852Z" fill="#72747C"/>
<path d="M2.09225 13.9495C2.05175 14.2905 2.02374 14.6391 2.01074 14.9856L3.00982 15.0246C3.02232 14.7046 3.04782 14.3831 3.08532 14.0675L2.09225 13.9495Z" fill="#72747C"/>
<path d="M7.12004 5.15936C6.84652 5.36788 6.577 5.59089 6.31848 5.82291L6.98703 6.56696C7.22505 6.35295 7.47357 6.14693 7.72609 5.95492L7.12004 5.15936Z" fill="#72747C"/>
<path d="M3.23376 9.96573C3.08675 10.2783 2.95074 10.6003 2.82874 10.9248L3.7648 11.2763C3.87731 10.9773 4.00282 10.6803 4.13833 10.3928L3.23376 9.96573Z" fill="#72747C"/>
<path d="M2.50163 11.9124C2.40663 12.2429 2.32412 12.5834 2.25562 12.9225L3.23619 13.12C3.29919 12.8075 3.3752 12.4934 3.4632 12.1879L2.50163 11.9124Z" fill="#72747C"/>
<path d="M5.57386 6.54898C5.33434 6.801 5.10432 7.06352 4.88831 7.33004L5.66586 7.95909C5.86488 7.71307 6.07789 7.47005 6.29891 7.23753L5.57386 6.54898Z" fill="#72747C"/>
<path d="M8.86716 4.0358C8.56464 4.19731 8.26311 4.37482 7.97009 4.56334L8.51213 5.4044C8.78215 5.22988 9.06017 5.06637 9.33819 4.91786L8.86716 4.0358Z" fill="#72747C"/>
<path d="M4.26727 8.16309C4.07176 8.44861 3.88575 8.74463 3.71423 9.04415L4.5818 9.54118C4.73981 9.26516 4.91182 8.99164 5.09234 8.72863L4.26727 8.16309Z" fill="#72747C"/>
<path d="M12.6321 27.268L12.4346 28.2486C12.7711 28.3166 13.1171 28.3711 13.4626 28.4116L13.5787 27.4185C13.2611 27.381 12.9421 27.3305 12.6321 27.268Z" fill="#72747C"/>
<path d="M17.4016 27.262C17.091 27.325 16.7725 27.3765 16.4535 27.4155L16.574 28.4086C16.919 28.3666 17.2641 28.3106 17.6001 28.2426L17.4016 27.262Z" fill="#72747C"/>
<path d="M15.4979 27.492C15.1783 27.5045 14.8553 27.506 14.5378 27.4935L14.4983 28.4926C14.6648 28.4996 14.8328 28.5026 15.0028 28.5026C15.1818 28.5016 15.3604 28.4981 15.5379 28.4911L15.4979 27.492Z" fill="#72747C"/>
<path d="M23.6856 5.82693L23.0176 6.57099C23.2556 6.785 23.4866 7.01002 23.7051 7.24004L24.4312 6.55249C24.1942 6.30247 23.9436 6.05845 23.6856 5.82693Z" fill="#72747C"/>
<path d="M25.1158 7.33304L24.3383 7.96208C24.5378 8.2086 24.7308 8.46812 24.9118 8.73214L25.7364 8.1666C25.5403 7.88108 25.3318 7.60056 25.1158 7.33304Z" fill="#72747C"/>
<path d="M27.9916 14.9871L26.9926 15.0261C26.9991 15.1836 27.0021 15.3426 27.0021 15.5011C27.0021 15.6636 26.9991 15.8252 26.9926 15.9867L27.9916 16.0257C27.9986 15.8517 28.0021 15.6766 28.0021 15.5001C28.0021 15.3286 27.9986 15.1571 27.9916 14.9871Z" fill="#72747C"/>
<path d="M26.2899 9.04666L25.4219 9.5442C25.5804 9.82072 25.7294 10.1072 25.8654 10.3953L26.77 9.96823C26.623 9.65621 26.4614 9.34618 26.2899 9.04666Z" fill="#72747C"/>
<path d="M27.1745 10.9268L26.2384 11.2788C26.3504 11.5768 26.4514 11.8834 26.5394 12.1894L27.501 11.9139C27.406 11.5818 27.296 11.2498 27.1745 10.9268Z" fill="#72747C"/>
<path d="M27.7459 12.9244L26.7659 13.1215C26.8289 13.4345 26.8799 13.7535 26.9169 14.0695L27.91 13.9515C27.8695 13.6095 27.8144 13.264 27.7459 12.9244Z" fill="#72747C"/>
<path d="M22.0351 4.56534L21.4935 5.4064C21.7605 5.57841 22.0246 5.76393 22.2791 5.95844L22.8861 5.16288C22.6106 4.95237 22.3246 4.75185 22.0351 4.56534Z" fill="#72747C"/>
<path d="M20.2034 3.58325L19.8029 4.49932C20.0944 4.62683 20.3844 4.76784 20.6659 4.91885L21.139 4.03778C20.8344 3.87377 20.5194 3.72076 20.2034 3.58325Z" fill="#72747C"/>
</g>
<defs>
<clipPath id="clip0">
<rect width="30.0022" height="30.0022" fill="white"/>
</clipPath>
</defs>
</svg>
