<svg width="30" height="30" viewBox="0 0 30 30" fill="none" xmlns="http://www.w3.org/2000/svg">
<path d="M26.8602 22.8932C27.3024 22.3759 27.5702 21.7053 27.5702 20.9729V20.6561C27.5702 19.0235 26.242 17.6953 24.6094 17.6953C22.9768 17.6953 21.6486 19.0235 21.6486 20.6561V20.9729C21.6486 21.7053 21.9164 22.3759 22.3586 22.8932C21.2762 23.1718 20.3627 23.8742 19.8047 24.8119C19.2467 23.8742 18.3332 23.1718 17.2508 22.8932C17.693 22.3759 17.9608 21.7053 17.9608 20.9729V20.6561C17.9608 19.0235 16.6326 17.6953 15 17.6953C13.3674 17.6953 12.0392 19.0235 12.0392 20.6561V20.9729C12.0392 21.7053 12.307 22.3759 12.7492 22.8932C11.6668 23.1718 10.7533 23.8742 10.1953 24.8119C9.6373 23.8742 8.72383 23.1718 7.64145 22.8932C8.08365 22.3759 8.35144 21.7053 8.35144 20.9729V20.6561C8.35144 19.0235 7.02324 17.6953 5.39062 17.6953C3.75801 17.6953 2.42981 19.0235 2.42981 20.6561V20.9729C2.42981 21.7053 2.6976 22.3759 3.1398 22.8932C1.33644 23.3574 0 24.9971 0 26.9433V29.4141C0 29.7377 0.262299 30 0.585938 30H29.4141C29.7377 30 30 29.7377 30 29.4141V26.9433C30 24.9971 28.6636 23.3574 26.8602 22.8932ZM22.8204 20.6561C22.8204 19.6696 23.6229 18.8672 24.6094 18.8672C25.5959 18.8672 26.3983 19.6696 26.3983 20.6561V20.9729C26.3983 21.9594 25.5959 22.7618 24.6094 22.7618C23.6229 22.7618 22.8204 21.9594 22.8204 20.9729V20.6561ZM13.2111 20.6561C13.2111 19.6696 14.0135 18.8672 15 18.8672C15.9865 18.8672 16.7889 19.6696 16.7889 20.6561V20.9729C16.7889 21.9594 15.9865 22.7618 15 22.7618C14.0135 22.7618 13.2111 21.9594 13.2111 20.9729V20.6561ZM3.60168 20.6561C3.60168 19.6696 4.40414 18.8672 5.39062 18.8672C6.37711 18.8672 7.17957 19.6696 7.17957 20.6561V20.9729C7.17957 21.9594 6.37711 22.7618 5.39062 22.7618C4.40414 22.7618 3.60168 21.9594 3.60168 20.9729V20.6561ZM1.17188 26.9433C1.17188 25.2839 2.52182 23.9337 4.18144 23.9337H6.59981C8.2592 23.9337 9.60938 25.2839 9.60938 26.9433V28.8281H1.17188V26.9433ZM10.7812 26.9433C10.7812 25.2839 12.1312 23.9337 13.7908 23.9337H16.2092C17.8686 23.9337 19.2188 25.2839 19.2188 26.9433V28.8281H10.7812V26.9433ZM28.8281 28.8281H20.3906V26.9433C20.3906 25.2839 21.7406 23.9337 23.4002 23.9337H25.8186C27.478 23.9337 28.8281 25.2839 28.8281 26.9433V28.8281Z" fill="#72747C"/>
<path d="M4.53145 12.3657L4.52618 15.7886C4.52573 16.027 4.65619 16.2444 4.86081 16.3465C4.94092 16.3865 5.02675 16.4063 5.11189 16.4063C5.24487 16.4063 5.37648 16.3586 5.48314 16.2666L8.793 13.4163H12.4546L14.5494 16.1744C14.6638 16.3251 14.8394 16.4118 15.022 16.4058C15.2054 16.401 15.3759 16.3061 15.4828 16.1495L17.3509 13.4161H21.2302L24.525 16.2659C24.7001 16.4173 24.9424 16.4489 25.1473 16.347C25.3524 16.2451 25.4831 16.0279 25.4831 15.7895V12.3558C27.3015 11.1267 28.4178 8.99528 28.4178 6.70805C28.4178 3.00918 25.5577 0 22.0421 0H7.95758C4.44196 0 1.58185 3.00918 1.58185 6.70805C1.58185 9.00298 2.7036 11.1383 4.53145 12.3657ZM7.95758 1.23296H22.0421C24.9115 1.23296 27.2459 3.68923 27.2459 6.70805C27.2459 8.67451 26.2349 10.4999 24.6078 11.4725C24.4245 11.5818 24.3112 11.7865 24.3112 12.0083V14.4848L21.812 12.3235C21.7072 12.2327 21.5758 12.1831 21.4401 12.1831H17.0506C16.862 12.1831 16.6851 12.2787 16.575 12.4398L14.9826 14.7695L13.1944 12.4148C13.0832 12.2684 12.9147 12.1831 12.7366 12.1831H8.5838C8.44853 12.1831 8.31738 12.2325 8.21255 12.3226L5.70012 14.4865L5.70378 12.0184C5.70424 11.7954 5.59026 11.5898 5.40578 11.4805C3.76996 10.51 2.75372 8.68126 2.75372 6.70805C2.75372 3.68923 5.08809 1.23296 7.95758 1.23296Z" fill="#72747C"/>
<path d="M22.0425 3.51562H22.0622H22.0645C22.3869 3.51562 22.6492 3.25493 22.6504 2.93198C22.6518 2.60834 22.3904 2.34512 22.0667 2.34375H22.0425C21.7188 2.34375 21.4565 2.60605 21.4565 2.92969C21.4565 3.25333 21.7188 3.51562 22.0425 3.51562Z" fill="#72747C"/>
<path d="M23.921 4.22125C24.5447 4.76599 24.9025 5.55129 24.9025 6.37572C24.9025 7.15643 24.5923 7.88611 24.0293 8.43085C23.7967 8.65584 23.7906 9.02663 24.0153 9.2594C24.1304 9.37819 24.2833 9.43793 24.4367 9.43793C24.5834 9.43793 24.7301 9.38323 24.8439 9.27313C25.6374 8.50569 26.0743 7.47687 26.0743 6.37572C26.0743 5.21277 25.5703 4.10567 24.6919 3.33846C24.4481 3.1256 24.078 3.15077 23.8652 3.39453C23.6523 3.63829 23.6773 4.00839 23.921 4.22125Z" fill="#72747C"/>
<path d="M13.199 8.21869C13.928 8.8932 14.6478 9.38461 14.6781 9.40521C14.7774 9.47296 14.8925 9.50661 15.0076 9.50661C15.1225 9.50661 15.2377 9.47273 15.337 9.40521C15.3672 9.38461 16.0871 8.8932 16.816 8.21869C17.892 7.22351 18.4148 6.37299 18.4148 5.61905C18.4148 4.31007 17.4189 3.24509 16.1946 3.24509C15.7719 3.24509 15.3597 3.37532 15.0076 3.61313C14.6552 3.37532 14.2432 3.24509 13.8204 3.24509C12.5961 3.24509 11.6003 4.30984 11.6003 5.61905C11.6003 6.37299 12.123 7.22328 13.199 8.21869ZM13.8204 4.41696C14.1013 4.41696 14.3654 4.54353 14.5643 4.77356C14.6758 4.90219 14.8374 4.97612 15.0076 4.97612C15.1777 4.97612 15.3393 4.90219 15.4508 4.77356C15.6497 4.54353 15.9138 4.41696 16.1946 4.41696C16.7728 4.41696 17.2429 4.95621 17.2429 5.61905C17.2429 6.27457 16.0081 7.45674 15.0072 8.20129C14.0063 7.45766 12.7719 6.2764 12.7719 5.61905C12.7722 4.95621 13.2423 4.41696 13.8204 4.41696Z" fill="#72747C"/>
</svg>
