<svg width="25" height="31" viewBox="0 0 25 31" fill="none" xmlns="http://www.w3.org/2000/svg">
<path d="M12.5 30.1351C19.315 30.1045 24.8613 24.6437 24.9974 17.8302C25.1338 11.0167 19.8104 5.33814 13.0023 5.03503V0.502252C13.0023 0.224885 12.7774 0 12.5 0C12.2226 0 11.9977 0.224885 11.9977 0.502252V5.03503C5.18964 5.33814 -0.133792 11.0167 0.00256178 17.8302C0.138915 24.6437 5.68527 30.1045 12.5 30.1351ZM12.5 11.0495C12.7774 11.0495 13.0023 10.8247 13.0023 10.5473V10.1846C13.3961 10.4119 13.5881 10.8754 13.4704 11.3146C13.3527 11.7536 12.9547 12.0592 12.5 12.0592C12.0456 12.0592 11.6475 11.7536 11.5298 11.3146C11.4121 10.8754 11.6041 10.4119 11.9977 10.1846V10.5473C11.9977 10.8247 12.2226 11.0495 12.5 11.0495ZM11.9977 6.03953V9.1119C11.0183 9.36474 10.3797 10.3067 10.5072 11.3102C10.6345 12.3138 11.4884 13.0661 12.5 13.0661C13.5119 13.0661 14.3655 12.3138 14.4931 11.3102C14.6206 10.3067 13.982 9.36474 13.0023 9.1119V6.03953C19.2784 6.31273 24.1857 11.5511 24.0491 17.8317C23.9125 24.1123 18.7821 29.1323 12.5 29.1323C6.21817 29.1323 1.08775 24.1123 0.951151 17.8317C0.814552 11.5511 5.72181 6.31273 11.9977 6.03953Z" fill="#72747C"/>
<path d="M9.18517 25.012C9.40687 25.1786 9.72176 25.1337 9.88827 24.9117L15.9153 16.8757C16.0816 16.6538 16.0367 16.3389 15.8147 16.1726C15.5928 16.0061 15.2782 16.051 15.1116 16.2729L9.08462 24.3089C8.9181 24.5309 8.96323 24.8458 9.18517 25.012Z" fill="#72747C"/>
<path d="M9.98862 20.0901C11.0983 20.0901 11.9976 19.1905 11.9976 18.0811C11.9976 16.9716 11.0983 16.0721 9.98862 16.0721C8.87916 16.0721 7.97961 16.9716 7.97961 18.0811C7.97961 19.1905 8.87916 20.0901 9.98862 20.0901ZM9.98862 17.0766C10.5436 17.0766 10.9931 17.5263 10.9931 18.0811C10.9931 18.6358 10.5436 19.0856 9.98862 19.0856C9.43389 19.0856 8.98412 18.6358 8.98412 18.0811C8.98412 17.5263 9.43389 17.0766 9.98862 17.0766Z" fill="#72747C"/>
<path d="M13.002 23.1036C13.002 24.213 13.9015 25.1126 15.011 25.1126C16.1207 25.1126 17.02 24.213 17.02 23.1036C17.02 21.9941 16.1207 21.0946 15.011 21.0946C13.9015 21.0946 13.002 21.9941 13.002 23.1036ZM16.0155 23.1036C16.0155 23.6583 15.5659 24.1081 15.011 24.1081C14.4562 24.1081 14.0065 23.6583 14.0065 23.1036C14.0065 22.5488 14.4562 22.0991 15.011 22.0991C15.5659 22.0991 16.0155 22.5488 16.0155 23.1036Z" fill="#72747C"/>
</svg>
