<svg width="20" height="16" viewBox="0 0 20 16" fill="none" xmlns="http://www.w3.org/2000/svg">
<path d="M15.9979 12.3575C15.9196 12.3575 15.8412 12.3248 15.78 12.2588L12.114 8.34133C11.9859 8.20489 11.9795 7.97484 12.0999 7.82897C12.2204 7.68165 12.4211 7.67512 12.5504 7.813L16.2165 11.7305C16.3446 11.8669 16.3509 12.0969 16.2305 12.2428C16.1674 12.319 16.0833 12.3575 15.9979 12.3575Z" fill="#72747C"/>
<path d="M3.7603 12.3579C3.67556 12.3579 3.59081 12.3194 3.52774 12.2432C3.40732 12.0973 3.41369 11.8673 3.54175 11.7309L7.20918 7.8134C7.33788 7.67696 7.53986 7.68277 7.65964 7.82937C7.78006 7.97524 7.77369 8.20529 7.64562 8.34173L3.9782 12.2592C3.91703 12.3252 3.83867 12.3579 3.7603 12.3579Z" fill="#72747C"/>
<path d="M18.1661 16H1.59284C0.714868 16 0 15.1865 0 14.1857V1.81431C0 0.813535 0.714868 0 1.59284 0H18.1661C19.044 0 19.7589 0.813535 19.7589 1.81431V14.1857C19.7589 15.1865 19.044 16 18.1661 16ZM1.59284 0.725722C1.06593 0.725722 0.637138 1.21413 0.637138 1.81431V14.1857C0.637138 14.7859 1.06593 15.2743 1.59284 15.2743H18.1661C18.693 15.2743 19.1218 14.7859 19.1218 14.1857V1.81431C19.1218 1.21413 18.693 0.725722 18.1661 0.725722H1.59284Z" fill="#72747C"/>
<path d="M9.87942 9.8235C9.45572 9.8235 9.03203 9.66312 8.70963 9.34307L0.528759 1.21426C0.396234 1.0829 0.382217 0.853572 0.497539 0.701896C0.614136 0.550945 0.814835 0.537157 0.94736 0.667061L9.12823 8.79515C9.53537 9.19938 10.2235 9.19938 10.63 8.79515L18.8007 0.680124C18.9325 0.548768 19.1332 0.563283 19.2505 0.714959C19.3658 0.866635 19.3524 1.09524 19.2199 1.22732L11.0492 9.34235C10.7262 9.66311 10.3031 9.8235 9.87942 9.8235Z" fill="#72747C"/>
</svg>
