<svg width="19" height="19" viewBox="0 0 19 19" fill="none" xmlns="http://www.w3.org/2000/svg">
<path d="M18.8314 17.6912L14.2141 13.1609C15.4527 11.7638 16.2026 9.94094 16.2026 7.94862C16.2026 3.56303 12.5669 0 8.10131 0C3.63147 0 0 3.56716 0 7.94862C0 12.3301 3.63569 15.8972 8.10131 15.8972C10.1319 15.8972 11.9898 15.1615 13.4137 13.9462L18.031 18.4765C18.1405 18.584 18.288 18.6418 18.4312 18.6418C18.5744 18.6418 18.7219 18.5881 18.8314 18.4765C19.0505 18.2616 19.0505 17.9061 18.8314 17.6912ZM1.13326 7.94862C1.13326 4.17892 4.25919 1.11603 8.09709 1.11603C11.9392 1.11603 15.0609 4.18305 15.0609 7.94862C15.0609 11.7142 11.9392 14.7853 8.09709 14.7853C4.25919 14.7853 1.13326 11.7183 1.13326 7.94862Z" fill="#72747C"/>
</svg>
