<svg width="21" height="19" viewBox="0 0 21 19" fill="none" xmlns="http://www.w3.org/2000/svg">
<path d="M20.0072 2.67876C19.9235 2.59506 19.8397 2.51132 19.6723 2.51132H3.76704L3.34846 0.334835C3.34846 0.167398 3.09733 6.89563e-09 2.92989 6.89563e-09H0.418533C0.167437 -3.92331e-05 0 0.167398 0 0.418533C0 0.669669 0.167437 0.837106 0.418573 0.837106H2.5951L4.60418 11.05C4.85532 12.3894 6.111 13.3939 7.45037 13.3939H17.0772C17.3284 13.3939 17.4958 13.2265 17.4958 12.9753C17.4958 12.7242 17.3284 12.5568 17.0772 12.5568H7.53407C6.86437 12.5568 6.1947 12.2219 5.85982 11.6359L18.0818 9.96169C18.2492 9.96169 18.4166 9.79426 18.4166 9.62686L20.0909 2.92989C20.0909 2.92989 20.0909 2.76245 20.0072 2.67876ZM17.6632 9.20829L5.44125 10.7988L3.93443 3.26473H19.0863L17.6632 9.20829Z" fill="#72747C"/>
<path d="M7.11549 14.231C5.94355 14.231 5.02271 15.1518 5.02271 16.3237C5.02271 17.4957 5.94355 18.4165 7.11549 18.4165C8.28747 18.4165 9.20827 17.4957 9.20827 16.3237C9.20831 15.1518 8.28747 14.231 7.11549 14.231ZM7.11549 17.5794C6.44578 17.5794 5.85981 16.9934 5.85981 16.3237C5.85981 15.6541 6.44578 15.0681 7.11549 15.0681C7.7852 15.0681 8.37117 15.6541 8.37117 16.3237C8.37117 16.9934 7.7852 17.5794 7.11549 17.5794Z" fill="#72747C"/>
<path d="M15.4869 14.231C14.3149 14.231 13.3941 15.1518 13.3941 16.3237C13.3941 17.4957 14.3149 18.4165 15.4869 18.4165C16.6589 18.4165 17.5797 17.4957 17.5797 16.3237C17.5797 15.1518 16.6588 14.231 15.4869 14.231ZM15.4869 17.5794C14.8172 17.5794 14.2312 16.9934 14.2312 16.3237C14.2312 15.6541 14.8172 15.0681 15.4869 15.0681C16.1566 15.0681 16.7426 15.6541 16.7426 16.3237C16.7426 16.9934 16.1566 17.5794 15.4869 17.5794Z" fill="#72747C"/>
</svg>
