<svg width="105" height="49" viewBox="0 0 105 49" fill="none" xmlns="http://www.w3.org/2000/svg">
<path fill-rule="evenodd" clip-rule="evenodd" d="M85.086 22.64H85.626V23H78.138V22.676H78.678C79.038 22.676 79.35 22.544 79.614 22.28C79.902 21.992 80.022 21.656 79.974 21.272L78.102 6.43998L71.298 19.832C70.626 21.296 70.206 22.52 70.038 23.504H69.678L61.002 6.76398L59.382 21.272C59.334 21.632 59.442 21.956 59.706 22.244C59.994 22.532 60.33 22.676 60.714 22.676H61.218V23H54.558V22.64H55.098C55.962 22.64 56.634 22.328 57.114 21.704C57.354 21.392 57.498 21.02 57.546 20.588L60.354 0.895976H60.714L70.218 19.184L79.398 0.895976H79.722L82.638 20.66C82.734 21.26 83.01 21.74 83.466 22.1C83.922 22.46 84.462 22.64 85.086 22.64ZM88.3595 22.64C88.9355 22.64 89.4155 22.46 89.7995 22.1C90.2075 21.716 90.4235 21.26 90.4475 20.732V3.63197C90.4475 3.10398 90.2435 2.65998 89.8355 2.29997C89.4275 1.93998 88.9355 1.75998 88.3595 1.75998H87.8555V1.39998H98.3675C99.3515 1.39998 100.215 1.32798 100.959 1.18398C101.703 1.03998 102.183 0.919975 102.399 0.823975V4.92798L102.003 4.89198V4.35198C102.003 3.84798 101.835 3.41598 101.499 3.05598C101.163 2.69598 100.731 2.51598 100.203 2.51598H92.7155V11.66H98.8715C99.3515 11.66 99.7115 11.516 99.9515 11.228C100.215 10.94 100.347 10.58 100.347 10.148V9.67998H100.743V14.72H100.347V14.252C100.347 13.58 100.095 13.124 99.5915 12.884C99.3995 12.812 99.1955 12.764 98.9795 12.74H92.7155V21.884H98.3675C99.4715 21.884 100.395 21.692 101.139 21.308C101.907 20.924 102.483 20.468 102.867 19.94C103.275 19.412 103.683 18.716 104.091 17.852H104.451L102.471 23H87.8555V22.64H88.3595ZM41.0153 22.611C43.131 21.5824 50.4632 17.388 53.9794 7.26156C57.6742 -4.11768 40.4322 8.40822 40.4322 8.40822C40.4322 8.40822 24.421 -7.73414 25.0373 7.43795C26.1786 16.4423 36.8658 21.42 39.7293 22.5994V38.3539C39.2426 37.1953 38.5127 36.2684 37.5395 35.5732C36.5662 34.878 35.4076 34.5304 34.0636 34.5304C32.1866 34.5304 30.5877 35.2024 29.2669 36.5464C27.9461 37.8673 27.2857 39.4662 27.2857 41.3431C27.2857 43.1969 27.9461 44.7958 29.2669 46.1398C30.5877 47.4606 32.1866 48.1211 34.0636 48.1211C35.3844 48.1211 36.5546 47.7619 37.5742 47.0435C38.5938 46.302 39.3469 45.3404 39.8335 44.1586L39.7293 45.7227V47.8082H41.0153V22.611ZM43.5298 13.9629C43.5298 15.856 41.9951 17.3907 40.102 17.3907C38.2089 17.3907 36.6743 15.856 36.6743 13.9629C36.6743 12.0699 38.2089 10.5352 40.102 10.5352C41.9951 10.5352 43.5298 12.0699 43.5298 13.9629ZM17.46 22.0999C17.052 22.4599 16.572 22.6399 16.02 22.6399H15.588V22.9999H22.932V22.6399H22.5C21.948 22.6399 21.408 22.3999 20.88 21.9199C20.592 21.6559 20.436 21.2599 20.412 20.7319V3.63188C20.436 3.10388 20.652 2.65988 21.06 2.29988C21.468 1.93988 21.948 1.75988 22.5 1.75988H22.932V1.39988H15.588V1.75988H16.02C16.596 1.75988 17.136 1.99988 17.64 2.47988C17.952 2.76788 18.108 3.17588 18.108 3.70389V11.8039H4.824V3.66789C4.848 3.13989 5.064 2.69589 5.472 2.33589C5.88 1.95188 6.36 1.75988 6.912 1.75988H7.344V1.39988H0V1.75988H0.432C0.984 1.75988 1.464 1.95188 1.872 2.33589C2.28 2.71988 2.496 3.17588 2.52 3.70389V20.6959C2.496 21.2239 2.28 21.6799 1.872 22.0639C1.488 22.4479 1.008 22.6399 0.432 22.6399H0V22.9999H7.344V22.6399H6.912C6.36 22.6399 5.88 22.4599 5.472 22.0999C5.064 21.7159 4.848 21.2599 4.824 20.7319V12.8839H18.108V20.7319C18.084 21.2599 17.868 21.7159 17.46 22.0999ZM30.1011 45.3404C29.0815 44.2513 28.5717 42.9073 28.5717 41.3084C28.5717 39.6863 29.0815 38.3423 30.1011 37.2764C31.1439 36.2104 32.4647 35.6775 34.0636 35.6775C35.6857 35.6775 37.0065 36.2104 38.0261 37.2764C39.0688 38.3423 39.5902 39.6863 39.5902 41.3084C39.5902 42.9073 39.0688 44.2513 38.0261 45.3404C37.0065 46.4295 35.6857 46.974 34.0636 46.974C32.4647 46.974 31.1439 46.4295 30.1011 45.3404ZM46.9349 43.5677L58.0576 39.2576C57.5942 37.8441 56.8411 36.7086 55.7983 35.8513C54.7787 34.9939 53.5274 34.5652 52.0444 34.5652C50.1674 34.5652 48.5685 35.2372 47.2477 36.5812C45.9269 37.902 45.2665 39.5009 45.2665 41.3779C45.2665 43.2317 45.9269 44.8306 47.2477 46.1746C48.5685 47.4954 50.1443 48.1558 51.9749 48.1558C53.8055 48.1558 55.3696 47.5302 56.6673 46.2789L55.7983 45.5837C54.7787 46.5338 53.597 47.0088 52.253 47.0088C50.909 47.0088 49.7851 46.696 48.8814 46.0703C48.0008 45.4446 47.352 44.6104 46.9349 43.5677ZM46.6221 42.4207C46.5757 41.9572 46.5525 41.598 46.5525 41.3431C46.5525 39.7211 47.0623 38.3771 48.0819 37.3111C49.1247 36.2452 50.4455 35.7122 52.0444 35.7122C54.1067 35.7122 55.613 36.6623 56.563 38.5624L46.6221 42.4207ZM61.074 41.3084C61.074 43.1622 61.7345 44.7611 63.0553 46.1051C64.3761 47.4259 65.9402 48.0863 67.7477 48.0863C69.5551 48.0863 71.0961 47.507 72.3706 46.3484L71.6754 45.4794C70.6327 46.4526 69.335 46.9393 67.7824 46.9393C66.2299 46.9393 64.9322 46.4063 63.8895 45.3404C62.8699 44.2744 62.3601 42.9304 62.3601 41.3084C62.3601 39.6863 62.8699 38.3423 63.8895 37.2764C64.9322 36.2104 66.2299 35.6775 67.7824 35.6775C69.335 35.6775 70.6327 36.1641 71.6754 37.1373L72.3706 36.2684C71.0961 35.1098 69.5551 34.5304 67.7477 34.5304C65.9402 34.5304 64.3761 35.2024 63.0553 36.5464C61.7345 37.8673 61.074 39.4546 61.074 41.3084ZM87.59 46.1398C88.9108 44.7958 89.5712 43.1853 89.5712 41.3084C89.5712 39.4314 88.9108 37.8325 87.59 36.5117C86.2691 35.1909 84.6587 34.5304 82.7585 34.5304C80.8816 34.5304 79.2827 35.2024 77.9618 36.5464C76.641 37.8673 75.9806 39.4662 75.9806 41.3431C75.9806 43.1969 76.641 44.7958 77.9618 46.1398C79.2827 47.4606 80.8816 48.1211 82.7585 48.1211C84.6587 48.1211 86.2691 47.4606 87.59 46.1398ZM78.796 45.3404C77.7765 44.2513 77.2667 42.9073 77.2667 41.3084C77.2667 39.6863 77.7765 38.3423 78.796 37.2764C79.8388 36.2104 81.1596 35.6775 82.7585 35.6775C84.3806 35.6775 85.7014 36.2104 86.721 37.2764C87.7638 38.3423 88.2851 39.6863 88.2851 41.3084C88.2851 42.9073 87.7638 44.2513 86.721 45.3404C85.7014 46.4295 84.3806 46.974 82.7585 46.974C81.1596 46.974 79.8388 46.4295 78.796 45.3404ZM95.7797 34.8085H94.6327V47.8082H95.9187V40.5437C96.1041 39.1533 96.695 38.0063 97.6914 37.1026C98.6878 36.1989 99.9044 35.7238 101.341 35.6775L101.376 34.5304C100.125 34.5768 99.0238 34.936 98.0738 35.608C97.1237 36.28 96.4054 37.1721 95.9187 38.2844L95.7797 34.8085Z" fill="#72747C"/>
</svg>
