<?xml version="1.0" encoding="UTF-8" standalone="no"?>
<svg
   xmlns:dc="http://purl.org/dc/elements/1.1/"
   xmlns:cc="http://creativecommons.org/ns#"
   xmlns:rdf="http://www.w3.org/1999/02/22-rdf-syntax-ns#"
   xmlns:svg="http://www.w3.org/2000/svg"
   xmlns="http://www.w3.org/2000/svg"
   id="svg8"
   version="1.1"
   viewBox="0 0 149.67737 149.6385"
   height="149.6385mm"
   width="149.67737mm">
  <defs
     id="defs2">
    <linearGradient
       id="SVGID_1_"
       gradientUnits="userSpaceOnUse"
       x1="65.622101"
       y1="54.040699"
       x2="29.273701"
       y2="80.511902">
      <stop
         offset="0"
         style="stop-color:#DA1C5C"
         id="stop4676" />
      <stop
         offset="1"
         style="stop-color:#9E1F63"
         id="stop4678" />
    </linearGradient>
    <linearGradient
       id="SVGID_2_"
       gradientUnits="userSpaceOnUse"
       x1="-20.479099"
       y1="87.434799"
       x2="57.7738"
       y2="125.3258">
      <stop
         offset="0"
         style="stop-color:#EE4168"
         id="stop4685" />
      <stop
         offset="1"
         style="stop-color:#9E1F63"
         id="stop4687" />
    </linearGradient>
    <linearGradient
       gradientTransform="translate(14.543998,18.179997)"
       id="SVGID_3_"
       gradientUnits="userSpaceOnUse"
       x1="99.466698"
       y1="41.734798"
       x2="75.261597"
       y2="149.4299">
      <stop
         offset="0"
         style="stop-color:#DA1C5C"
         id="stop4692" />
      <stop
         offset="1"
         style="stop-color:#9E1F63"
         id="stop4694" />
    </linearGradient>
  </defs>
  <metadata
     id="metadata5">
    <rdf:RDF>
      <cc:Work
         rdf:about="">
        <dc:format>image/svg+xml</dc:format>
        <dc:type
           rdf:resource="http://purl.org/dc/dcmitype/StillImage" />
        <dc:title></dc:title>
      </cc:Work>
    </rdf:RDF>
  </metadata>
  <g
     style="display:none"
     transform="translate(-20.411316,-12.781938)"
     id="layer1">
    <g
       transform="translate(20.245949,12.585809)"
       id="g115">
      <g
         transform="translate(-0.00241089,0.35936737)"
         style="display:inline"
         id="layer1-4">
        <circle
           r="74.819252"
           cy="74.656013"
           cx="74.98703"
           id="path3867"
           style="fill:#2f51a8;fill-opacity:0.56281403;fill-rule:evenodd;stroke-width:0.61980987" />
        <g
           style="stroke-width:0.04404937;stroke-miterlimit:4;stroke-dasharray:none"
           transform="matrix(2.2701799,0,0,2.2701799,23.440313,7.9889253)"
           id="g3865">
          <g
             style="stroke-width:0.04404937;stroke-miterlimit:4;stroke-dasharray:none"
             id="g3809">
            <path
               style="stroke-width:0.04404937;stroke-miterlimit:4;stroke-dasharray:none"
               d="M 52.524,23.925 12.507,0.824 C 10.6,-0.276 8.131,-0.273 6.231,0.824 4.293,1.94 3.088,4.025 3.088,6.264 v 46.205 c 0,2.24 1.204,4.325 3.131,5.435 0.953,0.555 2.042,0.848 3.149,0.848 1.104,0 2.192,-0.292 3.141,-0.843 L 52.526,34.806 c 1.936,-1.119 3.138,-3.203 3.138,-5.439 -0.001,-2.233 -1.202,-4.317 -3.14,-5.442 z m -3,5.687 -40.02,23.104 C 9.422,52.763 9.324,52.768 9.225,52.711 9.141,52.662 9.088,52.569 9.088,52.469 V 6.263 c 0,-0.1 0.052,-0.192 0.14,-0.243 0.042,-0.025 0.09,-0.038 0.139,-0.038 0.051,0 0.099,0.013 0.142,0.038 l 40.01,23.098 c 0.089,0.052 0.145,0.147 0.145,0.249 -0.001,0.103 -0.053,0.194 -0.14,0.245 z"
               id="path3807" />
          </g>
          <g
             style="stroke-width:0.04404937;stroke-miterlimit:4;stroke-dasharray:none"
             id="g3811" />
          <g
             style="stroke-width:0.04404937;stroke-miterlimit:4;stroke-dasharray:none"
             id="g3813" />
          <g
             style="stroke-width:0.04404937;stroke-miterlimit:4;stroke-dasharray:none"
             id="g3815" />
          <g
             style="stroke-width:0.04404937;stroke-miterlimit:4;stroke-dasharray:none"
             id="g3817" />
          <g
             style="stroke-width:0.04404937;stroke-miterlimit:4;stroke-dasharray:none"
             id="g3819" />
          <g
             style="stroke-width:0.04404937;stroke-miterlimit:4;stroke-dasharray:none"
             id="g3821" />
          <g
             style="stroke-width:0.04404937;stroke-miterlimit:4;stroke-dasharray:none"
             id="g3823" />
          <g
             style="stroke-width:0.04404937;stroke-miterlimit:4;stroke-dasharray:none"
             id="g3825" />
          <g
             style="stroke-width:0.04404937;stroke-miterlimit:4;stroke-dasharray:none"
             id="g3827" />
          <g
             style="stroke-width:0.04404937;stroke-miterlimit:4;stroke-dasharray:none"
             id="g3829" />
          <g
             style="stroke-width:0.04404937;stroke-miterlimit:4;stroke-dasharray:none"
             id="g3831" />
          <g
             style="stroke-width:0.04404937;stroke-miterlimit:4;stroke-dasharray:none"
             id="g3833" />
          <g
             style="stroke-width:0.04404937;stroke-miterlimit:4;stroke-dasharray:none"
             id="g3835" />
          <g
             style="stroke-width:0.04404937;stroke-miterlimit:4;stroke-dasharray:none"
             id="g3837" />
          <g
             style="stroke-width:0.04404937;stroke-miterlimit:4;stroke-dasharray:none"
             id="g3839" />
        </g>
      </g>
      <g
         transform="translate(-0.00241089,0.35936737)"
         style="display:inline;opacity:0.65"
         id="layer2">
        <g
           id="g4749"
           transform="matrix(0.87321244,0,0,0.87321244,27.111111,7.6475521)">
          <linearGradient
             y2="125.3258"
             x2="57.7738"
             y1="87.434799"
             x1="-20.479099"
             gradientUnits="userSpaceOnUse"
             id="linearGradient4737">
            <stop
               id="stop4733"
               style="stop-color:#EE4168"
               offset="0" />
            <stop
               id="stop4735"
               style="stop-color:#9E1F63"
               offset="1" />
          </linearGradient>
          <linearGradient
             y2="149.4299"
             x2="75.261597"
             y1="41.734798"
             x1="99.466698"
             gradientUnits="userSpaceOnUse"
             id="linearGradient4745">
            <stop
               id="stop4741"
               style="stop-color:#DA1C5C"
               offset="0" />
            <stop
               id="stop4743"
               style="stop-color:#9E1F63"
               offset="1" />
          </linearGradient>
        </g>
        <g
           transform="matrix(0.87321244,0,0,0.87321244,27.233434,7.7141709)"
           id="g4699"
           style="display:inline">
          <g
             transform="matrix(1.0039198,0,0,1.0039198,-0.43542096,-0.98297547)"
             id="g4683">
            <linearGradient
               id="linearGradient4872"
               gradientUnits="userSpaceOnUse"
               x1="65.622101"
               y1="54.040699"
               x2="29.273701"
               y2="80.511902">
              <stop
                 offset="0"
                 style="stop-color:#DA1C5C"
                 id="stop4868" />
              <stop
                 offset="1"
                 style="stop-color:#9E1F63"
                 id="stop4870" />
            </linearGradient>
            <path
               style="fill:url(#SVGID_1_)"
               class="st0"
               d="M 128.2,56.4 56.1,14.7 36.3,3.3 C 28.7,-1.1 19.7,-1.1 12.1,3.3 4.5,7.6 0,15.5 0,24.2 v 106.2 c 0,8.7 4.5,16.6 12.1,20.9 3.8,2.2 7.9,3.3 12.1,3.3 4.1,0 8.3,-1.1 12.1,-3.3 L 52.2,142.1 74,129.5 128.2,98.2 c 7.6,-4.4 12.1,-12.2 12.1,-20.9 0,-8.7 -4.5,-16.6 -12.1,-20.9 z m -9.7,25.1 -57.9,33.5 -7.7,4.5 -26.3,15.2 c -2.2,1.3 -4.1,0.4 -4.8,0 -0.7,-0.4 -2.4,-1.7 -2.4,-4.2 V 24.2 c 0,-2.5 1.7,-3.7 2.4,-4.2 0.4,-0.3 1.3,-0.7 2.4,-0.7 0.7,0 1.5,0.2 2.4,0.7 l 28.9,16.7 63.1,36.4 c 2.2,1.3 2.4,3.3 2.4,4.2 -0.1,0.8 -0.3,2.9 -2.5,4.2 z"
               id="path4681" />
          </g>
          <linearGradient
             id="linearGradient4880"
             gradientUnits="userSpaceOnUse"
             x1="-20.479099"
             y1="87.434799"
             x2="57.7738"
             y2="125.3258">
            <stop
               offset="0"
               style="stop-color:#EE4168"
               id="stop4876" />
            <stop
               offset="1"
               style="stop-color:#9E1F63"
               id="stop4878" />
          </linearGradient>
          <linearGradient
             id="linearGradient4887"
             gradientUnits="userSpaceOnUse"
             x1="99.466698"
             y1="41.734798"
             x2="75.261597"
             y2="149.4299">
            <stop
               offset="0"
               style="stop-color:#DA1C5C"
               id="stop4883" />
            <stop
               offset="1"
               style="stop-color:#9E1F63"
               id="stop4885" />
          </linearGradient>
        </g>
      </g>
    </g>
  </g>
  <g
     id="layer4">
    <path
       style="fill:#ff0000;stroke-width:0.87674683"
       class="st0"
       d="M 139.09039,56.537053 75.876936,19.976702 58.517348,9.9817894 c -6.663276,-3.8576865 -14.553999,-3.8576865 -21.217275,0 C 30.636797,13.751802 26.691437,20.6781 26.691437,28.305797 v 93.110523 c 0,7.62771 3.94536,14.55401 10.608636,18.32401 3.331639,1.92885 6.926301,2.89327 10.608638,2.89327 3.594662,0 7.276998,-0.96442 10.608637,-2.89327 l 13.940276,-8.06607 19.113083,-11.047 47.519683,-27.442188 c 6.66328,-3.857685 10.60864,-10.696311 10.60864,-18.32401 0,-7.627698 -3.94536,-14.553998 -10.60864,-18.324009 z m -8.50445,22.006346 -50.763643,29.371031 -6.750951,3.94536 -23.058442,13.32655 c -1.928844,1.13977 -3.594663,0.35071 -4.208386,0 -0.613723,-0.35069 -2.104192,-1.49047 -2.104192,-3.68233 V 28.305797 c 0,-2.191866 1.490469,-3.243963 2.104192,-3.682336 0.350699,-0.263024 1.139771,-0.613722 2.104193,-0.613722 0.613722,0 1.31512,0.175349 2.104193,0.613722 l 25.337984,14.641673 55.322722,31.913592 c 1.92886,1.13977 2.1042,2.893264 2.1042,3.682336 -0.0877,0.701398 -0.26302,2.542566 -2.19187,3.682337 z"
       id="path4681-1" />
  </g>
  <style
     type="text/css"
     id="style4674">
	.st0{fill:url(#SVGID_1_);}
	.st1{fill:url(#SVGID_2_);}
	.st2{fill:url(#SVGID_3_);}
</style>
</svg>
