<?xml version="1.0" encoding="UTF-8" standalone="no"?>
<!-- Created with Inkscape (http://www.inkscape.org/) -->

<svg
   xmlns:dc="http://purl.org/dc/elements/1.1/"
   xmlns:cc="http://creativecommons.org/ns#"
   xmlns:rdf="http://www.w3.org/1999/02/22-rdf-syntax-ns#"
   xmlns:svg="http://www.w3.org/2000/svg"
   xmlns="http://www.w3.org/2000/svg"
   xmlns:sodipodi="http://sodipodi.sourceforge.net/DTD/sodipodi-0.dtd"
   xmlns:inkscape="http://www.inkscape.org/namespaces/inkscape"
   width="150mm"
   height="150mm"
   viewBox="0 0 150 150"
   version="1.1"
   id="svg3805"
   inkscape:version="0.92.4 (5da689c313, 2019-01-14)"
   sodipodi:docname="drawing3i.svg">
  <defs
     id="defs3799">
    <linearGradient
       y2="80.511902"
       x2="29.273701"
       y1="54.040699"
       x1="65.622101"
       gradientUnits="userSpaceOnUse"
       id="SVGID_1_">
      <stop
         id="stop4676"
         style="stop-color:#DA1C5C"
         offset="0" />
      <stop
         id="stop4678"
         style="stop-color:#9E1F63"
         offset="1" />
    </linearGradient>
    <linearGradient
       y2="125.3258"
       x2="57.7738"
       y1="87.434799"
       x1="-20.479099"
       gradientUnits="userSpaceOnUse"
       id="SVGID_2_">
      <stop
         id="stop4685"
         style="stop-color:#EE4168"
         offset="0" />
      <stop
         id="stop4687"
         style="stop-color:#9E1F63"
         offset="1" />
    </linearGradient>
    <linearGradient
       y2="149.4299"
       x2="75.261597"
       y1="41.734798"
       x1="99.466698"
       gradientUnits="userSpaceOnUse"
       id="SVGID_3_"
       gradientTransform="translate(14.543998,18.179997)">
      <stop
         id="stop4692"
         style="stop-color:#DA1C5C"
         offset="0" />
      <stop
         id="stop4694"
         style="stop-color:#9E1F63"
         offset="1" />
    </linearGradient>
  </defs>
  <sodipodi:namedview
     id="base"
     pagecolor="#ffffff"
     bordercolor="#666666"
     borderopacity="1.0"
     inkscape:pageopacity="0.0"
     inkscape:pageshadow="2"
     inkscape:zoom="0.1767767"
     inkscape:cx="539.61886"
     inkscape:cy="803.84598"
     inkscape:document-units="mm"
     inkscape:current-layer="layer2"
     showgrid="false"
     inkscape:window-width="1366"
     inkscape:window-height="713"
     inkscape:window-x="1358"
     inkscape:window-y="-8"
     inkscape:window-maximized="1"
     fit-margin-top="0"
     fit-margin-left="0"
     fit-margin-right="0"
     fit-margin-bottom="0" />
  <metadata
     id="metadata3802">
    <rdf:RDF>
      <cc:Work
         rdf:about="">
        <dc:format>image/svg+xml</dc:format>
        <dc:type
           rdf:resource="http://purl.org/dc/dcmitype/StillImage" />
        <dc:title></dc:title>
      </cc:Work>
    </rdf:RDF>
  </metadata>
  <g
     inkscape:label="Layer 1"
     inkscape:groupmode="layer"
     id="layer1"
     style="display:inline"
     transform="translate(-0.00241089,0.35936737)">
    <circle
       style="fill:#2f51a8;fill-opacity:0.56281403;fill-rule:evenodd;stroke-width:0.61980987"
       id="path3867"
       cx="74.98703"
       cy="74.656013"
       r="74.819252" />
    <g
       id="g3865"
       transform="matrix(2.2701799,0,0,2.2701799,23.440313,7.9889253)"
       style="stroke-width:0.04404937;stroke-miterlimit:4;stroke-dasharray:none">
      <g
         id="g3809"
         style="stroke-width:0.04404937;stroke-miterlimit:4;stroke-dasharray:none">
	<path
   id="path3807"
   d="M 52.524,23.925 12.507,0.824 C 10.6,-0.276 8.131,-0.273 6.231,0.824 4.293,1.94 3.088,4.025 3.088,6.264 v 46.205 c 0,2.24 1.204,4.325 3.131,5.435 0.953,0.555 2.042,0.848 3.149,0.848 1.104,0 2.192,-0.292 3.141,-0.843 L 52.526,34.806 c 1.936,-1.119 3.138,-3.203 3.138,-5.439 -0.001,-2.233 -1.202,-4.317 -3.14,-5.442 z m -3,5.687 -40.02,23.104 C 9.422,52.763 9.324,52.768 9.225,52.711 9.141,52.662 9.088,52.569 9.088,52.469 V 6.263 c 0,-0.1 0.052,-0.192 0.14,-0.243 0.042,-0.025 0.09,-0.038 0.139,-0.038 0.051,0 0.099,0.013 0.142,0.038 l 40.01,23.098 c 0.089,0.052 0.145,0.147 0.145,0.249 -0.001,0.103 -0.053,0.194 -0.14,0.245 z"
   inkscape:connector-curvature="0"
   style="stroke-width:0.04404937;stroke-miterlimit:4;stroke-dasharray:none" />

</g>
      <g
         id="g3811"
         style="stroke-width:0.04404937;stroke-miterlimit:4;stroke-dasharray:none">
</g>
      <g
         id="g3813"
         style="stroke-width:0.04404937;stroke-miterlimit:4;stroke-dasharray:none">
</g>
      <g
         id="g3815"
         style="stroke-width:0.04404937;stroke-miterlimit:4;stroke-dasharray:none">
</g>
      <g
         id="g3817"
         style="stroke-width:0.04404937;stroke-miterlimit:4;stroke-dasharray:none">
</g>
      <g
         id="g3819"
         style="stroke-width:0.04404937;stroke-miterlimit:4;stroke-dasharray:none">
</g>
      <g
         id="g3821"
         style="stroke-width:0.04404937;stroke-miterlimit:4;stroke-dasharray:none">
</g>
      <g
         id="g3823"
         style="stroke-width:0.04404937;stroke-miterlimit:4;stroke-dasharray:none">
</g>
      <g
         id="g3825"
         style="stroke-width:0.04404937;stroke-miterlimit:4;stroke-dasharray:none">
</g>
      <g
         id="g3827"
         style="stroke-width:0.04404937;stroke-miterlimit:4;stroke-dasharray:none">
</g>
      <g
         id="g3829"
         style="stroke-width:0.04404937;stroke-miterlimit:4;stroke-dasharray:none">
</g>
      <g
         id="g3831"
         style="stroke-width:0.04404937;stroke-miterlimit:4;stroke-dasharray:none">
</g>
      <g
         id="g3833"
         style="stroke-width:0.04404937;stroke-miterlimit:4;stroke-dasharray:none">
</g>
      <g
         id="g3835"
         style="stroke-width:0.04404937;stroke-miterlimit:4;stroke-dasharray:none">
</g>
      <g
         id="g3837"
         style="stroke-width:0.04404937;stroke-miterlimit:4;stroke-dasharray:none">
</g>
      <g
         id="g3839"
         style="stroke-width:0.04404937;stroke-miterlimit:4;stroke-dasharray:none">
</g>
    </g>
  </g>
  <g
     inkscape:groupmode="layer"
     id="layer2"
     inkscape:label="Layer 2"
     style="display:inline;opacity:0.65"
     transform="translate(-0.00241089,0.35936737)">
    <g
       transform="matrix(0.87321244,0,0,0.87321244,27.111111,7.6475521)"
       id="g4749">
	
	<linearGradient
   id="linearGradient4737"
   gradientUnits="userSpaceOnUse"
   x1="-20.479099"
   y1="87.434799"
   x2="57.7738"
   y2="125.3258">
		<stop
   offset="0"
   style="stop-color:#EE4168"
   id="stop4733" />

		<stop
   offset="1"
   style="stop-color:#9E1F63"
   id="stop4735" />

	</linearGradient>

	
	<linearGradient
   id="linearGradient4745"
   gradientUnits="userSpaceOnUse"
   x1="99.466698"
   y1="41.734798"
   x2="75.261597"
   y2="149.4299">
		<stop
   offset="0"
   style="stop-color:#DA1C5C"
   id="stop4741" />

		<stop
   offset="1"
   style="stop-color:#9E1F63"
   id="stop4743" />

	</linearGradient>

	
</g>
    <g
       style="display:inline"
       id="g4699"
       transform="matrix(0.87321244,0,0,0.87321244,27.233434,7.7141709)">
      <g
         id="g4683"
         transform="matrix(1.0039198,0,0,1.0039198,-0.43542096,-0.98297547)">
        <linearGradient
           y2="80.511902"
           x2="29.273701"
           y1="54.040699"
           x1="65.622101"
           gradientUnits="userSpaceOnUse"
           id="linearGradient4872">
          <stop
             id="stop4868"
             style="stop-color:#DA1C5C"
             offset="0" />
          <stop
             id="stop4870"
             style="stop-color:#9E1F63"
             offset="1" />
        </linearGradient>
        <path
           id="path4681"
           d="M 128.2,56.4 56.1,14.7 36.3,3.3 C 28.7,-1.1 19.7,-1.1 12.1,3.3 4.5,7.6 0,15.5 0,24.2 v 106.2 c 0,8.7 4.5,16.6 12.1,20.9 3.8,2.2 7.9,3.3 12.1,3.3 4.1,0 8.3,-1.1 12.1,-3.3 L 52.2,142.1 74,129.5 128.2,98.2 c 7.6,-4.4 12.1,-12.2 12.1,-20.9 0,-8.7 -4.5,-16.6 -12.1,-20.9 z m -9.7,25.1 -57.9,33.5 -7.7,4.5 -26.3,15.2 c -2.2,1.3 -4.1,0.4 -4.8,0 -0.7,-0.4 -2.4,-1.7 -2.4,-4.2 V 24.2 c 0,-2.5 1.7,-3.7 2.4,-4.2 0.4,-0.3 1.3,-0.7 2.4,-0.7 0.7,0 1.5,0.2 2.4,0.7 l 28.9,16.7 63.1,36.4 c 2.2,1.3 2.4,3.3 2.4,4.2 -0.1,0.8 -0.3,2.9 -2.5,4.2 z"
           class="st0"
           inkscape:connector-curvature="0"
           style="fill:url(#SVGID_1_)" />
      </g>
      <linearGradient
         y2="125.3258"
         x2="57.7738"
         y1="87.434799"
         x1="-20.479099"
         gradientUnits="userSpaceOnUse"
         id="linearGradient4880">
        <stop
           id="stop4876"
           style="stop-color:#EE4168"
           offset="0" />
        <stop
           id="stop4878"
           style="stop-color:#9E1F63"
           offset="1" />
      </linearGradient>
      <linearGradient
         y2="149.4299"
         x2="75.261597"
         y1="41.734798"
         x1="99.466698"
         gradientUnits="userSpaceOnUse"
         id="linearGradient4887">
        <stop
           id="stop4883"
           style="stop-color:#DA1C5C"
           offset="0" />
        <stop
           id="stop4885"
           style="stop-color:#9E1F63"
           offset="1" />
      </linearGradient>
    </g>
  </g>
  <style
     id="style4674"
     type="text/css">
	.st0{fill:url(#SVGID_1_);}
	.st1{fill:url(#SVGID_2_);}
	.st2{fill:url(#SVGID_3_);}
</style>
</svg>
