<?xml version="1.0" encoding="UTF-8" standalone="no"?>
<svg
   xmlns:dc="http://purl.org/dc/elements/1.1/"
   xmlns:cc="http://creativecommons.org/ns#"
   xmlns:rdf="http://www.w3.org/1999/02/22-rdf-syntax-ns#"
   xmlns:svg="http://www.w3.org/2000/svg"
   xmlns="http://www.w3.org/2000/svg"
   xmlns:xlink="http://www.w3.org/1999/xlink"
   id="svg218"
   version="1.1"
   viewBox="0 0 150.00328 150.0089"
   height="150.0089mm"
   width="150.00328mm">
  <defs
     id="defs212">
    <linearGradient
       gradientTransform="matrix(0.87539,0,0,0.87539,26.91,7.1696)"
       y2="80.512001"
       x2="29.274"
       y1="54.041"
       x1="65.622002"
       gradientUnits="userSpaceOnUse"
       id="linearGradient145"
       xlink:href="#SVGID_1_" />
    <linearGradient
       id="SVGID_1_"
       x1="65.622002"
       x2="29.274"
       y1="54.041"
       y2="80.512001"
       gradientUnits="userSpaceOnUse">
      <stop
         stop-color="#DA1C5C"
         offset="0"
         id="stop10" />
      <stop
         stop-color="#9E1F63"
         offset="1"
         id="stop12" />
    </linearGradient>
    <linearGradient
       id="SVGID_2_"
       x1="-20.479"
       x2="57.773998"
       y1="87.434998"
       y2="125.33"
       gradientUnits="userSpaceOnUse">
      <stop
         stop-color="#EE4168"
         offset="0"
         id="stop15" />
      <stop
         stop-color="#9E1F63"
         offset="1"
         id="stop17" />
    </linearGradient>
    <linearGradient
       id="SVGID_3_-0"
       x1="99.467003"
       x2="75.262001"
       y1="41.735001"
       y2="149.42999"
       gradientUnits="userSpaceOnUse">
      <stop
         stop-color="#DA1C5C"
         offset="0"
         id="stop63" />
      <stop
         stop-color="#9E1F63"
         offset="1"
         id="stop65" />
    </linearGradient>
    <linearGradient
       xlink:href="#for_path_3"
       gradientTransform="matrix(0.87539,0,0,0.87539,26.91,7.1696)"
       id="for_path_2"
       x1="-20.479"
       x2="60.599998"
       y1="87.434998"
       y2="115"
       gradientUnits="userSpaceOnUse">
      <stop
         stop-color="#EE4168"
         offset="0"
         id="stop25" />
      <stop
         stop-color="#9E1F63"
         offset="1"
         id="stop27" />
    </linearGradient>
    <linearGradient
       gradientTransform="matrix(0.87539,0,0,0.87539,26.91,7.1696)"
       id="for_path_3"
       x1="97.439003"
       x2="52.195999"
       y1="61.341999"
       y2="129.42999"
       gradientUnits="userSpaceOnUse">
      <stop
         stop-color="#DA1C5C"
         offset="0"
         id="stop30" />
      <stop
         stop-color="#9E1F63"
         offset="1"
         id="stop32" />
    </linearGradient>
    <linearGradient
       y2="80.512001"
       x2="29.274"
       y1="54.041"
       x1="65.622002"
       gradientUnits="userSpaceOnUse"
       id="linearGradient308"
       xlink:href="#SVGID_1_" />
    <linearGradient
       y2="80.512001"
       x2="29.274"
       y1="54.041"
       x1="65.622002"
       gradientUnits="userSpaceOnUse"
       id="linearGradient310"
       xlink:href="#SVGID_1_" />
    <linearGradient
       y2="129.42999"
       x2="52.195999"
       y1="61.341999"
       x1="97.439003"
       gradientTransform="matrix(0.87539,0,0,0.87539,26.91,7.1696)"
       gradientUnits="userSpaceOnUse"
       id="linearGradient1120"
       xlink:href="#for_path_3" />
  </defs>
  <metadata
     id="metadata215">
    <rdf:RDF>
      <cc:Work
         rdf:about="">
        <dc:format>image/svg+xml</dc:format>
        <dc:type
           rdf:resource="http://purl.org/dc/dcmitype/StillImage" />
        <dc:title></dc:title>
      </cc:Work>
    </rdf:RDF>
  </metadata>
  <g
     transform="translate(-14.200742,-35.275318)"
     id="layer1">
    <g
       transform="matrix(0.99998011,0,0,0.99998011,14.199662,35.280204)"
       id="g82"
       style="clip-rule:evenodd;fill-rule:evenodd;stroke-linejoin:round;stroke-miterlimit:2">
      <g
         style="display:none"
         transform="translate(-0.0024109,0.35937)"
         display="none"
         id="g49">
        <circle
           style="fill:#2f51a8;fill-opacity:0.56281002;fill-rule:evenodd;stroke-width:0.61980999"
           cx="74.987"
           cy="74.655998"
           r="74.819"
           id="circle41" />
        <g
           style="stroke-width:0.044049;stroke-miterlimit:4"
           transform="matrix(2.2702,0,0,2.2702,23.44,7.9889)"
           stroke-miterlimit="4"
           id="g47">
          <g
             style="stroke-width:0.044049;stroke-miterlimit:4"
             stroke-miterlimit="4"
             id="g45">
            <path
               style="stroke-width:0.044049;stroke-miterlimit:4"
               d="M 52.524,23.925 12.507,0.824 C 10.6,-0.276 8.131,-0.273 6.231,0.824 4.293,1.94 3.088,4.025 3.088,6.264 v 46.205 c 0,2.24 1.204,4.325 3.131,5.435 0.953,0.555 2.042,0.848 3.149,0.848 1.104,0 2.192,-0.292 3.141,-0.843 L 52.526,34.806 c 1.936,-1.119 3.138,-3.203 3.138,-5.439 -0.001,-2.233 -1.202,-4.317 -3.14,-5.442 z m -3,5.687 -40.02,23.104 C 9.422,52.763 9.324,52.768 9.225,52.711 9.141,52.662 9.088,52.569 9.088,52.469 V 6.263 c 0,-0.1 0.052,-0.192 0.14,-0.243 0.042,-0.025 0.09,-0.038 0.139,-0.038 0.051,0 0.099,0.013 0.142,0.038 l 40.01,23.098 c 0.089,0.052 0.145,0.147 0.145,0.249 -0.001,0.103 -0.053,0.194 -0.14,0.245 z"
               stroke-miterlimit="4"
               id="path43" />
          </g>
        </g>
      </g>
      <g
         style="display:none;opacity:0.65"
         transform="translate(-0.0024109,0.35937)"
         display="none"
         id="g57">
        <g
           style="display:inline"
           transform="matrix(0.87321,0,0,0.87321,27.233,7.7142)"
           display="inline"
           id="g55">
          <g
             transform="matrix(1.0039,0,0,1.0039,-0.43542,-0.98298)"
             id="g53">
            <path
               style="fill:url(#linearGradient308)"
               class="st0"
               d="M 128.2,56.4 56.1,14.7 36.3,3.3 C 28.7,-1.1 19.7,-1.1 12.1,3.3 4.5,7.6 0,15.5 0,24.2 v 106.2 c 0,8.7 4.5,16.6 12.1,20.9 3.8,2.2 7.9,3.3 12.1,3.3 4.1,0 8.3,-1.1 12.1,-3.3 L 52.2,142.1 74,129.5 128.2,98.2 c 7.6,-4.4 12.1,-12.2 12.1,-20.9 0,-8.7 -4.5,-16.6 -12.1,-20.9 z m -9.7,25.1 -57.9,33.5 -7.7,4.5 -26.3,15.2 c -2.2,1.3 -4.1,0.4 -4.8,0 -0.7,-0.4 -2.4,-1.7 -2.4,-4.2 V 24.2 c 0,-2.5 1.7,-3.7 2.4,-4.2 0.4,-0.3 1.3,-0.7 2.4,-0.7 0.7,0 1.5,0.2 2.4,0.7 l 28.9,16.7 63.1,36.4 c 2.2,1.3 2.4,3.3 2.4,4.2 -0.1,0.8 -0.3,2.9 -2.5,4.2 z"
               id="path51" />
          </g>
        </g>
      </g>
      <g
         style="display:none"
         display="none"
         id="g72">
        <g
           transform="matrix(0.87539,0,0,0.87539,26.91,7.1696)"
           id="g70">
          <path
             style="fill:url(#linearGradient310)"
             class="st0"
             d="M 128.2,56.4 56.1,14.7 36.3,3.3 C 28.7,-1.1 19.7,-1.1 12.1,3.3 4.5,7.6 0,15.5 0,24.2 v 106.2 c 0,8.7 4.5,16.6 12.1,20.9 3.8,2.2 7.9,3.3 12.1,3.3 4.1,0 8.3,-1.1 12.1,-3.3 L 52.2,142.1 74,129.5 128.2,98.2 c 7.6,-4.4 12.1,-12.2 12.1,-20.9 0,-8.7 -4.5,-16.6 -12.1,-20.9 z m -9.7,25.1 -57.9,33.5 -7.7,4.5 -26.3,15.2 c -2.2,1.3 -4.1,0.4 -4.8,0 -0.7,-0.4 -2.4,-1.7 -2.4,-4.2 V 24.2 c 0,-2.5 1.7,-3.7 2.4,-4.2 0.4,-0.3 1.3,-0.7 2.4,-0.7 0.7,0 1.5,0.2 2.4,0.7 l 28.9,16.7 63.1,36.4 c 2.2,1.3 2.4,3.3 2.4,4.2 -0.1,0.8 -0.3,2.9 -2.5,4.2 z"
             id="path59" />
          <path
             style="fill:url(#SVGID_2_)"
             class="st1"
             d="m 74,129.5 -37.8,21.8 c -3.8,2.2 -7.9,3.3 -12.1,3.3 -4.2,0 -8.3,-1.1 -12.1,-3.3 C 4.5,146.9 0,139.1 0,130.4 V 49.2 l 19.4,21 v 60.2 c 0,2.5 1.7,3.7 2.4,4.2 0.7,0.4 2.6,1.3 4.8,0 l 34,-19.6 z"
             id="path61" />
          <linearGradient
             id="linearGradient202"
             x1="99.467003"
             x2="75.262001"
             y1="41.735001"
             y2="149.42999"
             gradientUnits="userSpaceOnUse">
            <stop
               stop-color="#DA1C5C"
               offset="0"
               id="stop198" />
            <stop
               stop-color="#9E1F63"
               offset="1"
               id="stop200" />
          </linearGradient>
          <path
             style="fill:url(#SVGID_3_-0)"
             class="st2"
             d="m 140.3,77.3 c 0,8.7 -4.5,16.6 -12.1,20.9 l -54.2,31.3 -21.9,12.6 0.7,-22.8 7.7,-4.5 57.9,-33.5 c 2.2,-1.3 2.4,-3.3 2.4,-4.2 0,-0.8 -0.2,-2.9 -2.4,-4.2 l -63,-36.2 0.7,-22 72.1,41.6 c 7.6,4.4 12.1,12.3 12.1,21 z"
             id="path68" />
        </g>
      </g>
      <path
         id="path1"
         d="M 150.00734,-1.94256e-4 0.0180192,-0.00488635 0.0010804,150.00194 149.99916,150.00163 Z"
         class="st0"
         style="fill:url(#linearGradient145);stroke-width:0.87538999" />
      <path
         id="path2"
         d="M 79.773927,150.00699 0.00138679,149.99998 0.0228426,20.50354 79.958205,107.83595 Z"
         class="st1"
         style="fill:url(#for_path_2);stroke-width:0.87538999;fill-opacity:1" />
      <path
         id="path3"
         d="m 72.328735,149.98948 c 0,0 0.712812,-110.9907 0.515534,-149.9280468 L 150.00465,-4.5249605e-4 150.00202,149.99762 Z"
         class="st2"
         style="fill:url(#linearGradient1120);stroke-width:0.87538999;fill-opacity:1.0" />
    </g>
  </g>
</svg>
