<?xml version="1.0" encoding="UTF-8" standalone="no"?>
<svg
   xmlns:dc="http://purl.org/dc/elements/1.1/"
   xmlns:cc="http://creativecommons.org/ns#"
   xmlns:rdf="http://www.w3.org/1999/02/22-rdf-syntax-ns#"
   xmlns:svg="http://www.w3.org/2000/svg"
   xmlns="http://www.w3.org/2000/svg"
   width="150mm"
   height="150mm"
   viewBox="0 0 150 150"
   version="1.1"
   id="svg_logo">
  <metadata
     id="metadata34">
    <rdf:RDF>
      <cc:Work
         rdf:about="">
        <dc:format>image/svg+xml</dc:format>
        <dc:type
           rdf:resource="http://purl.org/dc/dcmitype/StillImage" />
        <dc:title></dc:title>
      </cc:Work>
    </rdf:RDF>
  </metadata>
   <defs>
      <linearGradient id="linearGradient_01" x1="65.622" x2="29.274" y1="54.041" y2="80.512" gradientTransform="matrix(.87539 0 0 .87539 26.906 7.1745)" gradientUnits="userSpaceOnUse">
         <stop stop-color="#DA1C5C" offset="0"/>
         <stop stop-color="#9E1F63" offset="1"/>
      </linearGradient>
      <linearGradient id="linearGradient_02" x1="-20.479" x2="60.6" y1="87.435" y2="115" gradientTransform="matrix(.87539 0 0 .87539 26.906 7.1764)" gradientUnits="userSpaceOnUse">
         <stop stop-color="#EE4168" offset="0"/>
         <stop stop-color="#9E1F63" offset="1"/>
      </linearGradient>
      <linearGradient id="linearGradient_03" x1="97.439" x2="52.196" y1="61.342" y2="129.43" gradientTransform="matrix(.87539 0 0 .87539 26.903 7.1785)" gradientUnits="userSpaceOnUse">
         <stop stop-color="#DA1C5C" offset="0"/>
         <stop stop-color="#9E1F63" offset="1"/>
      </linearGradient>
      <pattern id="svg_background" x="0" y="0" width="150" height="150" patternUnits="userSpaceOnUse">
         <g id="svg_background_g" x="0" y="0" width="150" height="150" style="transform-origin: center;">
            <path class="st0" d="m150 0.004687-149.99-0.0047-0.01694 150.01 150-3.1e-4z" fill="url(#linearGradient_01)"/>
            <path class="st1" d="m79.77 150.01-79.773-7e-3 0.02146-129.5 79.935 87.332z" fill="url(#linearGradient_02)"/>
            <path class="st2" d="m72.322 150s0.71281-110.99 0.51553-149.93l77.16-0.06189-3e-3 150z" fill="url(#linearGradient_03)"/>
         </g>
      </pattern>

   </defs>
  <circle
     style="fill:#2f51a8;fill-opacity:0;fill-rule:evenodd;stroke-width:0.61980987"
     id="path3867"
     cx="74.98703"
     cy="74.656013"
     r="74.819252" />
  <path
     fill="url(#svg_background)" 
     id="svg_background_path"
     d="M 139.23545,56.657419 76.030041,20.10173 58.672666,10.108089 c -6.662429,-3.8571949 -14.552147,-3.8571949 -21.214574,0 -6.662428,3.769531 -10.607287,10.694949 -10.607287,18.321676 v 93.098665 c 0,7.62672 3.944859,14.55214 10.607287,18.32167 3.331213,1.9286 6.925418,2.8929 10.607286,2.8929 3.594205,0 7.276072,-0.9643 10.607288,-2.8929 l 13.938498,-8.06504 19.11065,-11.04561 47.513636,-27.438677 c 6.66243,-3.857196 10.60728,-10.69495 10.60728,-18.321676 0,-7.626728 -3.94485,-14.552146 -10.60728,-18.321678 z m -8.50336,22.003546 -50.757188,29.367275 -6.750092,3.94486 -23.055507,13.32486 c -1.928598,1.13962 -3.594205,0.35065 -4.20785,0 -0.613644,-0.35066 -2.103924,-1.49028 -2.103924,-3.68187 V 28.429765 c 0,-2.191588 1.49028,-3.24355 2.103924,-3.681868 0.350655,-0.262991 1.139626,-0.613645 2.103925,-0.613645 0.613645,0 1.314953,0.175327 2.103925,0.613645 L 75.50406,39.387705 130.81975,71.29723 c 1.9286,1.139624 2.10393,2.892896 2.10393,3.681867 -0.0877,0.701308 -0.263,2.542241 -2.19159,3.681868 z"
     class="st0"
     style="display:inline;fill:url(#svg_background);opacity:1;stroke-width:0.87663519;transform-origin: center;" />
</svg>
