<?xml version="1.0" encoding="utf-8"?>
<!-- Generator: Adobe Illustrator 21.1.0, SVG Export Plug-In . SVG Version: 6.00 Build 0)  -->
<svg version="1.1" id="Capa_1" xmlns="http://www.w3.org/2000/svg" xmlns:xlink="http://www.w3.org/1999/xlink" x="0px" y="0px"
	 viewBox="0 0 140.3 154.6" style="enable-background:new 0 0 140.3 154.6;" xml:space="preserve">
<style type="text/css">
	.st0{fill:url(#SVGID_1_);}
	.st1{fill:url(#SVGID_2_);}
	.st2{fill:url(#SVGID_3_);}
</style>
<g>
	<g>
		<linearGradient id="SVGID_1_" gradientUnits="userSpaceOnUse" x1="65.6221" y1="54.0407" x2="29.2737" y2="80.5119">
			<stop  offset="0" style="stop-color:#DA1C5C"/>
			<stop  offset="1" style="stop-color:#9E1F63"/>
		</linearGradient>
		<path class="st0" d="M128.2,56.4L56.1,14.7L36.3,3.3c-7.6-4.4-16.6-4.4-24.2,0C4.5,7.6,0,15.5,0,24.2v106.2
			c0,8.7,4.5,16.6,12.1,20.9c3.8,2.2,7.9,3.3,12.1,3.3c4.1,0,8.3-1.1,12.1-3.3l15.9-9.2L74,129.5l54.2-31.3
			c7.6-4.4,12.1-12.2,12.1-20.9C140.3,68.6,135.8,60.7,128.2,56.4z M118.5,81.5l-57.9,33.5l-7.7,4.5l-26.3,15.2
			c-2.2,1.3-4.1,0.4-4.8,0c-0.7-0.4-2.4-1.7-2.4-4.2V24.2c0-2.5,1.7-3.7,2.4-4.2c0.4-0.3,1.3-0.7,2.4-0.7c0.7,0,1.5,0.2,2.4,0.7
			l28.9,16.7l63.1,36.4c2.2,1.3,2.4,3.3,2.4,4.2C120.9,78.1,120.7,80.2,118.5,81.5z"/>
	</g>
	<linearGradient id="SVGID_2_" gradientUnits="userSpaceOnUse" x1="-20.4791" y1="87.4348" x2="57.7738" y2="125.3258">
		<stop  offset="0" style="stop-color:#EE4168"/>
		<stop  offset="1" style="stop-color:#9E1F63"/>
	</linearGradient>
	<path class="st1" d="M74,129.5l-37.8,21.8c-3.8,2.2-7.9,3.3-12.1,3.3c-4.2,0-8.3-1.1-12.1-3.3C4.5,146.9,0,139.1,0,130.4V49.2
		l19.4,21v60.2c0,2.5,1.7,3.7,2.4,4.2c0.7,0.4,2.6,1.3,4.8,0l34-19.6L74,129.5z"/>
	<linearGradient id="SVGID_3_" gradientUnits="userSpaceOnUse" x1="99.4667" y1="41.7348" x2="75.2616" y2="149.4299">
		<stop  offset="0" style="stop-color:#DA1C5C"/>
		<stop  offset="1" style="stop-color:#9E1F63"/>
	</linearGradient>
	<path class="st2" d="M140.3,77.3c0,8.7-4.5,16.6-12.1,20.9L74,129.5l-21.9,12.6l0.7-22.8l7.7-4.5l57.9-33.5
		c2.2-1.3,2.4-3.3,2.4-4.2c0-0.8-0.2-2.9-2.4-4.2L55.4,36.7l0.7-22l72.1,41.6C135.8,60.7,140.3,68.6,140.3,77.3z"/>
</g>
</svg>
