<?xml version="1.0" encoding="utf-8"?>
<!-- Generator: Adobe Illustrator 21.1.0, SVG Export Plug-In . SVG Version: 6.00 Build 0)  -->
<svg version="1.1" id="Capa_1" xmlns="http://www.w3.org/2000/svg" xmlns:xlink="http://www.w3.org/1999/xlink" x="0px" y="0px"
	 viewBox="0 0 345 155.1" style="enable-background:new 0 0 345 155.1;" xml:space="preserve">
<style type="text/css">
	.st0{fill:#FFFFFF;}
	.st1{font-family:'Roboto'; font-weight:500;}
	.st2{font-size:82.3059px;}
	.st3{fill:url(#SVGID_1_);}
	.st4{fill:url(#SVGID_2_);}
	.st5{fill:url(#SVGID_3_);}
	.st6{fill:none;}
	.st7{fill:url(#SVGID_4_);}
	.st8{fill:url(#SVGID_5_);}
	.st9{fill:url(#SVGID_6_);}
	.st10{fill:url(#SVGID_7_);}
	.st11{fill:url(#SVGID_8_);}
	.st12{fill:url(#SVGID_9_);}
	.st13{fill:url(#SVGID_10_);}
	.st14{fill:url(#SVGID_11_);}
	.st15{fill:url(#SVGID_12_);}
	.st16{fill:url(#SVGID_13_);}
	.st17{fill:url(#SVGID_14_);}
	.st18{fill:url(#SVGID_15_);}
	.st19{fill:url(#SVGID_16_);}
</style>
<text transform="matrix(1 0 0 1 0 68.8905)" class="st0 st1 st2">Open</text>
<g>
	<g>
		<linearGradient id="SVGID_1_" gradientUnits="userSpaceOnUse" x1="270.335" y1="54.5213" x2="233.9866" y2="80.9925">
			<stop  offset="0" style="stop-color:#DA1C5C"/>
			<stop  offset="1" style="stop-color:#9E1F63"/>
		</linearGradient>
		<path class="st3" d="M332.9,56.8l-72.1-41.6L241,3.8c-7.6-4.4-16.6-4.4-24.2,0c-7.6,4.4-12.1,12.2-12.1,20.9v106.2
			c0,8.7,4.5,16.6,12.1,20.9c3.8,2.2,7.9,3.3,12.1,3.3c4.1,0,8.3-1.1,12.1-3.3l15.9-9.2l21.9-12.6l54.2-31.3
			c7.6-4.4,12.1-12.2,12.1-20.9C345,69,340.5,61.2,332.9,56.8z M323.2,81.9l-57.9,33.5l-7.7,4.5L231.3,135c-2.2,1.3-4.1,0.4-4.8,0
			c-0.7-0.4-2.4-1.7-2.4-4.2V24.7c0-2.5,1.7-3.7,2.4-4.2c0.4-0.3,1.3-0.7,2.4-0.7c0.7,0,1.5,0.2,2.4,0.7l28.9,16.7l63.1,36.4
			c2.2,1.3,2.4,3.3,2.4,4.2C325.6,78.6,325.4,80.7,323.2,81.9z"/>
	</g>
	<linearGradient id="SVGID_2_" gradientUnits="userSpaceOnUse" x1="184.2337" y1="87.9154" x2="262.4867" y2="125.8064">
		<stop  offset="0" style="stop-color:#EE4168"/>
		<stop  offset="1" style="stop-color:#9E1F63"/>
	</linearGradient>
	<path class="st4" d="M278.7,130L241,151.8c-3.8,2.2-7.9,3.3-12.1,3.3c-4.2,0-8.3-1.1-12.1-3.3c-7.6-4.4-12.1-12.2-12.1-20.9V49.7
		l19.4,21v60.2c0,2.5,1.7,3.7,2.4,4.2c0.7,0.4,2.6,1.3,4.8,0l34-19.6L278.7,130z"/>
	<linearGradient id="SVGID_3_" gradientUnits="userSpaceOnUse" x1="304.1796" y1="42.2154" x2="279.9744" y2="149.9105">
		<stop  offset="0" style="stop-color:#DA1C5C"/>
		<stop  offset="1" style="stop-color:#9E1F63"/>
	</linearGradient>
	<path class="st5" d="M345,77.8c0,8.7-4.5,16.6-12.1,20.9L278.7,130l-21.9,12.6l0.7-22.8l7.7-4.5l57.9-33.5c2.2-1.3,2.4-3.3,2.4-4.2
		c0-0.8-0.2-2.9-2.4-4.2l-63.1-36.4l0.7-22l72.1,41.6C340.5,61.2,345,69,345,77.8z"/>
</g>
<g>
	<path class="st6" d="M119.2,101.8c-2.2,0-4.1,0.5-5.6,1.5c-1.5,1-2.7,2.4-3.6,4.2v5.5l19.2,3.5c-0.1-4.2-0.9-7.7-2.4-10.4
		C125.3,103.2,122.7,101.8,119.2,101.8z"/>
	<path class="st6" d="M175,112.3v-1c0-2.9-0.7-5.2-2.2-7c-1.5-1.8-3.7-2.7-6.6-2.7c-2.5,0-4.5,1-6.2,3c-1.6,2-2.6,4.5-3,7.5l0.1,0.2
		H175z"/>
	<linearGradient id="SVGID_4_" gradientUnits="userSpaceOnUse" x1="24.633" y1="147.2926" x2="24.633" y2="69.8296">
		<stop  offset="0" style="stop-color:#DA1C5C"/>
		<stop  offset="1" style="stop-color:#9E1F63"/>
	</linearGradient>
	<polygon class="st7" points="29.7,86.9 48,86.9 48,78.8 1.3,78.8 1.3,86.9 19.6,86.9 19.6,96.5 29.7,98.3 	"/>
	<linearGradient id="SVGID_5_" gradientUnits="userSpaceOnUse" x1="84.2919" y1="147.2926" x2="84.2919" y2="69.8296">
		<stop  offset="0" style="stop-color:#DA1C5C"/>
		<stop  offset="1" style="stop-color:#9E1F63"/>
	</linearGradient>
	<polygon class="st8" points="89.3,94.3 79.2,94.3 79.2,107.3 89.3,109.2 	"/>
	<linearGradient id="SVGID_6_" gradientUnits="userSpaceOnUse" x1="56.5" y1="147.2926" x2="56.5" y2="69.8296">
		<stop  offset="0" style="stop-color:#DA1C5C"/>
		<stop  offset="1" style="stop-color:#9E1F63"/>
	</linearGradient>
	<polygon class="st9" points="61.5,94.3 51.5,94.3 51.5,102.3 61.5,104.1 	"/>
	<linearGradient id="SVGID_7_" gradientUnits="userSpaceOnUse" x1="119.6525" y1="147.2926" x2="119.6525" y2="69.8296">
		<stop  offset="0" style="stop-color:#DA1C5C"/>
		<stop  offset="1" style="stop-color:#9E1F63"/>
	</linearGradient>
	<path class="st10" d="M110,107.4c0.9-1.8,2.1-3.2,3.6-4.2c1.5-1,3.4-1.5,5.6-1.5c3.5,0,6,1.4,7.7,4.3c1.5,2.7,2.3,6.2,2.4,10.4
		l10.1,1.8v-0.9c0-7.2-1.5-13-4.6-17.4c-3.1-4.4-7.4-6.6-13-6.6c-2.6,0-4.8,0.5-6.8,1.5c-1.9,1-3.6,2.5-5,4.4v-25H99.9v36.7L110,113
		V107.4z"/>
	<linearGradient id="SVGID_8_" gradientUnits="userSpaceOnUse" x1="165.7781" y1="147.2926" x2="165.7781" y2="69.8296">
		<stop  offset="0" style="stop-color:#DA1C5C"/>
		<stop  offset="1" style="stop-color:#9E1F63"/>
	</linearGradient>
	<path class="st11" d="M156.9,119.9l0.1-0.2H185v-5.9c0-6.2-1.6-11.1-4.8-14.8c-3.2-3.7-7.9-5.5-13.9-5.5c-5.7,0-10.4,2.1-14.1,6.4
		c-3.8,4.3-5.6,9.7-5.6,16.3v1.7c0,0.6,0,1.2,0.1,1.8l10.5,1.9C157,121,156.9,120.5,156.9,119.9z M160.1,104.6c1.6-2,3.7-3,6.2-3
		c2.9,0,5.1,0.9,6.6,2.7c1.5,1.8,2.2,4.1,2.2,7v1h-17.8l-0.1-0.2C157.5,109.1,158.5,106.5,160.1,104.6z"/>
	<linearGradient id="SVGID_9_" gradientUnits="userSpaceOnUse" x1="24.633" y1="147.2926" x2="24.633" y2="69.8296">
		<stop  offset="0" style="stop-color:#DA1C5C"/>
		<stop  offset="1" style="stop-color:#9E1F63"/>
	</linearGradient>
	<polygon class="st12" points="29.7,139.3 29.7,98.3 19.6,96.5 19.6,139.3 	"/>
	
		<linearGradient id="SVGID_10_" gradientUnits="userSpaceOnUse" x1="313.1199" y1="27.4146" x2="292.4387" y2="89.1448" gradientTransform="matrix(-0.9838 -0.1791 0.1791 -0.9838 307.016 238.6563)">
		<stop  offset="0" style="stop-color:#DA1C5C"/>
		<stop  offset="1" style="stop-color:#9E1F63"/>
	</linearGradient>
	<polygon class="st13" points="29.7,139.3 29.7,98.3 19.6,96.5 19.6,139.3 	"/>
	<linearGradient id="SVGID_11_" gradientUnits="userSpaceOnUse" x1="70.406" y1="147.2926" x2="70.406" y2="69.8296">
		<stop  offset="0" style="stop-color:#DA1C5C"/>
		<stop  offset="1" style="stop-color:#9E1F63"/>
	</linearGradient>
	<path class="st14" d="M55.5,135.6c2.7,3.1,6.5,4.6,11.3,4.6c2.8,0,5.3-0.6,7.5-1.9c2.2-1.3,3.9-3.1,5.4-5.5l0.8,6.6h8.8v-30.1
		l-10.1-1.8v19.5c-0.9,1.7-2.2,2.9-3.9,3.8c-1.6,0.9-3.7,1.3-6.1,1.3c-2.6,0-4.5-0.8-5.8-2.4c-1.3-1.6-1.9-4.3-1.9-8.3v-17.2
		l-10.1-1.8v18.9C51.5,127.7,52.8,132.5,55.5,135.6z"/>
	
		<linearGradient id="SVGID_12_" gradientUnits="userSpaceOnUse" x1="273.7737" y1="14.2326" x2="253.0925" y2="75.9628" gradientTransform="matrix(-0.9838 -0.1791 0.1791 -0.9838 307.016 238.6563)">
		<stop  offset="0" style="stop-color:#DA1C5C"/>
		<stop  offset="1" style="stop-color:#9E1F63"/>
	</linearGradient>
	<path class="st15" d="M55.5,135.6c2.7,3.1,6.5,4.6,11.3,4.6c2.8,0,5.3-0.6,7.5-1.9c2.2-1.3,3.9-3.1,5.4-5.5l0.8,6.6h8.8v-30.1
		l-10.1-1.8v19.5c-0.9,1.7-2.2,2.9-3.9,3.8c-1.6,0.9-3.7,1.3-6.1,1.3c-2.6,0-4.5-0.8-5.8-2.4c-1.3-1.6-1.9-4.3-1.9-8.3v-17.2
		l-10.1-1.8v18.9C51.5,127.7,52.8,132.5,55.5,135.6z"/>
	<linearGradient id="SVGID_13_" gradientUnits="userSpaceOnUse" x1="119.6525" y1="147.2926" x2="119.6525" y2="69.8296">
		<stop  offset="0" style="stop-color:#DA1C5C"/>
		<stop  offset="1" style="stop-color:#9E1F63"/>
	</linearGradient>
	<path class="st16" d="M108.4,139.3l1-5.8c1.4,2.2,3.1,3.9,5.2,5c2.1,1.1,4.5,1.7,7.3,1.7c5.6,0,9.9-2,13-6c3.1-4,4.6-9.3,4.6-15.9
		v0l-10.1-1.8c0,0.3,0,0.6,0,1v0.9c0,4.2-0.8,7.5-2.4,10c-1.6,2.5-4.1,3.7-7.6,3.7c-2.3,0-4.2-0.5-5.7-1.5c-1.5-1-2.7-2.4-3.6-4.2
		V113l-10.1-1.8v28.2H108.4z"/>
	
		<linearGradient id="SVGID_14_" gradientUnits="userSpaceOnUse" x1="233.833" y1="0.8515" x2="213.1518" y2="62.5817" gradientTransform="matrix(-0.9838 -0.1791 0.1791 -0.9838 307.016 238.6563)">
		<stop  offset="0" style="stop-color:#DA1C5C"/>
		<stop  offset="1" style="stop-color:#9E1F63"/>
	</linearGradient>
	<path class="st17" d="M108.4,139.3l1-5.8c1.4,2.2,3.1,3.9,5.2,5c2.1,1.1,4.5,1.7,7.3,1.7c5.6,0,9.9-2,13-6c3.1-4,4.6-9.3,4.6-15.9
		v0l-10.1-1.8c0,0.3,0,0.6,0,1v0.9c0,4.2-0.8,7.5-2.4,10c-1.6,2.5-4.1,3.7-7.6,3.7c-2.3,0-4.2-0.5-5.7-1.5c-1.5-1-2.7-2.4-3.6-4.2
		V113l-10.1-1.8v28.2H108.4z"/>
	<linearGradient id="SVGID_15_" gradientUnits="userSpaceOnUse" x1="165.228" y1="147.2926" x2="165.228" y2="69.8296">
		<stop  offset="0" style="stop-color:#DA1C5C"/>
		<stop  offset="1" style="stop-color:#9E1F63"/>
	</linearGradient>
	<path class="st18" d="M167.4,140.2c3.7,0,6.9-0.5,9.7-1.5c2.8-1,5-2.3,6.7-3.8l-3.2-6.6c-1.8,1.2-3.7,2.2-5.6,2.9
		c-1.9,0.7-4.3,1-7,1c-3.4,0-6.1-1.1-8-3.4c-1.6-1.9-2.6-4.3-3-7.1l-10.5-1.9c0.3,5.7,2.2,10.5,5.6,14.3
		C156,138.1,161,140.2,167.4,140.2z"/>
	
		<linearGradient id="SVGID_16_" gradientUnits="userSpaceOnUse" x1="192.0792" y1="-13.1371" x2="171.398" y2="48.5931" gradientTransform="matrix(-0.9838 -0.1791 0.1791 -0.9838 307.016 238.6563)">
		<stop  offset="0" style="stop-color:#DA1C5C"/>
		<stop  offset="1" style="stop-color:#9E1F63"/>
	</linearGradient>
	<path class="st19" d="M167.4,140.2c3.7,0,6.9-0.5,9.7-1.5c2.8-1,5-2.3,6.7-3.8l-3.2-6.6c-1.8,1.2-3.7,2.2-5.6,2.9
		c-1.9,0.7-4.3,1-7,1c-3.4,0-6.1-1.1-8-3.4c-1.6-1.9-2.6-4.3-3-7.1l-10.5-1.9c0.3,5.7,2.2,10.5,5.6,14.3
		C156,138.1,161,140.2,167.4,140.2z"/>
</g>
</svg>
