<svg xmlns:dc="http://purl.org/dc/elements/1.1/" xmlns:cc="http://creativecommons.org/ns#" xmlns:rdf="http://www.w3.org/1999/02/22-rdf-syntax-ns#" xmlns:svg="http://www.w3.org/2000/svg" xmlns="http://www.w3.org/2000/svg" id="svg3805" version="1.1" viewBox="0 0 150 150" height="150mm" width="150mm">
  
  
  
  <g transform="translate(-0.00241089,0.35936737)" style="display:inline;opacity:0.65" id="layer2">
    
    <g transform="matrix(0.87321244,0,0,0.87321244,27.233434,7.7141709)" id="g4699" style="display:inline">
      <g transform="matrix(1.0039198,0,0,1.0039198,-0.43542096,-0.98297547)" id="g4683">
        
        <path style="fill:red" class="st0" d="M 128.2,56.4 56.1,14.7 36.3,3.3 C 28.7,-1.1 19.7,-1.1 12.1,3.3 4.5,7.6 0,15.5 0,24.2 v 106.2 c 0,8.7 4.5,16.6 12.1,20.9 3.8,2.2 7.9,3.3 12.1,3.3 4.1,0 8.3,-1.1 12.1,-3.3 L 52.2,142.1 74,129.5 128.2,98.2 c 7.6,-4.4 12.1,-12.2 12.1,-20.9 0,-8.7 -4.5,-16.6 -12.1,-20.9 z m -9.7,25.1 -57.9,33.5 -7.7,4.5 -26.3,15.2 c -2.2,1.3 -4.1,0.4 -4.8,0 -0.7,-0.4 -2.4,-1.7 -2.4,-4.2 V 24.2 c 0,-2.5 1.7,-3.7 2.4,-4.2 0.4,-0.3 1.3,-0.7 2.4,-0.7 0.7,0 1.5,0.2 2.4,0.7 l 28.9,16.7 63.1,36.4 c 2.2,1.3 2.4,3.3 2.4,4.2 -0.1,0.8 -0.3,2.9 -2.5,4.2 z" id="path4681"/>
      </g>
      
      
    </g>
  </g>
  
</svg>