<?xml version="1.0" encoding="UTF-8" standalone="no"?>
<svg
   xmlns:dc="http://purl.org/dc/elements/1.1/"
   xmlns:cc="http://creativecommons.org/ns#"
   xmlns:rdf="http://www.w3.org/1999/02/22-rdf-syntax-ns#"
   xmlns:svg="http://www.w3.org/2000/svg"
   xmlns="http://www.w3.org/2000/svg"
   style="enable-background:new"
   id="logo_path"
   version="1.1"
   viewBox="0 0 150 150"
   height="150mm"
   width="150mm">
  <path
     style="display:inline;opacity:1;fill:#050000;fill-opacity:1;fill-rule:evenodd;stroke:none;stroke-width:0.2;stroke-miterlimit:4;stroke-dasharray:none"
     d="m 47.53457,23.997499 c -0.48221,0 -0.92043,0.0877 -1.28209,0.20825 -0.36166,0.12056 -0.64682,0.27364 -0.82217,0.40515 -0.15344,0.10959 -0.36153,0.25764 -0.58756,0.45217 -0.22604,0.19452 -0.46987,0.43583 -0.69454,0.73173 -0.22466,0.29591 -0.42997,0.64669 -0.57929,1.06041 -0.0747,0.20685 -0.13529,0.4293 -0.17725,0.66869 -0.0419,0.23939 -0.0656,0.49547 -0.0656,0.76946 v 93.198451 c 0,0.27398 0.0237,0.53146 0.0656,0.77308 0.042,0.24162 0.10259,0.4672 0.17725,0.67748 0.14932,0.42056 0.35463,0.77968 0.57929,1.08107 0.22467,0.30138 0.4685,0.54493 0.69454,0.73535 0.22603,0.19042 0.43412,0.32729 0.58756,0.41496 0.15343,0.0877 0.37282,0.20303 0.64543,0.30851 0.27262,0.10549 0.5987,0.20132 0.96584,0.25063 0.36713,0.0493 0.77532,0.0519 1.21233,-0.0289 0.2185,-0.0404 0.44406,-0.1018 0.67541,-0.18861 0.23134,-0.0868 0.46841,-0.19911 0.70951,-0.34159 27.18328,-15.72033 56.68538,-32.823885 80.57286,-46.642635 0.24111,-0.14247 0.45484,-0.29603 0.64441,-0.45682 0.18956,-0.1608 0.35518,-0.32882 0.49971,-0.50075 0.28905,-0.34385 0.49439,-0.70277 0.64234,-1.04799 0.14795,-0.34522 0.23823,-0.67678 0.29713,-0.96584 0.0589,-0.28905 0.0866,-0.53571 0.10853,-0.71106 0,-0.19727 -0.0113,-0.4546 -0.0579,-0.74776 -0.0466,-0.29316 -0.12831,-0.62196 -0.27079,-0.9617 -0.14247,-0.33974 -0.34535,-0.69084 -0.63303,-1.02784 -0.28769,-0.337 -0.66035,-0.66022 -1.14257,-0.94517 C 103.40475,55.661429 76.51767,40.143299 49.63883,24.610899 c -0.39453,-0.21919 -0.76706,-0.37266 -1.11776,-0.47129 -0.35069,-0.0986 -0.67964,-0.14211 -0.9865,-0.14211 z"
     id="logo_path_1" />
  <path
     style="display:inline;opacity:1;fill:#000000;fill-opacity:1;fill-rule:evenodd;stroke:none;stroke-width:0.2;stroke-miterlimit:4;stroke-dasharray:none"
     d="M 0,-1.1708984e-6 V 150.00014 H 150.00015 V -1.1708984e-6 Z M 47.53457,7.0760489 c 0.90963,0 1.81904,0.0603 2.72387,0.18087 0.90483,0.12055 1.80499,0.30149 2.69544,0.5425999 0.89044,0.24111 1.77161,0.54216 2.63808,0.90382 0.86647,0.36166 1.71835,0.78386 2.55127,1.26607 l 80.57285,46.5553002 c 0.83291,0.47125 1.62327,0.99192 2.36885,1.55701 0.74558,0.5651 1.44668,1.17432 2.10013,1.82367 0.65345,0.64933 1.25938,1.3384 1.81591,2.0624 0.55654,0.724 1.06344,1.483136 1.51825,2.272206 0.45483,0.78907 0.85784,1.60853 1.20613,2.45308 0.3483,0.84456 0.64202,1.71405 0.87902,2.60449 0.23699,0.89045 0.41705,1.80177 0.53795,2.72852 0.12089,0.92675 0.18242,1.86911 0.18242,2.82257 0,0.95346 -0.0615,1.89442 -0.18242,2.81895 -0.1209,0.92452 -0.30096,1.83271 -0.53795,2.71973 -0.237,0.88702 -0.53072,1.7532 -0.87902,2.59415 -0.34829,0.84096 -0.7513,1.65642 -1.20613,2.44275 -0.45481,0.78633 -0.96172,1.54339 -1.51825,2.26653 -0.55653,0.72314 -1.16246,1.41256 -1.81591,2.06395 -0.65344,0.6514 -1.35454,1.26498 -2.10013,1.83607 -0.74558,0.57108 -1.53594,1.0996 -2.36885,1.58181 L 58.14323,139.7279 c -0.83292,0.48222 -1.68758,0.90442 -2.55747,1.26608 -0.8699,0.36166 -1.75523,0.66271 -2.64842,0.90382 -0.89318,0.2411 -1.79422,0.42205 -2.69699,0.5426 -0.90278,0.12056 -1.80711,0.18087 -2.70578,0.18087 -0.92058,0 -1.83558,-0.0603 -2.74247,-0.18087 -0.90688,-0.12055 -1.80567,-0.30149 -2.69337,-0.5426 -0.88771,-0.24111 -1.76419,-0.54216 -2.62723,-0.90382 -0.86305,-0.36166 -1.71267,-0.78386 -2.54559,-1.26608 -0.8329,-0.47125 -1.62326,-0.99192 -2.36884,-1.55701 -0.74558,-0.56509 -1.44617,-1.17432 -2.09962,-1.82366 -0.65345,-0.64934 -1.25989,-1.3384 -1.81642,-2.0624 -0.55653,-0.724 -1.06344,-1.48314 -1.51825,-2.27222 -0.45482,-0.78907 -0.85732,-1.60852 -1.20562,-2.45308 -0.3483,-0.84455 -0.64253,-1.71404 -0.87953,-2.60449 -0.237,-0.89045 -0.41706,-1.80177 -0.53795,-2.72852 -0.1209,-0.92674 -0.18242,-1.8691 -0.18242,-2.82256 V 28.293359 c 0,-0.95346 0.0615,-1.89582 0.18242,-2.82257 0.12089,-0.92675 0.30095,-1.83807 0.53795,-2.72851 0.237,-0.89045 0.53123,-1.75994 0.87953,-2.60449 0.3483,-0.84456 0.7508,-1.66401 1.20562,-2.45308 0.45481,-0.78908 0.96172,-1.54822 1.51825,-2.27222 0.55653,-0.724 1.16297,-1.41306 1.81642,-2.0624 0.65345,-0.64934 1.35404,-1.25857 2.09962,-1.82367 0.74558,-0.56509 1.53594,-1.08575 2.36884,-1.5570102 0.83292,-0.48221 1.6848,-0.90441 2.55127,-1.26607 0.86647,-0.36166 1.74764,-0.66271 2.63808,-0.90382 0.89045,-0.2411099 1.79061,-0.4220499 2.69544,-0.5425999 0.90483,-0.12055 1.81424,-0.18087 2.72387,-0.18087 z"
     id="logo_path_2" />
</svg>
