<?xml version="1.0" encoding="UTF-8" standalone="no"?>
<svg
   xmlns:dc="http://purl.org/dc/elements/1.1/"
   xmlns:cc="http://creativecommons.org/ns#"
   xmlns:rdf="http://www.w3.org/1999/02/22-rdf-syntax-ns#"
   xmlns:svg="http://www.w3.org/2000/svg"
   xmlns="http://www.w3.org/2000/svg"
   style="enable-background:new"
   id="svg8"
   version="1.1"
   viewBox="0 0 150.00015 150.00013"
   height="150.00014mm"
   width="150.00015mm">
  <defs
     id="defs2">
    <linearGradient
       id="SVGID_1_"
       gradientUnits="userSpaceOnUse"
       x1="65.622101"
       y1="54.040699"
       x2="29.273701"
       y2="80.511902">
      <stop
         offset="0"
         style="stop-color:#DA1C5C"
         id="stop4676" />
      <stop
         offset="1"
         style="stop-color:#9E1F63"
         id="stop4678" />
    </linearGradient>
    <linearGradient
       id="SVGID_2_"
       gradientUnits="userSpaceOnUse"
       x1="-20.479099"
       y1="87.434799"
       x2="57.7738"
       y2="125.3258">
      <stop
         offset="0"
         style="stop-color:#EE4168"
         id="stop4685" />
      <stop
         offset="1"
         style="stop-color:#9E1F63"
         id="stop4687" />
    </linearGradient>
    <linearGradient
       gradientTransform="translate(14.543998,18.179997)"
       id="SVGID_3_"
       gradientUnits="userSpaceOnUse"
       x1="99.466698"
       y1="41.734798"
       x2="75.261597"
       y2="149.4299">
      <stop
         offset="0"
         style="stop-color:#DA1C5C"
         id="stop4692" />
      <stop
         offset="1"
         style="stop-color:#9E1F63"
         id="stop4694" />
    </linearGradient>
    <clipPath
       id="clipPath1170"
       clipPathUnits="userSpaceOnUse">
      <g
         id="use1172"
         style="fill:#4d4d4d">
        <g
           id="g881"
           style="fill:#4d4d4d">
          <path
             style="display:inline;opacity:1;fill:#320000;fill-opacity:1;fill-rule:evenodd;stroke:none;stroke-width:0.75590551;stroke-miterlimit:4;stroke-dasharray:none"
             d="m 181.07227,90.746094 c -1.82253,0 -3.47881,0.331478 -4.84571,0.787109 -1.36689,0.455632 -2.44468,1.034197 -3.10742,1.53125 -0.5799,0.414211 -1.36639,0.97376 -2.2207,1.708985 -0.85431,0.735224 -1.77587,1.647255 -2.625,2.765624 -0.84914,1.11837 -1.62509,2.444166 -2.18946,4.007818 -0.28218,0.78182 -0.51135,1.62255 -0.66992,2.52734 -0.15856,0.90479 -0.24804,1.87267 -0.24804,2.9082 v 352.2461 c 0,1.03552 0.0895,2.00867 0.24804,2.92187 0.15857,0.9132 0.38774,1.76578 0.66992,2.56055 0.56437,1.58953 1.34032,2.94685 2.18946,4.08594 0.84913,1.13908 1.77069,2.0596 2.625,2.77929 0.85431,0.71969 1.6408,1.237 2.2207,1.56836 0.5799,0.33138 1.4091,0.76734 2.43945,1.16602 1.03035,0.39868 2.26279,0.76087 3.65039,0.94726 1.38761,0.18639 2.93037,0.19611 4.58204,-0.10937 0.82583,-0.15274 1.67836,-0.38476 2.55273,-0.71289 0.87437,-0.32814 1.77038,-0.75254 2.68164,-1.29102 l 87.15039,-50.36719 25.51563,-14.91211 191.86132,-111.00781 c 0.91127,-0.53847 1.7191,-1.11884 2.43555,-1.72656 0.71646,-0.60773 1.34243,-1.24279 1.88867,-1.89258 1.09248,-1.29959 1.86856,-2.65617 2.42774,-3.96094 0.55918,-1.30476 0.9004,-2.5579 1.12304,-3.65039 0.22265,-1.09248 0.32729,-2.02476 0.41016,-2.6875 0,-0.74558 -0.0427,-1.71815 -0.21875,-2.82617 -0.17604,-1.10801 -0.48496,-2.35071 -1.02344,-3.63476 -0.53847,-1.28406 -1.30527,-2.61107 -2.39258,-3.88477 -1.0873,-1.2737 -2.49581,-2.49532 -4.31835,-3.57227 L 284.79102,148.4043 189.02539,93.064453 c -1.49116,-0.828421 -2.89913,-1.40846 -4.22461,-1.78125 -1.32547,-0.372789 -2.56872,-0.537109 -3.72851,-0.537109 z"
             id="path875"
             transform="scale(0.26458333)" />
          <path
             style="display:inline;opacity:1;fill:#4d4d4d;fill-opacity:0;fill-rule:evenodd;stroke:none;stroke-width:0.75590551;stroke-miterlimit:4;stroke-dasharray:none"
             d="m 181.07227,26.791016 c -3.43796,0 -6.8751,0.227961 -10.29493,0.683593 -3.41983,0.455633 -6.82203,1.139517 -10.1875,2.050782 -3.36546,0.911264 -6.69584,2.049118 -9.9707,3.416015 -3.27486,1.366897 -6.49457,2.962627 -9.64258,4.785156 -3.148,1.781109 -6.13519,3.74899 -8.95312,5.884766 -2.81793,2.135776 -5.46582,4.438378 -7.93555,6.892578 -2.46973,2.454201 -4.76182,5.05854 -6.86523,7.794922 -2.10342,2.736382 -4.01931,5.605571 -5.73828,8.587891 -1.71898,2.982319 -3.24023,6.07947 -4.55665,9.271484 -1.31641,3.192014 -2.42848,6.478285 -3.32421,9.84375 -0.89574,3.365465 -1.57628,6.809828 -2.03321,10.3125 -0.45692,3.502672 -0.68945,7.064337 -0.68945,10.667967 v 351.91406 c 0,3.60365 0.23253,7.1653 0.68945,10.66797 0.45693,3.50268 1.13747,6.94703 2.03321,10.3125 0.89573,3.36547 2.0078,6.65174 3.32421,9.84375 1.31642,3.19202 2.83767,6.28917 4.55665,9.27149 1.71897,2.98232 3.63486,5.85151 5.73828,8.58789 2.10341,2.73638 4.3955,5.34072 6.86523,7.79492 2.46973,2.4542 5.11762,4.75681 7.93555,6.89258 2.81793,2.13577 5.80512,4.10366 8.95312,5.88476 3.14801,1.82254 6.35918,3.41826 9.6211,4.78516 3.26191,1.3669 6.57457,2.50475 9.92968,3.41602 3.35511,0.91126 6.75209,1.59514 10.17969,2.05078 3.4276,0.45563 6.88586,0.68359 10.36524,0.68359 3.39653,0 6.81449,-0.22796 10.22656,-0.68359 3.41206,-0.45564 6.81754,-1.13952 10.19336,-2.05078 3.37582,-0.91127 6.72196,-2.04912 10.00976,-3.41602 3.2878,-1.3669 6.51801,-2.96262 9.66602,-4.78516 l 52.6875,-30.48632 72.23828,-41.75196 179.60156,-103.71875 c 3.14801,-1.82253 6.1352,-3.82009 8.95313,-5.97851 2.81793,-2.15843 5.46776,-4.47749 7.9375,-6.93946 2.46973,-2.46196 4.75986,-5.06763 6.86328,-7.80078 2.10342,-2.73314 4.0193,-5.59444 5.73828,-8.5664 1.71898,-2.97197 3.24218,-6.054 4.55859,-9.23243 1.31642,-3.17842 2.42654,-6.45216 3.32227,-9.80468 0.89573,-3.35252 1.57628,-6.78504 2.0332,-10.2793 0.45693,-3.49426 0.68946,-7.05066 0.68946,-10.6543 0,-3.60363 -0.23253,-7.16529 -0.68946,-10.66797 -0.45692,-3.50267 -1.13747,-6.94703 -2.0332,-10.3125 -0.89573,-3.36546 -2.00585,-6.65173 -3.32227,-9.84375 -1.31641,-3.19201 -2.83961,-6.28916 -4.55859,-9.27148 -1.71898,-2.98232 -3.63486,-5.85151 -5.73828,-8.58789 -2.10342,-2.73638 -4.39355,-5.34072 -6.86328,-7.79492 -2.46974,-2.4542 -5.11957,-4.7568 -7.9375,-6.89258 -2.81793,-2.13578 -5.80512,-4.10366 -8.95313,-5.88477 L 286.7793,75.501953 221.16797,37.726562 c -3.14801,-1.822529 -6.36772,-3.418259 -9.64258,-4.785156 -3.27486,-1.366897 -6.60524,-2.504751 -9.9707,-3.416015 -3.36547,-0.911265 -6.76767,-1.595149 -10.1875,-2.050782 -3.41983,-0.455632 -6.85697,-0.683593 -10.29492,-0.683593 z m 0,63.955078 c 1.15979,0 2.40304,0.16432 3.72851,0.537109 1.32548,0.37279 2.73345,0.952829 4.22461,1.78125 l 95.76563,55.339847 209.09375,120.61718 c 1.82254,1.07695 3.23105,2.29857 4.31835,3.57227 1.08731,1.2737 1.85411,2.60071 2.39258,3.88477 0.53848,1.28405 0.8474,2.52675 1.02344,3.63476 0.17604,1.10802 0.21875,2.08059 0.21875,2.82617 -0.0829,0.66274 -0.18751,1.59502 -0.41016,2.6875 -0.22264,1.09249 -0.56386,2.34563 -1.12304,3.65039 -0.55918,1.30477 -1.33526,2.66135 -2.42774,3.96094 -0.54624,0.64979 -1.17221,1.28485 -1.88867,1.89258 -0.71645,0.60772 -1.52428,1.18809 -2.43555,1.72656 l -191.86132,111.00781 -25.51563,14.91211 -87.15039,50.36719 c -0.91126,0.53848 -1.80727,0.96288 -2.68164,1.29102 -0.87437,0.32813 -1.7269,0.56015 -2.55273,0.71289 -1.65167,0.30548 -3.19443,0.29576 -4.58204,0.10937 -1.3876,-0.18639 -2.62004,-0.54858 -3.65039,-0.94726 -1.03035,-0.39868 -1.85955,-0.83464 -2.43945,-1.16602 -0.5799,-0.33136 -1.36639,-0.84867 -2.2207,-1.56836 -0.85431,-0.71969 -1.77587,-1.64021 -2.625,-2.77929 -0.84914,-1.13909 -1.62509,-2.49641 -2.18946,-4.08594 -0.28218,-0.79477 -0.51135,-1.64735 -0.66992,-2.56055 -0.15856,-0.9132 -0.24804,-1.88635 -0.24804,-2.92187 v -352.2461 c 0,-1.03553 0.0895,-2.00341 0.24804,-2.9082 0.15857,-0.90479 0.38774,-1.74552 0.66992,-2.52734 0.56437,-1.563652 1.34032,-2.889448 2.18946,-4.007818 0.84913,-1.118369 1.77069,-2.0304 2.625,-2.765624 0.85431,-0.735225 1.6408,-1.294774 2.2207,-1.708985 0.66274,-0.497053 1.74053,-1.075618 3.10742,-1.53125 1.3669,-0.455631 3.02318,-0.787109 4.84571,-0.787109 z"
             id="path877"
             transform="scale(0.26458333)" />
          <path
             style="display:inline;opacity:1;fill:#000000;fill-opacity:1;fill-rule:evenodd;stroke:none;stroke-width:0.75590551;stroke-miterlimit:4;stroke-dasharray:none"
             d="M 1.4140625,0.046875 V 566.97656 H 568.34375 V 0.046875 Z M 181.07227,26.791016 c 3.43795,0 6.87509,0.227961 10.29492,0.683593 3.41983,0.455633 6.82203,1.139517 10.1875,2.050782 3.36546,0.911264 6.69584,2.049118 9.9707,3.416015 3.27486,1.366897 6.49457,2.962627 9.64258,4.785156 L 286.7793,75.501953 525.69531,213.68359 c 3.14801,1.78111 6.1352,3.74899 8.95313,5.88477 2.81793,2.13578 5.46776,4.43838 7.9375,6.89258 2.46973,2.4542 4.75986,5.05854 6.86328,7.79492 2.10342,2.73638 4.0193,5.60557 5.73828,8.58789 1.71898,2.98232 3.24218,6.07947 4.55859,9.27148 1.31642,3.19202 2.42654,6.47829 3.32227,9.84375 0.89573,3.36547 1.57628,6.80983 2.0332,10.3125 0.45693,3.50268 0.68946,7.06434 0.68946,10.66797 0,3.60364 -0.23253,7.16004 -0.68946,10.6543 -0.45692,3.49426 -1.13747,6.92678 -2.0332,10.2793 -0.89573,3.35252 -2.00585,6.62626 -3.32227,9.80468 -1.31641,3.17843 -2.83961,6.26046 -4.55859,9.23243 -1.71898,2.97196 -3.63486,5.83326 -5.73828,8.5664 -2.10342,2.73315 -4.39355,5.33882 -6.86328,7.80078 -2.46974,2.46197 -5.11957,4.78103 -7.9375,6.93946 -2.81793,2.15842 -5.80512,4.15598 -8.95313,5.97851 l -179.60156,103.71875 -72.23828,41.75196 -52.6875,30.48632 c -3.14801,1.82254 -6.37822,3.41826 -9.66602,4.78516 -3.2878,1.3669 -6.63394,2.50475 -10.00976,3.41602 -3.37582,0.91126 -6.7813,1.59514 -10.19336,2.05078 -3.41207,0.45563 -6.83003,0.68359 -10.22656,0.68359 -3.47938,0 -6.93764,-0.22796 -10.36524,-0.68359 -3.4276,-0.45564 -6.82458,-1.13952 -10.17969,-2.05078 -3.35511,-0.91127 -6.66777,-2.04912 -9.92968,-3.41602 -3.26192,-1.3669 -6.47309,-2.96262 -9.6211,-4.78516 -3.148,-1.7811 -6.13519,-3.74899 -8.95312,-5.88476 -2.81793,-2.13577 -5.46582,-4.43838 -7.93555,-6.89258 -2.46973,-2.4542 -4.76182,-5.05854 -6.86523,-7.79492 -2.10342,-2.73638 -4.01931,-5.60557 -5.73828,-8.58789 -1.71898,-2.98232 -3.24023,-6.07947 -4.55665,-9.27149 -1.31641,-3.19201 -2.42848,-6.47828 -3.32421,-9.84375 -0.89574,-3.36547 -1.57628,-6.80982 -2.03321,-10.3125 -0.45692,-3.50267 -0.68945,-7.06432 -0.68945,-10.66797 V 106.98242 c 0,-3.60363 0.23253,-7.165295 0.68945,-10.667967 0.45693,-3.502672 1.13747,-6.947035 2.03321,-10.3125 0.89573,-3.365465 2.0078,-6.651736 3.32421,-9.84375 1.31642,-3.192014 2.83767,-6.289165 4.55665,-9.271484 1.71897,-2.98232 3.63486,-5.851509 5.73828,-8.587891 2.10341,-2.736382 4.3955,-5.340721 6.86523,-7.794922 2.46973,-2.4542 5.11762,-4.756802 7.93555,-6.892578 2.81793,-2.135776 5.80512,-4.103657 8.95312,-5.884766 3.14801,-1.822529 6.36772,-3.418259 9.64258,-4.785156 3.27486,-1.366897 6.60524,-2.504751 9.9707,-3.416015 3.36547,-0.911265 6.76767,-1.595149 10.1875,-2.050782 3.41983,-0.455632 6.85697,-0.683593 10.29493,-0.683593 z"
             id="path879"
             transform="scale(0.26458333)" />
        </g>
      </g>
    </clipPath>
  </defs>
  <metadata
     id="metadata5">
    <rdf:RDF>
      <cc:Work
         rdf:about="">
        <dc:format>image/svg+xml</dc:format>
        <dc:type
           rdf:resource="http://purl.org/dc/dcmitype/StillImage" />
        <dc:title></dc:title>
      </cc:Work>
    </rdf:RDF>
  </metadata>
  <g
     transform="translate(-283.14109,-37.220704)"
     id="layer2">
    <path
       style="display:inline;opacity:1;fill:#050000;fill-opacity:1;fill-rule:evenodd;stroke:none;stroke-width:0.2;stroke-miterlimit:4;stroke-dasharray:none"
       d="m 330.67566,61.218204 c -0.48221,0 -0.92043,0.0877 -1.28209,0.20825 -0.36166,0.12056 -0.64682,0.27364 -0.82217,0.40515 -0.15344,0.10959 -0.36153,0.25764 -0.58756,0.45217 -0.22604,0.19452 -0.46987,0.43583 -0.69454,0.73173 -0.22466,0.29591 -0.42997,0.64669 -0.57929,1.06041 -0.0747,0.20685 -0.13529,0.4293 -0.17725,0.66869 -0.0419,0.23939 -0.0656,0.49547 -0.0656,0.76946 v 93.198446 c 0,0.27398 0.0237,0.53146 0.0656,0.77308 0.042,0.24162 0.10259,0.4672 0.17725,0.67748 0.14932,0.42056 0.35463,0.77968 0.57929,1.08107 0.22467,0.30138 0.4685,0.54493 0.69454,0.73535 0.22603,0.19042 0.43412,0.32729 0.58756,0.41496 0.15343,0.0877 0.37282,0.20303 0.64543,0.30851 0.27262,0.10549 0.5987,0.20132 0.96584,0.25063 0.36713,0.0493 0.77532,0.0519 1.21233,-0.0289 0.2185,-0.0404 0.44406,-0.1018 0.67541,-0.18861 0.23134,-0.0868 0.46841,-0.19911 0.70951,-0.34159 27.18328,-15.72033 56.68538,-32.82388 80.57286,-46.64263 0.24111,-0.14247 0.45484,-0.29603 0.64441,-0.45682 0.18956,-0.1608 0.35518,-0.32882 0.49971,-0.50075 0.28905,-0.34385 0.49439,-0.70277 0.64234,-1.04799 0.14795,-0.34522 0.23823,-0.67678 0.29713,-0.96584 0.0589,-0.28905 0.0866,-0.53571 0.10853,-0.71106 0,-0.19727 -0.0113,-0.4546 -0.0579,-0.74776 -0.0466,-0.29316 -0.12831,-0.62196 -0.27079,-0.9617 -0.14247,-0.33974 -0.34535,-0.69084 -0.63303,-1.02784 -0.28769,-0.337 -0.66035,-0.66022 -1.14257,-0.94517 -26.89478,-15.504796 -53.78185,-31.022926 -80.66069,-46.555326 -0.39453,-0.21919 -0.76706,-0.37266 -1.11776,-0.47129 -0.35069,-0.0986 -0.67964,-0.14211 -0.9865,-0.14211 z"
       id="path1213-6" />
    <path
       style="display:inline;opacity:1;fill:#000000;fill-opacity:1;fill-rule:evenodd;stroke:none;stroke-width:0.2;stroke-miterlimit:4;stroke-dasharray:none"
       d="M 283.14109,37.220704 V 187.22084 H 433.14124 V 37.220704 Z m 47.53457,7.07605 c 0.90963,0 1.81904,0.0603 2.72387,0.18087 0.90483,0.12055 1.80499,0.30149 2.69544,0.5426 0.89044,0.24111 1.77161,0.54216 2.63808,0.90382 0.86647,0.36166 1.71835,0.78386 2.55127,1.26607 l 80.57285,46.5553 c 0.83291,0.47125 1.62327,0.99192 2.36885,1.55701 0.74558,0.5651 1.44668,1.17432 2.10013,1.82367 0.65345,0.64933 1.25938,1.3384 1.81591,2.0624 0.55653,0.724 1.06344,1.483136 1.51825,2.272206 0.45482,0.78907 0.85783,1.60853 1.20613,2.45308 0.3483,0.84456 0.64202,1.71405 0.87902,2.60449 0.23699,0.89045 0.41705,1.80177 0.53795,2.72852 0.12089,0.92675 0.18242,1.86911 0.18242,2.82257 0,0.95346 -0.0615,1.89442 -0.18242,2.81895 -0.1209,0.92452 -0.30096,1.83271 -0.53795,2.71973 -0.237,0.88702 -0.53072,1.7532 -0.87902,2.59415 -0.3483,0.84096 -0.75131,1.65642 -1.20613,2.44275 -0.45481,0.78633 -0.96172,1.54339 -1.51825,2.26653 -0.55653,0.72314 -1.16246,1.41256 -1.81591,2.06395 -0.65345,0.6514 -1.35455,1.26498 -2.10013,1.83607 -0.74558,0.57108 -1.53594,1.0996 -2.36885,1.58181 l -80.57285,46.5553 c -0.83292,0.48222 -1.68758,0.90442 -2.55747,1.26608 -0.8699,0.36166 -1.75523,0.66271 -2.64842,0.90382 -0.89318,0.2411 -1.79422,0.42205 -2.69699,0.5426 -0.90278,0.12056 -1.80711,0.18087 -2.70578,0.18087 -0.92058,0 -1.83558,-0.0603 -2.74247,-0.18087 -0.90688,-0.12055 -1.80567,-0.30149 -2.69337,-0.5426 -0.88771,-0.24111 -1.76419,-0.54216 -2.62723,-0.90382 -0.86305,-0.36166 -1.71267,-0.78386 -2.54559,-1.26608 -0.8329,-0.47125 -1.62326,-0.99192 -2.36884,-1.55701 -0.74558,-0.56509 -1.44617,-1.17432 -2.09962,-1.82366 -0.65345,-0.64934 -1.25989,-1.3384 -1.81642,-2.0624 -0.55653,-0.724 -1.06344,-1.48314 -1.51825,-2.27222 -0.45482,-0.78907 -0.85732,-1.60852 -1.20562,-2.45308 -0.3483,-0.84455 -0.64253,-1.71404 -0.87953,-2.60449 -0.237,-0.89045 -0.41706,-1.80177 -0.53795,-2.72852 -0.1209,-0.92674 -0.18242,-1.8691 -0.18242,-2.82256 V 65.514064 c 0,-0.95346 0.0615,-1.89582 0.18242,-2.82257 0.12089,-0.92675 0.30095,-1.83807 0.53795,-2.72851 0.237,-0.89045 0.53123,-1.75994 0.87953,-2.60449 0.3483,-0.84456 0.7508,-1.66401 1.20562,-2.45308 0.45481,-0.78908 0.96172,-1.54822 1.51825,-2.27222 0.55653,-0.724 1.16297,-1.41306 1.81642,-2.0624 0.65345,-0.64934 1.35404,-1.25857 2.09962,-1.82367 0.74558,-0.56509 1.53594,-1.08575 2.36884,-1.55701 0.83292,-0.48221 1.6848,-0.90441 2.55127,-1.26607 0.86647,-0.36166 1.74764,-0.66271 2.63808,-0.90382 0.89045,-0.24111 1.79061,-0.42205 2.69544,-0.5426 0.90483,-0.12055 1.81424,-0.18087 2.72387,-0.18087 z"
       id="rect1192-6" />
  </g>
  <style
     type="text/css"
     id="style4674">
	.st0{fill:url(#SVGID_1_);}
	.st1{fill:url(#SVGID_2_);}
	.st2{fill:url(#SVGID_3_);}
</style>
</svg>
