<?xml version="1.0" encoding="UTF-8"?>
<!-- Created with Inkscape (http://www.inkscape.org/) -->
<svg width="150mm" height="150mm" version="1.1" viewBox="0 0 150 150" xmlns="http://www.w3.org/2000/svg" xmlns:cc="http://creativecommons.org/ns#" xmlns:dc="http://purl.org/dc/elements/1.1/" xmlns:rdf="http://www.w3.org/1999/02/22-rdf-syntax-ns#">

 <metadata>
  <rdf:RDF>
   <cc:Work rdf:about="">
    <dc:format>image/svg+xml</dc:format>
    <dc:type rdf:resource="http://purl.org/dc/dcmitype/StillImage"/>
    <dc:title/>
   </cc:Work>
  </rdf:RDF>
 </metadata>
 <path class="st0" d="m139.09 56.537-63.213-36.56-17.36-9.9949c-6.6633-3.8577-14.554-3.8577-21.217 0-6.6633 3.77-10.609 10.696-10.609 18.324v93.111c0 7.6277 3.9454 14.554 10.609 18.324 3.3316 1.9288 6.9263 2.8933 10.609 2.8933 3.5947 0 7.277-0.96442 10.609-2.8933l13.94-8.0661 19.113-11.047 47.52-27.442c6.6633-3.8577 10.609-10.696 10.609-18.324 0-7.6277-3.9454-14.554-10.609-18.324zm-8.5044 22.006-50.764 29.371-6.751 3.9454-23.058 13.327c-1.9288 1.1398-3.5947 0.35071-4.2084 0-0.61372-0.35069-2.1042-1.4905-2.1042-3.6823v-93.198c0-2.1919 1.4905-3.244 2.1042-3.6823 0.3507-0.26302 1.1398-0.61372 2.1042-0.61372 0.61372 0 1.3151 0.17535 2.1042 0.61372l25.338 14.642 55.323 31.914c1.9289 1.1398 2.1042 2.8933 2.1042 3.6823-0.0877 0.7014-0.26302 2.5426-2.1919 3.6823z" fill="#f00" stroke-width=".87675"/>

</svg>
