<?xml version="1.0" encoding="UTF-8" standalone="no"?>
<svg
   xmlns:dc="http://purl.org/dc/elements/1.1/"
   xmlns:cc="http://creativecommons.org/ns#"
   xmlns:rdf="http://www.w3.org/1999/02/22-rdf-syntax-ns#"
   xmlns:svg="http://www.w3.org/2000/svg"
   xmlns="http://www.w3.org/2000/svg"
   width="1"
   height="1"
   viewBox="0 0 1 1"
   version="1.1"
   id="svg_logo_path"
   style="enable-background:new">
  <metadata
     id="metadata42">
    <rdf:RDF>
      <cc:Work
         rdf:about="">
        <dc:format>image/svg+xml</dc:format>
        <dc:type
           rdf:resource="http://purl.org/dc/dcmitype/StillImage" />
        <dc:title></dc:title>
      </cc:Work>
    </rdf:RDF>
  </metadata>
  <defs
     id="defs40" />
  <path
     d="m 0.33203125,0.078125 c -0.0224928,0 -0.0458258,0.0056488 -0.0664063,0.01757812 -0.041161,0.0233125 -0.0644531,0.06610995 -0.0644531,0.11328126 v 0.57421874 c 0,0.0235857 0.006286,0.0468273 0.0175781,0.0664063 0.0112009,0.0194878 0.0262945,0.0352188 0.046875,0.046875 0.0205804,0.0119295 0.0436396,0.0195315 0.0664063,0.0195312 0.0222197,0 0.0438726,-0.007599 0.0644531,-0.0195312 C 0.56622837,0.79813452 0.74718935,0.69452015 0.89453125,0.609375 0.91511185,0.5974456 0.93215848,0.5818966 0.94335938,0.5625 c 0.0112919,-0.0194878 0.0175781,-0.0428207 0.0175781,-0.0664063 0,-0.0235857 -0.006376,-0.0469185 -0.0175781,-0.0664063 C 0.9321585,0.4101097 0.91511155,0.3944688 0.89453125,0.3828125 0.72870324,0.28692173 0.56249445,0.19141175 0.39648438,0.09570312 0.37590377,0.08377368 0.35452409,0.07812495 0.33203125,0.078125 Z m 0,0.10351562 c 0.003734,0 0.008846,0.001175 0.0136719,0.003906 0.16591903,0.0959818 0.33194574,0.19112756 0.49804688,0.28710937 0.0119295,0.007012 0.0117188,0.0185198 0.0117188,0.0234375 -5.4693e-4,0.00428 -0.001742,0.0163346 -0.0136719,0.0234375 -0.18231064,0.10545274 -0.31979341,0.1851174 -0.49609376,0.28710937 -0.0118384,0.007012 -0.02361,0.002094 -0.0273437,0 -0.003825,-0.002185 -0.0117188,-0.008006 -0.0117188,-0.0214844 V 0.20898438 c 0,-0.0135686 0.007895,-0.0207966 0.0117188,-0.0234375 0.002186,-0.001639 0.007661,-0.003906 0.0136719,-0.003906 z"
     style="fill:#ff0000"
     id="path9263" />
</svg>
